<?xml version="1.0" encoding="utf-8" ?>
<svg xmlns="http://www.w3.org/2000/svg" xmlns:xlink="http://www.w3.org/1999/xlink" width="1024" height="1024">
	<path fill="#FEFEFE" d="M0 0L1024 0L1024 1024L0 1024L0 0Z"/>
	<path d="M775.322 26.2198L776.048 26.1749C786.712 25.5928 798.085 27.1362 806.253 34.5907C813.637 41.3299 816.559 51.0795 816.989 60.8201C817.501 72.4224 817.059 84.2034 817.199 95.833Q817.662 136.751 817.635 177.672C817.578 186.077 816.496 194.372 816.618 202.806L822.526 584.194L825.063 793.642L826.044 859.597C826.366 875.415 827.394 891.797 826.279 907.569C825.451 919.28 821.283 930.718 813.298 939.426C809.894 943.137 805.322 947.565 800.505 949.265C791.752 952.355 738.308 949.88 724.342 950.456C724.294 950.663 724.249 950.872 724.198 951.079C722.905 956.387 719.013 959.885 714.462 962.64C696.539 973.49 669.461 978.894 648.931 982.756Q634.55 985.334 620.085 987.388Q605.619 989.442 591.089 990.968Q576.559 992.494 561.982 993.49Q547.406 994.486 532.803 994.952Q518.2 995.417 503.59 995.351Q488.98 995.285 474.382 994.688Q459.783 994.09 445.217 992.962Q430.65 991.833 416.134 990.176C392.087 987.505 367.855 984.053 344.371 978.131C333.321 975.344 313.684 971.317 307.73 960.651C306.159 957.837 306.578 955.844 307.427 952.859L258.606 953.598C244.13 953.754 229.585 954.859 218.472 943.779C207.835 933.173 208.63 919.366 208.606 905.466L202.893 254.64C186.883 255.846 170.903 255.486 154.869 255.095C146.058 254.88 136.598 255.23 127.993 253.21Q126.55 252.867 125.152 252.369Q123.755 251.87 122.421 251.222Q121.086 250.574 119.83 249.784Q118.575 248.994 117.413 248.071C110.067 242.22 108.789 231.754 101.117 226.638C93.7239 221.708 82.5008 224.133 75.1087 218.562C73.5203 217.365 72.2961 215.653 72.0943 213.632C71.9294 211.98 72.5609 210.523 73.6581 209.334C80.2393 202.198 101.945 200.913 110.996 200.612C122.817 181.173 135.615 158.831 159.512 152.965C169.336 150.553 177.176 153.243 185.51 158.227C191.401 154.988 196.872 151.997 203.484 150.53C203.794 129.067 203.213 107.538 203.043 86.0749C202.963 76.0252 201.73 64.0701 203.86 54.2474C205.049 48.7606 207.999 43.6175 211.663 39.4043C216.568 33.7651 223.71 29.5936 231.167 28.6597C238.293 27.7674 245.675 28.0931 252.847 28.1096L283.994 28.1943L379.652 28.2095Q506.203 28.589 632.751 27.6602L711.606 27.5309C732.919 27.4849 754.04 27.5467 775.322 26.2198Z"/>
	<path fill="#FEFEFE" d="M455.408 913.438C456.122 913.442 457.118 913.352 457.797 913.544C458.758 913.816 459.289 914.464 459.546 915.42C460.251 918.041 457.98 921.964 456.891 924.338C456.138 924.196 455.049 924.094 454.375 923.749C453.369 923.235 452.876 922.42 452.677 921.325C452.211 918.774 454.218 915.555 455.408 913.438Z"/>
	<path fill="#FEFEFE" d="M297.344 206.402C304.832 206.355 313.066 207.239 320.382 208.895L320.771 209.696L321.054 209.169L321.267 209.7L319.886 210.1C312.486 211.168 304.96 211.786 297.523 212.625L297.344 206.402Z"/>
	<path fill="#FEFEFE" d="M548.396 836.123C549.508 836.224 550.58 836.332 551.652 836.664C553.32 837.182 554.981 838.362 555.654 840.037C556.286 841.609 556.263 843.133 555.613 844.684C554.539 847.25 552.655 848.276 550.206 849.323C549.387 849.221 548.551 849.119 547.75 848.912C545.707 848.381 543.893 846.844 542.968 844.958C542.247 843.49 542.143 841.793 542.792 840.28C543.834 837.85 546.064 836.949 548.396 836.123Z"/>
	<path fill="#FEFEFE" d="M105.766 208.217C106.383 208.171 106.773 208.271 107.369 208.414C108.229 210.714 107.92 214.075 108.124 216.602C100.784 216.327 93.3601 216.159 86.1238 214.808C84.2448 214.409 82.4169 213.728 80.5945 213.126L81.518 212.789C89.1888 209.95 97.6579 208.935 105.766 208.217Z"/>
	<path fill="#FEFEFE" d="M598.149 873.254C601.107 874.116 603.782 875.723 606.353 877.391C622.974 888.171 633.862 904.678 637.937 924.017C638.913 928.653 640.353 936.167 637.664 940.336C636.692 940.081 635.267 939.801 634.669 938.881C633.341 936.842 632.456 925.163 631.705 921.796Q630.4 915.971 628.025 910.494C623.263 899.593 615.325 890.716 605.667 883.889C602.796 881.86 598.762 879.761 596.586 877.016C596.474 875.455 597.325 874.488 598.149 873.254Z"/>
	<path fill="#FEFEFE" d="M536.154 861.206C539.601 860.968 545.312 860.349 548.356 862.128C548.774 863.39 548.761 863.629 548.495 864.938C546.291 866.947 541.858 866.262 538.981 866.277C513.582 866.41 493.616 875.515 475.962 893.397C474.797 894.816 473.619 896.323 472.212 897.513C471.028 898.514 469.949 898.943 468.421 898.825L468.008 897.78C468.278 894.621 469.729 892.298 471.757 889.911C474.266 886.959 477.348 884.389 480.317 881.907C496.656 868.245 515.188 862.605 536.154 861.206Z"/>
	<path fill="#FEFEFE" d="M267.127 170.704C268.859 170.748 270.625 170.931 272.236 171.592C273.834 172.247 275.939 173.092 276.617 174.781C276.26 175.701 276.173 175.958 275.28 176.486C272.371 178.206 268.544 178.993 265.443 180.555C249.287 188.692 229.651 199.978 221.78 216.899L215.056 216.852L205.005 216.64C207.281 212.539 209.817 208.68 212.803 205.055C226.331 188.638 245.275 172.831 267.127 170.704Z"/>
	<path fill="#FEFEFE" d="M203.847 158.089C209.064 157.538 212.525 158.859 216.848 161.587C210.272 165.823 202.981 168.895 196.488 173.308C181.923 183.206 170.064 199.428 166.761 216.824L161.625 216.908L147.258 217.005C147.286 212.149 148.105 208.572 150.286 204.212C159.459 185.874 184.106 164.574 203.847 158.089Z"/>
	<path fill="#FEFEFE" d="M282.017 182.561C282.104 182.6 282.201 182.623 282.279 182.678C284.279 184.075 285.551 190.005 286.132 192.384C287.107 196.38 290.858 209.888 288.223 213.428C286.405 215.871 244.683 216.682 238.568 216.877L229.673 216.921C238.716 201.663 265.467 187.55 282.017 182.561Z"/>
	<path fill="#FEFEFE" d="M238.674 161.077C239.327 161.001 239.221 161 240.007 160.985C244.678 160.891 247.997 163.695 251.17 166.742Q248.261 167.858 245.416 169.129C227.664 176.969 204.17 198.226 197.112 216.582L187.038 216.813L174.046 216.859C175.628 210.788 177.994 205.541 181.401 200.264C191.413 184.76 204.526 176.47 220.656 168.363C226.481 165.435 232.266 162.475 238.674 161.077Z"/>
	<path fill="#FEFEFE" d="M164.14 159.622C169.62 159.019 173.769 159.902 178.49 162.731C172.126 168.745 164.841 173.513 158.663 179.834C151.219 187.45 142.087 198.893 140.135 209.673C139.71 212.021 139.829 214.543 139.847 216.925L129.245 216.97C125.143 216.964 120.054 217.57 116.084 216.612C115.395 215.928 114.996 215.496 114.718 214.534C113.08 208.865 125.346 190.908 128.96 185.795C137.223 174.102 149.51 162.118 164.14 159.622Z"/>
	<path fill="#FEFEFE" d="M466.326 817.189C467.005 817.118 467.663 817.1 468.345 817.099C478.009 817.085 487.178 820.089 494.083 827.027C501.644 834.624 503.564 843.098 503.516 853.543Q500.465 854.563 497.473 855.744Q494.48 856.924 491.555 858.262Q488.629 859.599 485.779 861.09Q482.928 862.581 480.161 864.221Q477.394 865.862 474.718 867.646Q472.041 869.431 469.463 871.355Q466.885 873.28 464.413 875.338Q461.941 877.396 459.582 879.583C440.356 897.61 430.372 920.436 429.485 946.76C424.196 946.906 418.893 946.665 413.605 946.516C413.518 933.81 412.88 921.071 412.329 908.377C411.759 902.941 412.081 897.413 411.436 891.984C411.299 890.83 410.972 887.847 409.752 887.23C408.329 886.511 406.019 886.544 404.436 886.453C395.009 885.916 387.473 885.051 379.904 878.837Q379.27 878.316 378.662 877.763Q378.055 877.211 377.475 876.63Q376.895 876.048 376.345 875.438Q375.795 874.829 375.276 874.193Q374.757 873.556 374.27 872.896Q373.783 872.234 373.329 871.55Q372.875 870.866 372.456 870.16Q372.037 869.454 371.653 868.728Q371.269 868.002 370.922 867.258Q370.574 866.514 370.264 865.754Q369.954 864.994 369.682 864.219Q369.41 863.445 369.176 862.657Q368.943 861.87 368.749 861.072Q368.555 860.275 368.4 859.468Q368.246 858.662 368.131 857.849Q368.017 857.036 367.943 856.218C367.129 847.162 370.549 838.101 376.382 831.232C382.733 823.753 392.934 818.443 402.782 817.885C415.267 817.178 429.61 824.185 435.194 835.727C436.512 838.452 437.129 844.333 439.423 846.108C440.547 846.977 441.423 846.897 442.759 846.792C443.45 846.32 444.079 846.083 444.445 845.295C446.212 841.48 442.144 833.589 440.707 829.849C448.181 822.11 455.604 818.284 466.326 817.189Z"/>
	<path d="M403.893 829.059C404.091 829.063 404.291 829.049 404.488 829.071C406.24 829.266 408.02 830.039 409.113 831.391C409.09 834.063 406.572 835.202 404.479 836.294C397.673 839.846 391.861 842.221 389.663 850.271C388.991 852.731 388.584 855.653 387.406 857.915C387.262 858.191 387.108 858.463 386.959 858.737C385.969 858.882 384.788 859.014 383.812 858.753C382.698 858.454 381.808 857.521 381.419 856.46C380.046 852.722 383.247 846.127 385.186 842.869Q385.571 842.231 385.988 841.612Q386.404 840.993 386.85 840.396Q387.296 839.798 387.771 839.223Q388.245 838.648 388.748 838.097Q389.25 837.546 389.779 837.02Q390.307 836.494 390.861 835.994Q391.415 835.495 391.992 835.023Q392.57 834.551 393.17 834.108Q393.77 833.666 394.391 833.253Q395.011 832.84 395.652 832.458Q396.292 832.076 396.951 831.725Q397.609 831.375 398.283 831.057Q398.958 830.74 399.647 830.455Q400.337 830.171 401.039 829.921Q401.742 829.671 402.456 829.455Q403.169 829.239 403.893 829.059Z"/>
	<path fill="#FEFEFE" d="M402.951 926.698L404.486 926.613C407.872 930.465 403.8 949.318 407.762 953.139C408.378 953.733 409.46 953.674 410.271 953.76C415.388 954.297 420.783 953.827 425.949 954.055C450.259 955.127 474.599 954.813 498.93 954.818L593.182 954.509C609.312 954.456 625.538 954.848 641.657 954.437C643.851 954.381 647.303 954.763 648.789 953.07C652.98 948.295 651.308 933.26 650.787 927.042C666.774 928.717 686.748 933.103 701.509 939.366C705.161 940.916 715.055 945.12 716.011 949.34C716.301 950.624 715.919 951.733 715.152 952.747C706.82 963.758 659.438 973.324 645.391 976.039Q637.657 977.405 629.898 978.618Q622.139 979.831 614.357 980.89Q606.576 981.949 598.775 982.855Q590.974 983.76 583.156 984.511Q575.339 985.262 567.508 985.858Q559.677 986.454 551.836 986.896Q543.995 987.337 536.147 987.623Q528.299 987.91 520.447 988.041Q512.594 988.172 504.741 988.148Q496.888 988.124 489.036 987.945Q481.185 987.766 473.339 987.431Q465.492 987.097 457.654 986.607Q449.816 986.118 441.989 985.474Q434.162 984.829 426.349 984.031Q418.537 983.232 410.741 982.279Q402.946 981.326 395.171 980.219C371.229 976.894 345.653 972.987 323.144 963.769C320.194 962.561 315.774 960.656 314.753 957.351C314.288 955.848 314.832 954.38 315.715 953.163C326.568 938.208 384.152 929.194 402.951 926.698Z"/>
	<path d="M395.76 934.692C397.896 934.48 400.719 934.123 402.404 935.823C403.344 936.771 403.183 937.357 403.062 938.546C399.987 943.182 389.988 942.578 384.724 943.677C382.797 944.218 381.087 944.83 379.062 944.459C377.665 943.59 377.037 943.113 376.2 941.699C376.264 940.937 376.14 940.443 376.676 939.837C380.069 935.998 390.882 935.272 395.76 934.692Z"/>
	<path d="M358.64 943.052C359.879 943.06 361.35 942.958 362.27 943.963C363.163 944.939 363.14 945.469 363.116 946.688C361.192 950.534 345.559 956.01 340.792 958.464C339.981 958.547 339.243 958.517 338.445 958.301C337.168 957.955 336.908 957.795 336.294 956.721C336.256 955.731 336.284 954.912 336.827 954.044C340.472 948.217 352.176 944.587 358.64 943.052Z"/>
	<path fill="#FEFEFE" d="M776.764 42.7076C779.627 42.4346 782.73 42.3975 785.59 42.7368C789.972 43.2566 794.355 44.7228 797.115 48.3681C799.418 51.4101 800.476 55.656 800.893 59.3839C802.076 69.959 801.306 86.5399 801.394 97.5462L801.565 186.078L805.454 440.408L809.554 773.25L810.788 867.195Q810.947 879.418 811.264 891.638C811.425 897.647 811.963 904.047 811.178 910.02C810.155 917.807 805.37 927.633 799.014 932.428Q798.245 933.016 797.405 933.494Q796.564 933.973 795.666 934.335Q794.769 934.696 793.831 934.934Q792.893 935.172 791.932 935.281C782.91 936.274 772.931 935.174 763.807 935.181L728.552 935.355C722.642 935.364 716.13 935.88 710.308 934.875C704.091 933.802 698.063 929.981 691.953 928.169C677.851 923.986 663.353 921.407 648.816 919.309C646.623 907.446 641.981 896.267 634.528 886.733C616.633 863.842 589.377 853.65 561.357 850.214C562.886 847.321 563.685 843.985 563.285 840.711C562.862 837.241 561.014 834.22 558.2 832.163Q557.579 831.709 556.915 831.323Q556.25 830.937 555.549 830.621Q554.847 830.307 554.117 830.066Q553.387 829.826 552.635 829.664Q551.884 829.501 551.12 829.418Q550.355 829.335 549.586 829.332Q548.818 829.329 548.053 829.406Q547.288 829.483 546.535 829.64C542.701 830.432 539.185 832.719 537.107 836.061C534.668 839.984 534.83 843.901 535.911 848.209C527.323 848.532 518.957 849.571 510.624 851.693C510.183 840.208 508.086 831.174 499.883 822.627C491.628 814.025 480.786 810.152 469.019 809.918C456.083 809.66 445.334 815.121 436.129 823.946C427.88 817.374 420.373 812.258 409.585 811.182Q408.474 811.069 407.359 811.011Q406.244 810.952 405.127 810.949Q404.01 810.946 402.895 810.998Q401.779 811.049 400.668 811.156Q399.556 811.263 398.451 811.424Q397.346 811.585 396.25 811.8Q395.155 812.016 394.071 812.285Q392.987 812.554 391.918 812.876Q390.849 813.198 389.797 813.573Q388.745 813.947 387.712 814.373Q386.68 814.798 385.67 815.274Q384.659 815.75 383.674 816.276Q382.688 816.801 381.73 817.374Q380.772 817.947 379.843 818.566Q378.913 819.186 378.016 819.85Q377.119 820.515 376.255 821.223C367.708 828.312 361.904 838.778 361.03 849.91C360.206 860.395 363.444 871.474 370.338 879.484C379.211 889.793 390.831 892.936 403.906 894.008L404.813 919.21C384.049 920.697 357.833 926.509 337.877 932.776C332.361 934.516 327.639 937.194 321.709 937.403C305.115 937.989 288.352 937.489 271.739 937.562C262.976 937.6 249.691 938.613 241.636 937.332C237.749 936.713 233.582 934.146 230.794 931.448C228.147 928.886 225.429 924.578 225.075 920.86C224.33 913.052 224.631 904.848 224.591 896.991L224.429 857.757L223.355 737.343L218.68 253.924C235.253 253.096 253.037 254.58 269.325 250.947C288.383 246.695 288 234.677 296.846 221.193L297.255 220.58C306.371 219.445 326.797 219.485 333.769 214.033C335.12 212.977 336.455 211.3 336.49 209.513C336.514 208.265 335.842 207.314 335.008 206.46C329.486 200.805 303.884 198.433 295.595 198.781C293.093 187.283 289.708 175.764 280.483 167.679C274.261 162.226 266.634 163.046 259.012 163.582C255.727 160.585 252.502 157.511 248.436 155.586C240.299 151.736 232.9 154.65 225.05 157.372L219.991 154.161C219.235 133.37 219.575 112.5 219.493 91.6924C219.457 82.6047 218.465 69.5926 219.64 60.9939Q219.734 60.3025 219.879 59.62Q220.024 58.9375 220.22 58.2677Q220.415 57.5978 220.66 56.9443Q220.904 56.2907 221.196 55.6572Q221.489 55.0236 221.827 54.4134Q222.166 53.8032 222.548 53.2198Q222.931 52.6364 223.356 52.083Q223.781 51.5296 224.246 51.0093C227.476 47.3431 231.705 45.4662 236.517 44.8913C241.615 44.282 246.959 44.5752 252.094 44.5875L276.145 44.5712L358.102 44.158L638.504 43.8838L719.089 43.9511C738.344 43.9608 757.558 44.3354 776.764 42.7076Z"/>
	<path fill="#8A8A8A" d="M805.739 716.342C806.638 720.106 805.994 725.299 805.989 729.248C805.976 741.864 805.518 754.504 805.812 767.115L805.534 766.403C804.352 759.258 804.768 751.732 804.388 744.509C804.076 738.575 802.95 732.636 803.418 726.685C803.702 723.072 804.613 719.771 805.739 716.342Z"/>
	<path d="M453.807 375.179L456.018 375.644C457.102 376.628 457.451 377.55 457.706 378.957C458.385 382.7 458.76 401.479 456.894 404.124L454 403.836C452.974 403.106 452.683 403.065 452.439 401.773C451.686 397.77 451.749 381.639 452.574 377.564C452.76 376.646 453.284 375.933 453.807 375.179Z"/>
	<path d="M509.768 86.8707C511.055 86.9583 512.017 87.1788 513.228 87.6203C514.083 88.7475 514.094 89.408 514.184 90.8318C514.517 96.1166 514.959 111.09 514.007 115.696C513.837 116.521 513.4 117.038 512.867 117.661C511.774 117.562 510.717 117.561 509.778 116.927C509.151 116.504 508.904 115.665 508.786 114.948C508.065 110.572 507.923 93.4268 508.633 89.1153C508.782 88.2068 509.234 87.5937 509.768 86.8707Z"/>
	<path d="M417.176 783.192C418.42 783.359 419.68 783.711 420.514 784.722C423.453 788.287 419.51 795.146 419.383 799.251C419.311 801.596 420.235 804.217 419.784 806.519C419.479 808.075 418.058 808.865 416.849 809.714C415.823 809.463 414.783 809.293 413.972 808.555C412.652 807.354 412.173 805.328 411.967 803.635C411.159 797.004 413.198 788.518 417.176 783.192Z"/>
	<path d="M454.367 777.373C455.925 777.471 456.885 777.55 458.196 778.53C462.044 781.404 463.609 788.097 464.228 792.672C464.988 798.283 464.736 804.702 461.188 809.34C460.196 809.535 459.324 809.422 458.325 809.321C453.837 806.238 457.822 799.385 457.158 794.731C456.472 789.918 453.018 785.356 452.624 780.762C452.477 779.044 453.325 778.558 454.367 777.373Z"/>
	<path d="M483.101 87.0778C487.726 86.9741 492.415 86.8054 497.039 86.9567C499.424 87.0347 502.236 87.0978 503.952 88.9619C504.038 90.3301 503.914 90.3967 503.157 91.5621C501.167 92.4709 497.901 91.9828 495.682 91.9603L495.804 110.625C495.843 111.81 495.97 113.129 495.827 114.303C495.662 115.66 495.044 116.263 494.079 117.148C492.741 117.471 492.828 117.446 491.628 116.756C488.835 112.478 490.156 97.7337 490.129 91.9484C488.051 91.9445 485.257 92.5339 483.494 91.3207C482.675 89.9745 482.982 88.5772 483.101 87.0778Z"/>
	<path d="M634.085 375.503C636.075 375.357 637.894 375.332 639.833 375.884C641.357 376.319 641.924 376.825 642.676 378.193C642.587 379.45 642.454 379.937 641.668 380.928C639.81 381.331 638.845 380.393 637.049 380.139C635.616 379.937 635.245 380.322 634.121 381.075C631.42 386.395 642.789 388.017 644.401 393.956C645.005 396.18 644.433 399.258 643.144 401.16C641.514 403.565 638.836 404.416 636.124 404.931C633.703 404.555 630.668 404.139 628.711 402.527C627.6 401.612 627.685 401.157 627.527 399.816C629.054 397.422 635.163 400.39 638.142 399.491C638.684 398.93 639.102 398.72 639.225 397.904C640.171 391.59 631.304 389.989 628.131 385.818C627.324 384.758 626.886 383.66 627.19 382.307C627.798 379.605 631.794 376.745 634.085 375.503Z"/>
	<path d="M598.263 375.141C599.901 375.25 601.679 375.265 603.136 376.115C604.359 376.828 605.108 377.699 605.475 379.045C603.931 381.458 598.223 379.299 595.606 380.424C594.847 380.751 595.065 380.779 594.732 381.673C595.495 385.09 599.429 386.77 602.038 388.757C604.436 390.582 607.513 393.592 607.64 396.825C607.696 398.244 607.059 399.56 606.099 400.578C603.306 403.538 600.874 404.523 596.888 404.801C594.635 404.478 591.545 403.638 589.862 402.047C589.028 401.259 589.101 401.062 589.126 399.995C591.514 397.181 595.238 400.325 598.443 399.551C599.643 399.262 600.787 398.377 601.342 397.255C603.455 392.988 590.786 388.999 589.811 383.727C589.521 382.161 589.93 380.314 590.795 378.987C592.492 376.384 595.385 375.631 598.263 375.141Z"/>
	<path d="M611.193 375.992C614.513 375.862 621.71 374.692 623.958 377.264C624.688 378.1 624.819 378.49 624.598 379.519C622.153 381.496 618.243 380.909 615.277 380.846C615.161 382.644 615.224 384.48 615.213 386.284C616.773 386.263 618.496 386.136 620.043 386.333C621.264 386.489 621.974 387.056 622.681 388.04L622.484 389.148C620.143 391.413 618.058 391.338 614.991 391.562L614.988 398.874C617.309 399.801 619.634 398.879 621.977 399.374C623.035 399.598 624.101 400.531 624.5 401.525C624.752 402.153 624.422 402.429 624.158 402.993C623.396 403.517 622.775 403.883 621.869 404.118C618.412 405.014 613.967 405.08 610.818 403.242C610.429 402.68 610.192 402.185 610.076 401.505C609.674 399.139 609.633 381.21 610.089 378.442C610.248 377.475 610.668 376.799 611.193 375.992Z"/>
	<path d="M551.648 375.742L554.066 375.928C559.126 379.547 553.856 391.216 556.856 396.632C557.481 397.76 558.539 398.311 559.788 398.446C560.97 398.574 561.97 398.337 562.811 397.498C565.957 394.356 564.366 384.71 564.494 380.53C564.556 378.505 564.659 377.297 566.17 375.877C567.304 375.9 567.694 375.944 568.573 376.794C569.699 377.884 569.421 379.938 569.404 381.375C569.444 385.642 569.763 390.178 568.942 394.38C568.29 397.716 566.816 401.391 563.835 403.306C562.25 404.325 560.322 404.54 558.526 404.013C555.82 403.217 553.823 400.968 552.61 398.506C550.033 393.276 549.716 381.29 551.648 375.742Z"/>
	<path d="M555.619 601.595C560.6 601.588 575.627 600.465 579.068 602.882C579.975 603.519 579.746 603.633 579.892 604.65C579.769 604.811 579.67 604.994 579.523 605.134C576.931 607.597 573.226 607.011 569.959 606.921L569.987 625.75C570.055 627.794 570.486 630.878 569.811 632.804C569.376 634.044 568.874 634.2 567.78 634.685C566.609 634.575 565.96 634.597 565.169 633.56C562.647 630.252 563.967 611.595 563.989 606.906C561.635 606.862 558.12 607.44 556.105 606.168C555.249 604.46 555.515 603.478 555.619 601.595Z"/>
	<path d="M515.09 369.596C516.179 369.458 517.318 369.354 518.416 369.374C520.458 369.41 524.274 370.349 525.64 371.973C526.158 372.588 525.909 373.005 525.832 373.736C522.467 377.841 519.453 373.148 515.358 374.763C514.254 375.198 513.508 376.117 513.006 377.155C510.929 381.453 510.591 390.253 512.431 394.65C513.292 396.71 515.043 399.213 517.359 399.777C519.623 400.327 522.188 398.285 524.016 397.158C524.322 397.479 524.745 397.902 524.986 398.262C525.814 399.5 525.723 399.919 525.558 401.323C525.096 402.012 524.696 402.615 523.999 403.092C521.581 404.746 518.17 404.953 515.396 404.253C512.128 403.428 509.541 401.273 507.974 398.31C505.104 392.884 505.105 384.487 506.874 378.645C508.26 374.07 510.955 371.724 515.09 369.596Z"/>
	<path d="M593.017 86.6077C595.149 86.5093 597.26 86.3807 599.354 86.9036C600.731 87.2474 601.786 87.7553 602.51 89.0331C602.431 90.3546 602.478 90.6598 601.729 91.7252C599.398 92.601 597.103 91.161 594.736 91.4097C593.59 91.5301 593.408 91.8995 592.689 92.7077C592.612 93.357 592.416 94.0032 592.457 94.6558C592.497 95.2846 602.2 102.707 603.789 106.989C604.533 108.995 604.762 111.062 603.715 113.004C602.254 115.716 598.279 117.364 595.467 117.954C592.25 117.951 588.809 117.541 586.407 115.255C585.898 113.963 585.651 113.741 586.009 112.425C589.077 111.173 593.08 113.427 596.592 112.294C597.311 111.633 597.665 111.507 597.933 110.515C599.241 105.679 589.498 101.976 586.997 96.9961C586.168 95.3458 585.868 93.6251 586.611 91.8694C587.739 89.204 590.522 87.7229 593.017 86.6077Z"/>
	<path d="M466.046 87.1822C469.243 87.0766 472.881 86.6358 476.002 87.3729C477.72 87.7786 479.163 88.2872 480.102 89.8154C476.736 92.555 472.568 92.0537 468.475 92.0195L468.379 99.5061L470.51 99.4858C471.488 99.4739 472.528 99.3987 473.497 99.5549C474.812 99.7668 475.656 100.524 476.447 101.542C476.388 102.315 476.529 102.489 475.936 103.086C474.038 104.994 470.995 104.485 468.508 104.467L468.51 112.417C471.513 112.429 475.52 112.03 478.333 113.146C479.207 113.493 479.593 113.66 479.945 114.492C479.715 115.295 479.508 115.735 478.834 116.296C476.302 118.403 466.336 117.196 463.08 116.828C462.782 112.047 462.005 92.7552 463.537 89.2526C464.2 87.7368 464.575 87.7648 466.046 87.1822Z"/>
	<path d="M520.516 87.0625C524.473 86.9635 534.684 85.6485 537.403 88.1934C538.488 93.1498 528.517 107.363 525.683 112.312C529.685 112.235 534.523 111.017 538.191 112.851C539.151 114.313 538.85 115.261 538.805 116.982C534.253 117.494 526.98 118.169 522.638 116.988C521.037 116.552 520.504 115.886 519.728 114.475C519.484 109.846 528.362 96.3305 530.863 91.8505C528.27 91.8853 525.605 92.0306 523.018 91.9032C521.536 91.8302 520.718 91.476 519.728 90.3965C519.585 88.8391 519.872 88.4477 520.516 87.0625Z"/>
	<path d="M545.09 87.1711C548.627 87.0142 552.532 86.5653 556.038 87.0173C557.62 87.2213 558.846 87.5375 559.855 88.8641C559.886 90.1248 559.902 90.1371 559.141 91.1379C556.011 92.5914 552.149 92.0169 548.767 91.936L548.736 99.9329C550.142 99.8791 551.63 99.7553 553.033 99.8605C554.353 99.9596 555.069 100.473 555.97 101.423C556.025 102.232 556.231 102.394 555.643 103.053C553.862 105.049 550.996 104.66 548.545 104.723L548.56 112.289C551.035 112.258 553.632 112.094 556.094 112.329C557.965 112.507 559.911 113.108 561.092 114.565C560.129 115.989 558.914 116.413 557.263 116.78C554.284 117.44 546.372 118.019 543.789 116.437C542.619 114.468 542.389 93.4092 542.998 89.9664C543.268 88.4396 543.896 88.0782 545.09 87.1711Z"/>
	<path d="M571.943 376.108C573.434 375.935 574.943 375.802 576.446 375.822C579.136 375.859 582.257 377.029 584.106 379.038C585.217 380.244 585.763 381.681 585.513 383.341C585.093 386.134 582.824 387.957 580.705 389.532C583.127 393.889 585.642 398.047 588.442 402.176C587.055 402.954 585.764 403.715 584.221 404.151C582.731 403.649 582.774 403.262 582.025 401.935C580.257 398.111 578.469 394.421 576.254 390.834C576.322 395.482 576.885 400.659 574.504 404.833L573.015 404.929C572.932 404.799 572.839 404.675 572.767 404.538C570.846 400.898 570.953 380.511 571.943 376.108Z"/>
	<path fill="#FEFEFE" d="M576.649 379.649C578.369 379.925 579.139 380.291 580.236 381.612C580.549 383.232 580.132 384.19 579.563 385.668C578.548 386.043 577.984 386.336 576.917 386.012C575.84 384.324 576.479 381.584 576.649 379.649Z"/>
	<path d="M436.424 375.172C437.728 375.463 438.641 375.68 439.438 376.808C441.86 380.233 448.249 399.436 447.711 403.365C446.652 403.724 446.048 403.989 444.908 403.828C442.526 403.492 441.985 399.568 440.632 397.827L438.625 397.684L432.9 397.719C432.421 399.097 431.796 401.767 430.776 402.829C429.941 403.7 429.049 404.112 427.819 403.861C426.547 403.601 426.217 403.166 425.73 402.113C426.605 397.491 433.723 378.026 436.424 375.172Z"/>
	<path fill="#FEFEFE" d="M437.105 385.812C438.456 387.873 439.538 390.467 439.061 392.939L437.58 393.705L435.269 393.089L434.758 392.198C434.64 390.011 436.151 387.738 437.105 385.812Z"/>
	<path d="M593.187 601.198C595.156 601.32 597.075 601.423 598.959 602.071C600.719 602.676 601.858 603.263 602.716 604.942C602.387 606.242 602.157 606.467 601.227 607.456C599.138 607.995 596.866 606.711 594.792 606.359C593.456 606.131 592.559 606.397 591.436 607.146C590.67 608.427 590.654 608.664 590.658 610.166C592.658 614.442 598.617 614.89 601.741 618.241C603.473 620.1 604.372 623.065 604.283 625.575C604.195 628.017 603.096 630.225 601.266 631.833C598.135 634.583 594.881 634.933 590.886 634.594C588.232 633.823 585.652 632.955 583.489 631.192C582.908 629.97 582.919 629.874 583.145 628.535C585.852 626.361 591.543 630.039 595.158 629.309C596.821 628.973 597.519 628.09 598.397 626.782C599.142 620.303 585.867 617.926 584.333 610.665C583.946 608.831 584.495 606.908 585.561 605.398C587.386 602.813 590.16 601.655 593.187 601.198Z"/>
	<path d="M483.861 601.142C485.968 601.1 487.918 601.332 489.878 602.161C491.525 602.857 492.561 603.549 493.239 605.227C490.914 610.889 485.804 604.331 482.197 606.878C481.127 607.634 480.886 608.166 480.575 609.343C481.804 613.099 488.768 615.583 491.843 618.103C493.863 619.76 495.595 621.922 495.784 624.622C495.947 626.937 494.954 629.499 493.436 631.229C490.891 634.131 487.374 634.63 483.745 634.898C481.058 634.569 478.178 634.129 476.197 632.114C475.234 631.136 474.789 630.175 474.771 628.8C476.687 626.668 482.619 630.141 485.982 629.429C487.722 629.061 488.689 627.871 489.591 626.477C490.025 620.276 475.981 618.193 474.151 611.182C473.662 609.309 474.177 607.465 475.183 605.86C477.145 602.73 480.441 601.837 483.861 601.142Z"/>
	<path d="M423.387 601.653C428.285 601.531 436.877 600.381 441.045 603.048C442.018 603.671 441.798 603.811 442.025 604.865C438.695 607.899 432.715 607.11 428.52 607.022L428.531 613.245C430.122 613.19 432.534 612.835 434.064 613.288C435.287 613.65 435.851 614.214 436.57 615.218C436.493 616.059 436.649 616.239 435.986 616.869C434.01 618.748 431.08 618.121 428.572 618.009L428.561 628.367C429.855 629.984 437.734 628.678 440.303 629.323C441.537 629.632 441.87 629.988 442.466 631.064C442.318 632.417 441.908 632.991 441.161 634.081C437.346 635.106 430.697 634.892 426.697 634.592C425.097 634.472 424.237 634.083 423.238 632.849C422.579 627.074 421.966 606.702 423.387 601.653Z"/>
	<path d="M455.129 601.564C458.134 601.33 461.933 601.076 464.67 602.587C466.137 603.396 466.739 604.444 467.248 605.98L466.775 606.913C463.266 608.239 458.783 606.311 454.957 607.345C454.513 607.854 454.099 608.011 454.212 608.744C454.928 613.363 461.65 615.377 464.927 617.746C467.051 619.281 468.27 621.314 468.534 623.917C468.805 626.595 468.206 629.16 466.444 631.238C463.787 634.372 460.4 635.079 456.496 635.29C453.436 634.519 449.704 633.796 448.039 630.782C447.406 629.635 447.371 629.036 447.665 627.792L448.72 627.245C450.491 627.262 451.334 627.858 452.874 628.637C455.045 629.734 457.457 630.359 459.8 629.325C461.152 628.728 461.582 628.178 462.192 626.868C462.633 621.397 451.957 617.569 448.908 613.009C447.963 611.596 447.281 609.865 447.812 608.156C448.78 605.043 452.408 602.876 455.129 601.564Z"/>
	<path d="M503.424 601.602C507.56 601.573 517.809 600.578 521.239 602.068C521.636 603.329 521.741 604.081 521.573 605.395C519.044 608.83 512.884 606.11 509.073 607.413C508.176 608.373 507.918 608.657 508.041 610.089C508.502 615.42 513.288 611.599 516.125 613.778C516.259 615.031 516.295 615.642 515.735 616.784C513.998 618.061 510.641 617.52 508.508 617.468C508.472 621.284 508.305 625.158 508.681 628.958C512.089 629.017 518.606 628.03 521.589 629.402C522.771 629.946 522.721 630.325 523.11 631.485C522.974 631.658 522.853 631.844 522.702 632.004C518.891 636.064 507.852 634.536 502.573 634.479C502.185 629.256 501.058 604.489 503.424 601.602Z"/>
	<path d="M443.268 87.0951C447.249 86.8033 452.375 86.3975 455.692 89.0296C457.715 90.6349 459.89 94.0526 459.983 96.6967C460.051 98.6744 459.258 100.365 457.936 101.801C455.59 104.35 452.677 105.739 449.277 105.967C448.376 106.028 447.632 105.973 446.8 106.368C446.66 106.435 446.536 106.533 446.404 106.616C446.48 109.004 446.898 112.041 446.405 114.365C446.041 116.076 445.573 116.74 444.094 117.641C442.916 117.477 442.679 117.455 441.92 116.426C439.885 113.667 439.981 93.6737 440.757 90.0451C441.108 88.4064 442.003 88.0041 443.268 87.0951Z"/>
	<path fill="#FEFEFE" d="M446.048 92.0149C447.52 91.9907 449.596 91.7888 450.968 92.3661C452.041 92.8174 453.102 93.4915 453.489 94.6397C454.158 96.6232 453.403 98.4262 452.533 100.208C451.462 100.588 450.057 101.145 448.926 101.221C447.526 101.316 447.296 101.011 446.335 100.141C445.467 97.6798 445.951 94.6012 446.048 92.0149Z"/>
	<path d="M421.253 87.1201C423.799 87.0147 426.564 86.7456 429.041 87.4475C432.252 88.3571 435.593 90.4264 437.14 93.4828C437.986 95.1525 438.093 96.9399 437.422 98.6898C434.065 107.451 428.493 104.197 424.27 106.318C424.128 106.389 424.004 106.493 423.872 106.58C423.866 109.225 424.375 113.477 423.205 115.842C422.558 117.151 422.064 117.222 420.782 117.611C419.425 117.249 419.228 117.214 418.288 116.19C417.443 110.495 417.671 94.7487 418.496 89.0765C419.382 87.8007 419.861 87.7248 421.253 87.1201Z"/>
	<path fill="#FEFEFE" d="M423.931 92.0886C425.778 92.2139 428.042 92.1798 429.605 93.325C430.568 94.0314 431.303 94.869 431.305 96.1362C431.308 97.6952 430.408 98.9666 429.528 100.16C427.725 100.83 425.803 101.082 423.915 101.418L423.931 92.0886Z"/>
	<path d="M467.629 375.321C467.862 375.363 468.099 375.39 468.329 375.448C471.6 376.266 478.597 390.429 480.812 394.207C480.925 389.921 479.683 378.939 482.029 376.022C483.451 375.805 484.089 375.767 485.483 376.294C487.248 378.867 486.691 397.184 486.377 401.047C486.21 403.091 485.868 403.524 484.287 404.836C483.677 404.748 482.836 404.682 482.244 404.451C478.836 403.124 472.02 389.61 470.013 386.088C470.152 390.65 471.349 398.847 469.552 402.901C469.103 403.913 468.914 403.971 467.948 404.352C466.838 404.085 466.25 404.03 465.564 402.999C463.699 400.198 464.442 382.056 464.717 377.955C465.395 376.473 466.274 376.068 467.629 375.321Z"/>
	<path d="M568.667 86.6417C572.851 86.6216 576.867 86.9625 580.045 90.0035C581.649 91.5378 582.56 93.574 582.437 95.8059C582.243 99.317 580.019 101.472 577.547 103.66C579.031 106.784 581.716 110.569 582.706 113.756C583.14 115.154 582.986 115.312 582.299 116.486C581.119 117.049 580.236 117.152 578.948 116.776C577.397 116.324 576.644 114.469 575.927 113.16C574.608 110.285 573.481 107.314 571.291 104.98L570.492 105.087C568.916 108.856 570.709 113.633 568.161 117.098C566.806 117.663 566.733 117.587 565.297 117.215C564.805 116.72 564.425 116.271 564.222 115.585C563.579 113.409 563.642 93.8084 563.848 90.707C563.907 89.8206 564.216 89.1638 564.608 88.3819C565.873 87.1785 567.028 86.9954 568.667 86.6417Z"/>
	<path fill="#FEFEFE" d="M569.604 91.8556C570.953 91.8574 572.605 91.7329 573.887 92.203C574.919 92.5812 575.98 93.1916 576.388 94.2664C577.129 96.2197 576.297 97.9443 575.497 99.7146C574.54 99.9782 573.447 100.374 572.464 100.465C571.106 100.592 570.858 100.37 569.866 99.5878C568.988 97.2709 569.492 94.3058 569.604 91.8556Z"/>
	<path d="M400.801 79.036C402.277 78.9596 403.488 78.9517 404.948 79.293C405.781 79.8859 406.186 80.4343 406.566 81.3634C409.14 87.652 410.293 95.2945 411.984 101.942C412.917 105.609 414.306 109.379 414.974 113.083C415.217 114.429 415.136 115.335 414.645 116.599C413.376 117.516 413.096 117.431 411.504 117.48C407.09 115.198 409.448 109.067 406.499 105.916L399.823 105.656C399.041 108.849 398.327 114.437 396.112 116.849C395.551 117.461 394.899 117.664 394.04 117.584C392.74 117.461 392.432 116.858 391.788 115.892C391.471 110.682 398.528 85.0516 400.801 79.036Z"/>
	<path fill="#FEFEFE" d="M403.252 91.3957C403.391 91.5408 403.564 91.6596 403.669 91.831C404.846 93.7516 405.389 97.894 405.338 100.163L404.302 101.15C403.177 100.905 402.451 100.933 401.595 100.12C401.161 97.1466 402.425 94.2378 403.252 91.3957Z"/>
	<path d="M537.707 375.478C538.963 375.499 540.038 375.547 541.233 375.972C544.387 377.095 546.756 379.683 548.015 382.741C549.838 387.169 550.011 392.542 548.159 396.987C546.492 400.99 544.023 403.016 540.111 404.656C538.63 404.644 536.987 404.723 535.568 404.242C532.794 403.301 530.531 400.817 529.362 398.194C527.405 393.802 527.42 388.237 529.19 383.791C530.92 379.444 533.462 377.219 537.707 375.478Z"/>
	<path fill="#FEFEFE" d="M537.581 380.874C537.784 380.891 537.987 380.904 538.19 380.925C540.178 381.134 541.496 381.795 542.711 383.427C544.567 385.92 544.871 389.216 544.442 392.206C543.956 395.598 542.803 397.743 540.092 399.796C538.043 399.461 536.582 398.955 535.195 397.329C533.402 395.227 532.776 392.464 532.976 389.75C533.26 385.883 534.635 383.32 537.581 380.874Z"/>
	<path d="M531.928 601.646C534.736 601.52 537.705 601.351 540.47 601.912C543.966 602.621 547.55 604.506 549.417 607.654C550.439 609.378 550.71 611.108 550.106 613.028C549.04 616.419 545.455 618.443 542.475 619.809C545.151 623.117 548.548 626.631 550.536 630.385C551.272 631.776 551.481 632.665 551.058 634.174C550.08 634.934 548.933 635.1 547.714 634.91C546.18 634.672 545.663 633.912 544.76 632.78C542.466 629.351 539.713 624.029 536.372 621.642C535.481 621.006 535.908 621.152 534.775 621.321C533.327 625.131 535.417 629.668 533.927 633.668C532.979 634.484 532.704 634.522 531.46 634.765C530.312 634.35 529.69 634.156 529.067 632.982C528.766 632.414 527.971 604.705 528.322 603.54C529.388 602.208 530.357 602.038 531.928 601.646Z"/>
	<path fill="#FEFEFE" d="M534.327 606.556C536.406 606.616 538.795 606.543 540.745 607.335C542.044 607.862 543.107 608.764 543.437 610.182C543.779 611.655 542.872 613.184 542.234 614.452C540.845 615.248 538.892 616.296 537.256 616.31C536.497 616.316 535.835 616.222 535.309 615.652C533.488 613.678 534.242 609.073 534.327 606.556Z"/>
	<path d="M406.344 380.609C409.471 377.61 414.348 368.972 418.658 368.425C419.197 368.357 419.242 368.368 419.592 368.779C422.423 372.094 421.301 393.98 421.174 399.276C421.131 401.095 421.288 402.303 419.951 403.589C418.519 403.976 417.756 403.988 416.334 403.758C413.814 400.932 415.059 390.674 415.084 386.625L415.013 379.006C412.554 382.514 410.105 385.32 406.689 387.928C402.928 385.739 400.405 382.581 397.705 379.26C397.835 382.43 398.402 401.319 397.25 403.269C396.888 403.881 395.73 404.253 395.013 404.265C393.578 404.289 393.261 404.035 392.285 403.129C391.435 398.766 391.164 375.039 391.951 370.59C392.11 369.692 392.517 369.043 393.01 368.293C398.449 368.921 401.997 376.389 405.768 380.054L406.344 380.609Z"/>
	<path d="M393.577 601.622Q394.915 601.546 396.255 601.536C402.032 601.495 407.531 602.725 411.68 607.045Q412.245 607.623 412.748 608.256Q413.252 608.889 413.688 609.57Q414.124 610.251 414.489 610.972Q414.854 611.694 415.144 612.449Q415.433 613.204 415.644 613.984Q415.856 614.765 415.987 615.563Q416.117 616.361 416.166 617.168Q416.215 617.975 416.182 618.783C415.933 623.82 413.394 627.569 409.738 630.818C405.704 633.313 400.911 635.053 396.105 635.112C394.579 635.131 393.185 634.967 392.036 633.89C391.061 629.697 390.4 606.451 391.836 602.844C392.159 602.033 392.837 601.971 393.577 601.622Z"/>
	<path fill="#FEFEFE" d="M397.119 606.901C399.829 606.969 402.64 607.23 404.976 608.74C407.583 610.425 409.361 612.883 409.863 615.975C410.472 619.727 409.059 623.251 406.831 626.176C405.827 626.889 404.833 627.512 403.688 627.979C401.737 628.775 399.686 629.626 397.678 628.742C396.346 622.115 397.22 613.735 397.119 606.901Z"/>
	<path d="M745.781 525.257C752.725 525.065 777.527 523.738 782.605 525.559C783.751 526.576 784.256 527.587 784.344 529.106C784.431 530.608 784.155 532.401 782.991 533.469C781.096 535.208 777.221 534.571 774.813 534.564L273.625 537.323C266.313 537.217 242.977 538.613 237.671 536.437C236.352 535.897 235.087 534.883 234.726 533.44C234.35 531.937 235.013 529.86 236.056 528.719C238.047 526.54 241.226 526.31 243.997 526.387C264.138 526.949 284.36 526.484 304.513 526.401L430 525.692L634.457 525.4Q690.12 525.615 745.781 525.257Z"/>
	<path d="M776.682 289.74C777.933 289.742 779.31 289.675 780.546 289.857C781.821 290.045 782.597 290.812 783.14 291.947C783.985 293.714 783.597 297.235 782.74 298.92C781.622 299.905 780.266 299.888 778.839 299.948C771.959 300.239 765.003 299.99 758.114 300.057Q736.514 300.395 714.911 300.443L610.699 301.014L237.375 304.008C235.331 304.045 233.625 304.027 231.874 302.799C230.724 301.993 230.002 301.039 229.864 299.606C229.747 298.405 230.449 297.255 231.256 296.424C232.563 295.076 234.913 294.497 236.707 294.309C241.228 293.836 246.224 294.264 250.811 294.217L284.693 293.922L398.008 292.95L776.682 289.74Z"/>
	<path d="M701.649 755.243C710.922 755.158 780.644 754.011 783.826 755.732C784.993 756.363 785.854 757.659 786.192 758.936C786.555 760.309 786.472 761.003 785.847 762.251C783.941 764.079 781.832 764.451 779.248 764.606C775.934 764.805 772.566 764.518 769.239 764.559Q754.888 764.817 740.534 764.724L671.394 765.005L435.703 766.508C439.832 772.221 443.525 780.22 444.205 787.267C444.572 791.062 444.923 797.996 442.071 800.86C441.015 801.92 440.242 802.037 438.796 802.142C438.04 801.726 437.611 801.653 437.18 800.855C435.29 797.358 437.314 787.294 435.791 781.726C434.266 776.153 429.815 771.502 426.979 766.57Q395.865 766.343 364.75 766.572L279.539 767.159C266.333 767.269 252.936 767.781 239.745 767.463C238.729 767.438 237.75 767.268 236.89 766.678C235.606 765.797 235.021 764.314 234.966 762.81C234.908 761.249 235.503 759.794 236.667 758.735C237.811 757.696 239.586 757.59 241.059 757.518C246.704 757.241 252.468 757.499 258.127 757.49L295.743 757.39Q352.815 756.659 409.89 756.571L701.649 755.243Z"/>
	<path d="M704.594 769.204C717.801 768.271 734.003 771.596 745.122 779.004C748.005 780.925 751.603 784.122 752.216 787.735C752.789 791.108 752.12 794.91 751.789 798.29C750.315 813.359 747.026 826.548 738.327 839.195C731.465 849.17 723.66 856.104 711.563 858.375C711.563 863.589 710.802 868.91 710.343 874.109Q709.408 884.922 708.847 895.76C711.234 896.252 713.813 896.702 716.089 897.595C718.691 898.614 721.765 900.51 722.767 903.272C723.246 904.591 723.136 905.938 722.485 907.177C720.665 910.64 716.443 911.934 712.999 913.136C705.527 914.812 693.173 916.704 686.379 912.151C684.804 911.095 683.481 909.523 683.152 907.609C682.855 905.873 683.429 904.201 684.429 902.791C688.373 897.231 697.08 894.978 703.452 894.003C704.359 882.317 704.355 870.456 704.706 858.738C699.375 858.302 693.363 856.48 689.15 853.14C679.331 845.355 674.789 825.803 673.66 813.984C673.081 807.917 672.409 783.327 675.876 779.384C682.52 771.829 695.127 769.877 704.594 769.204Z"/>
	<path fill="#FEFEFE" d="M701.912 901.626C704.06 901.754 706.4 902.166 708.512 902.574C710.189 902.897 711.882 903.293 712.855 904.751L712.147 905.627C709.435 906.83 706.541 906.95 703.622 907.254C701.281 907.698 697.398 908.063 695.077 907.64C693.871 907.42 693.355 907.135 692.627 906.175L693.108 905.019C695.695 902.913 698.708 902.212 701.912 901.626Z"/>
	<path fill="#FEFEFE" d="M682.282 806.832C684.77 808.847 685.409 817.49 686.41 820.899C687.656 825.145 689.1 829.469 690.875 833.525C692.405 837.019 694.46 840.578 695.44 844.256C695.079 845.879 694.51 846.262 693.391 847.454C691.725 846 690.594 844.696 689.475 842.781C685.732 836.381 677.771 814.944 680.063 808.199C680.356 807.338 681.488 807.161 682.282 806.832Z"/>
	<path fill="#FEFEFE" d="M680.82 791.275C684.439 793.548 688.147 795.665 692.114 797.276C709.747 804.441 728.535 803.686 745.91 796.347Q745.547 800.405 745.052 804.449C744.863 804.61 744.677 804.776 744.484 804.932C736.977 810.979 716.838 811.563 707.589 810.656C699.419 809.854 688.184 807.729 682.816 800.862C680.293 797.635 680.276 795.199 680.82 791.275Z"/>
	<path fill="#FEFEFE" d="M702.439 776.691C702.798 776.638 703.159 776.592 703.522 776.568C716.848 775.675 734.654 779.119 745.057 787.946C738.897 791.871 731.705 793.471 724.547 794.308C718.959 794.916 713.144 794.613 707.613 793.655C701.593 792.613 687.118 789.028 683.536 783.999C683.453 783.22 683.242 782.916 683.726 782.228C686.465 778.339 698.002 777.227 702.439 776.691Z"/>
	<path d="M689.383 423.707C690.51 423.749 690.483 423.759 691.318 424.522C693.003 429.733 692.438 437.504 690.134 442.502C689.952 442.649 689.441 443.083 689.235 443.148C685.705 444.266 679.573 443.854 675.602 444.374C659.559 446.477 643.267 450.214 627.11 451.003C615.399 451.576 603.303 450.777 591.546 450.693C561.654 450.48 531.687 449.862 501.802 450.217C445.682 450.883 389.678 454.892 333.573 455.905C333.241 455.82 332.816 455.723 332.51 455.583C331.347 455.052 330.953 454.434 330.698 453.201C329.956 449.619 329.425 435.864 331.673 433.126C333.925 430.384 342.816 430.041 346.16 429.853C357.331 429.223 368.714 429.87 379.908 429.982C401.627 430.2 423.376 430.448 445.095 430.305C489.805 430.012 534.38 428.505 579.068 427.341L639.428 425.506C656.066 425.02 672.77 424.738 689.383 423.707Z"/>
	<path d="M685.775 150.712C687.281 150.532 689.088 150.298 690.485 150.996C691.585 151.546 692.164 152.935 692.489 154.047C694.062 159.43 692.625 165.549 689.959 170.287C679.695 172.568 668.869 173.554 658.44 175.056C648.037 176.554 637.214 178.768 626.737 179.232C614.444 179.777 601.601 178.614 589.257 178.351C559.048 177.706 528.686 176.779 498.479 177.013Q445.357 177.479 392.318 180.482C376.257 181.276 360.194 182.541 344.125 183.064C341.568 183.262 338.228 183.886 335.752 183.17C334.527 182.816 333.606 181.963 333.146 180.775C332.288 178.558 332.654 160.746 333.822 158.566C338.386 155.474 393.189 156.621 402.576 156.605C440.598 156.542 478.659 157.023 516.675 156.514C547.066 156.107 577.496 154.777 607.878 153.782C633.813 152.932 659.892 152.534 685.775 150.712Z"/>
	<path d="M680.778 654.223C682.65 654.101 685.855 653.625 687.576 654.294C689.219 654.932 690.501 656.13 691.113 657.807C692.705 662.174 690.607 670.102 688.624 674.122C675.654 674.815 662.779 676.835 649.96 678.861C642.41 680.055 634.694 681.685 627.048 681.929C610.742 682.45 594.156 681.841 577.833 681.701L494.847 681.31Q447.599 681.72 400.397 683.855C381.683 684.646 362.903 685.171 344.213 686.356C341.515 686.513 337 687.335 334.526 686.133C333.356 685.564 332.764 684.505 332.416 683.304C331.443 679.948 332.073 664.336 333.659 661.66C337.922 659.157 347.863 659.182 352.873 659.014C368.327 658.497 384.102 659.739 399.593 659.941C436.66 660.426 473.951 660.9 511.013 660.244C526.875 659.964 542.748 659.098 558.603 658.513L680.778 654.223Z"/>
</svg>
