<svg version="1.1" xmlns="http://www.w3.org/2000/svg" style="display: block;" viewBox="0 0 2048 2048" width="1024" height="1024">
<path transform="translate(0,0)" fill="rgb(254,254,254)" d="M 0 0 L 2048 0 L 2048 2048 L 0 2048 L 0 1111.4 L 0 1098.7 L 0 140.823 L 0 123.92 L 0 0 z"/>
<path transform="translate(0,0)" fill="rgb(43,43,43)" d="M 53.7221 1350.42 C 92.9002 1351.09 130.963 1365.68 155.474 1397.17 C 162.814 1406.6 170.271 1420.32 179.404 1427.79 C 189.098 1435.71 199.439 1437.14 209.844 1442.88 C 212.708 1444.47 214.549 1446.09 215.386 1449.34 C 214.515 1451.54 214.134 1452.35 212.161 1453.84 C 208.744 1456.42 204.443 1455.37 200.512 1454.88 C 156.63 1444.55 149.287 1398.17 109.499 1377.65 C 95.1825 1370.26 77.1117 1365.96 60.9991 1366.12 C 56.0075 1366.17 50.6654 1367.52 45.7254 1366.91 C 43.9331 1366.69 41.4565 1365.91 40.0105 1364.79 C 37.5511 1362.9 37.5435 1362.39 37.3059 1359.51 C 37.9686 1358.01 38.6427 1356.76 39.7545 1355.54 C 44.1746 1350.67 47.6147 1350.73 53.7221 1350.42 z"/>
<path transform="translate(0,0)" fill="rgb(43,43,43)" d="M 0 1098.7 C 22.1937 1096.15 47.5346 1110.22 64.3179 1123.44 C 72.7178 1130.05 80.3228 1137.52 87.5058 1145.42 C 99.9772 1159.15 112.838 1180.46 131.735 1185.01 C 148.704 1180.82 169.481 1176.77 185.725 1185.97 C 189.965 1188.37 191.822 1191.37 193.544 1195.79 C 193.335 1197.23 193.594 1198.16 192.36 1199.12 C 189.246 1201.54 184.184 1200.93 180.565 1200.24 C 173.318 1198.87 163.721 1194.29 156.559 1194.54 C 144.48 1194.96 134.803 1202.47 122.133 1198.45 C 102.325 1192.18 87.4717 1166.73 73.6737 1152.02 C 60.2924 1137.76 44.4174 1124.57 25.9512 1117.53 C 17.5408 1114.32 8.84403 1112.88 0 1111.4 L 0 1098.7 z"/>
<path transform="translate(0,0)" fill="rgb(43,43,43)" d="M 1660.77 358.431 A 399.967 399.967 0 0 1 1704.82 359.14 C 1710.36 359.539 1721.36 360.027 1724.66 365.347 C 1726.06 367.603 1725.49 369.236 1725.09 371.659 C 1719.3 378.406 1697.79 373.397 1689.13 373.169 C 1632.52 371.682 1588.73 383.358 1537.38 406.123 C 1529.54 409.39 1500.37 424.209 1493.81 422.438 C 1490.52 421.547 1488.91 419.005 1487.73 416.065 C 1487.9 414.498 1487.71 413.598 1488.77 412.321 C 1493.75 406.356 1507.84 402.628 1515.16 399.418 C 1564.86 377.624 1605.45 361.49 1660.77 358.431 z"/>
<path transform="translate(0,0)" fill="rgb(43,43,43)" d="M 1933.55 390.418 C 1948.13 389.627 1963.49 391.225 1977.73 394.395 C 1990.29 397.191 2039.68 413.098 2044.66 423.973 C 2045.63 426.094 2046.03 428.17 2044.95 430.369 C 2044.26 431.77 2043.04 432.98 2041.55 433.429 C 2034.77 435.48 2026.15 429.305 2020.43 426.102 C 1981.25 404.162 1938.87 399.893 1895.76 412.051 C 1879.82 417.028 1864.89 424.359 1849.22 430.01 C 1830.46 436.773 1807.02 438.32 1788.74 429.188 C 1785.28 427.46 1782.1 425.619 1781.35 421.41 C 1780.86 418.642 1781.68 417.408 1782.96 415.138 C 1789.89 410.608 1801.5 418.225 1809.07 419.788 C 1814.7 420.951 1820.67 421.273 1826.41 420.991 C 1863.34 419.177 1889.1 392.27 1933.55 390.418 z"/>
<path transform="translate(0,0)" fill="rgb(43,43,43)" d="M 822.416 1651.75 C 825.455 1651.86 826.972 1652.41 829.03 1654.77 C 835.431 1662.09 839.254 1676.61 842.78 1685.63 A 1185.67 1185.67 0 0 1 905.169 1899.66 C 907.472 1911.71 911.8 1926.22 910.743 1938.44 C 909.596 1941.16 907.698 1941.96 905.257 1943.33 C 902.047 1942.98 900.056 1942.82 897.437 1940.7 C 893.494 1934.44 886.238 1884.29 883.793 1872.82 A 1232.92 1232.92 0 0 0 841.001 1724.41 A 644.695 644.695 0 0 0 825.467 1685.21 C 822.721 1678.87 818.949 1672.39 816.909 1665.82 C 816.103 1663.23 815.656 1660.28 816.371 1657.61 C 817.186 1654.57 819.919 1653.24 822.416 1651.75 z"/>
<path transform="translate(0,0)" fill="rgb(43,43,43)" d="M 1772.6 504.444 A 547.328 547.328 0 0 1 1786 504.08 C 1845.59 503.383 1902.06 520.246 1945.05 562.914 C 1950.55 568.368 1959.11 576.062 1959.16 584.31 C 1958.11 586.539 1957.54 587.753 1955.08 588.813 C 1952.6 589.881 1949.16 589.243 1946.99 587.788 C 1940.25 583.278 1934.52 574.69 1928.58 568.969 C 1916.37 557.209 1902.29 547.897 1887.54 539.698 C 1834.46 513.999 1761.4 516.468 1703.9 525.688 C 1694.39 527.214 1676.91 534.734 1667.91 531.873 C 1664.97 530.939 1663.57 529.667 1662.06 527.048 C 1661.99 524.554 1662.68 522.754 1664.3 520.867 C 1674.49 509.038 1753.86 505.115 1772.6 504.444 z"/>
<path transform="translate(0,0)" fill="rgb(43,43,43)" d="M 446.895 1458.75 C 449.651 1458.98 451.016 1458.8 453.321 1460.4 C 463.052 1480.64 470.48 1502.78 478.333 1523.83 C 515.63 1623.83 541.207 1727.54 560.58 1832.34 C 564.169 1851.76 572.064 1888.39 571.15 1907.12 C 570.936 1911.5 568.896 1912.83 565.783 1915.55 C 563.387 1914.72 561.214 1913.91 559.225 1912.29 C 556.356 1909.96 555.979 1906.39 555.313 1902.96 C 551.376 1882.71 549.641 1861.85 546.363 1841.44 C 539.784 1800.47 531.57 1759.2 521.543 1718.93 C 510.559 1674.82 499.005 1629.85 484.649 1586.73 C 479.314 1570.71 440.547 1468.99 440.772 1465.83 C 441.014 1462.43 444.392 1460.47 446.895 1458.75 z"/>
<path transform="translate(0,0)" fill="rgb(43,43,43)" d="M 349.182 172.919 C 352.696 172.918 355.215 173.046 357.74 175.792 C 368.509 187.502 377.814 209.75 384.955 224.104 C 449.586 354.016 495.495 493.698 543.222 630.476 C 547.719 643.364 569.901 697.806 568.566 706.656 C 568.11 709.677 564.659 712.022 562.472 713.908 C 561.285 713.904 561.522 713.931 560.326 713.822 C 556.887 713.508 554.6 713.278 552.354 710.336 C 543.857 699.204 530.541 652.59 524.724 636.122 L 479.734 510.089 C 454.5 439.253 428.057 365.763 396.978 297.321 C 384.684 270.247 372.391 243.02 359.511 216.231 C 355.111 207.08 348.778 198.684 344.961 189.293 C 343.698 186.186 342.483 182.481 343.272 179.101 C 344.002 175.977 346.691 174.525 349.182 172.919 z"/>
<path transform="translate(0,0)" fill="rgb(43,43,43)" d="M 0 123.92 C 2.94487 122.314 6.29075 120.407 9.71709 121.941 C 16.9942 125.198 40.4012 181.155 44.7651 190.584 A 6794.84 6794.84 0 0 1 248.703 677.486 L 277.987 759.256 C 284.645 777.58 293.05 796.809 297.316 815.8 C 298.229 819.865 299.129 825.857 296.138 829.337 C 294.144 831.657 291.049 831.827 288.226 831.669 C 285.252 831.503 283.935 830.808 282.118 828.499 C 276.102 820.853 262.755 775.274 258.39 762.912 C 240.831 713.185 223.598 662.899 204.252 613.85 A 7817.67 7817.67 0 0 0 73.1234 301.307 C 55.5527 261.444 37.5827 222.143 19.0281 182.745 C 12.5224 168.931 7.02123 154.345 0 140.823 L 0 123.92 z"/>
<path transform="translate(0,0)" fill="rgb(43,43,43)" d="M 922.887 106.976 C 925.474 106.676 927.449 106.681 930.065 107.063 C 936.923 111.239 937.89 123.878 939.23 131.096 C 957.749 230.813 976.758 331.242 1002.05 429.488 A 3036.82 3036.82 0 0 0 1033.49 543.172 C 1040.03 564.709 1047.89 585.752 1053.86 607.476 L 1056.77 604.391 C 1070.35 590.144 1108.4 555.797 1128.94 556.033 C 1132.08 556.069 1135.24 557.117 1137.35 559.526 C 1148.2 571.878 1143.64 675.566 1143.37 698.942 C 1154.49 667.512 1179 589.33 1197.44 565.373 C 1200.45 561.466 1205.16 557.784 1210.22 557.302 C 1215.16 556.831 1219.4 559.689 1223.02 562.707 C 1268.42 600.539 1283.15 643.996 1288.4 701.635 C 1360.85 723.631 1427.29 744.441 1497.79 772.85 C 1526.82 784.548 1555.3 796.132 1582.87 811.047 C 1594.45 806.903 1605.92 803.082 1617.83 800.037 C 1649.12 792.043 1703.89 784.343 1732.92 802.661 C 1737.3 805.426 1741.25 809.635 1742.17 814.901 C 1744.78 830.029 1716.46 866.708 1706.71 879.615 A 1040.64 1040.64 0 0 1 1762.25 916.995 C 1774.16 925.746 1785.34 935.448 1797.55 943.803 C 1812.96 940.586 1834.21 929.525 1849.83 934.597 A 15.5939 15.5939 0 0 1 1859.44 943.23 C 1866.66 959.697 1853.93 989.015 1848.09 1004.97 C 1854.63 1014.53 1863.82 1023.35 1871.32 1032.27 C 1896 1061.62 1918.24 1093.27 1930.24 1130.08 A 223.131 223.131 0 0 1 1916.75 1302.99 C 1888.28 1358.42 1840.58 1404.18 1788.24 1437.17 C 1762.38 1453.47 1735.06 1467.34 1708.58 1482.6 C 1638.73 1522.85 1568.28 1559.9 1492.85 1588.77 C 1467.01 1598.67 1440.49 1606.85 1414.15 1615.29 C 1419.95 1636.26 1430.61 1656.68 1438.29 1677.12 C 1459.11 1732.54 1479.4 1788.36 1495.31 1845.43 C 1500.9 1865.49 1507.2 1886.81 1510.01 1907.42 C 1510.66 1912.21 1510.99 1916.68 1507.96 1920.73 C 1505.49 1922.16 1504.41 1922.33 1501.57 1922.08 C 1498.4 1920.43 1496.98 1918.48 1495.63 1915.22 C 1492.97 1908.77 1492.32 1901.12 1490.86 1894.31 A 664.05 664.05 0 0 0 1483.33 1863 A 1663.49 1663.49 0 0 0 1427.45 1694.13 C 1418.1 1669.5 1409.2 1644.29 1398.13 1620.39 C 1311.43 1642.53 1241.51 1653.24 1152.15 1659.14 C 1162.3 1691.03 1221.19 1879.79 1215.34 1902.18 C 1214.77 1904.38 1213.94 1906.22 1211.96 1907.46 C 1210.34 1907.58 1209.68 1907.85 1208.14 1907.09 C 1203.29 1904.72 1200.9 1899.22 1199.38 1894.32 C 1196.87 1886.27 1195.85 1877.51 1194.07 1869.25 A 1608.97 1608.97 0 0 0 1182.69 1821.02 C 1174.1 1787.12 1163.92 1753.55 1154 1720.02 C 1148.08 1700.03 1142.71 1679.9 1136.27 1660.06 C 1046.59 1661.6 957.514 1656.55 869.932 1635.93 C 814.058 1624.06 752.779 1604.86 701.091 1580.64 C 653.061 1558.13 606.043 1535.17 561.441 1506.27 A 462.873 462.873 0 0 1 529.65 1483.39 C 522.768 1478.02 516.009 1471.93 508.544 1467.42 C 498.533 1461.37 487.269 1456.92 476.781 1451.71 C 464.879 1445.8 453.276 1439.1 441.718 1432.54 C 363.495 1388.12 281.704 1324.77 250.346 1237.14 C 234.731 1193.51 232.849 1147.25 248.678 1103.33 C 252.408 1092.98 257.459 1083 262.136 1073.05 A 338.282 338.282 0 0 1 240.888 1066.88 C 229.226 1063.1 197.823 1050.85 192.951 1038.75 C 191.915 1036.18 191.805 1034.44 192.98 1031.91 C 194.022 1029.66 196.412 1028.61 198.706 1028 C 211.255 1024.64 225.595 1024.04 238.502 1022.18 C 266.074 1018.23 293.267 1013.28 319.751 1004.5 C 293.879 1001.66 268.025 1002.14 242.038 1001.98 C 228.596 1001.9 214.055 1002.34 200.748 1000.22 C 195.495 999.387 190.392 998.225 186.249 994.697 C 184.057 992.83 182.185 990.429 182.368 987.374 C 182.678 982.189 188.191 977.874 191.973 974.988 C 240.447 938.005 308.642 932.537 367.028 940.739 C 385.918 919.965 394.497 924.012 413.889 910.891 C 428.14 901.249 440.983 889.141 455.22 879.214 C 422.429 856.56 395.157 828.744 374.237 794.786 C 368.898 786.119 359.72 773.232 362.798 762.484 C 363.559 759.827 365.204 757.722 367.764 756.569 C 371 755.112 375.112 755.402 378.282 756.813 C 394.821 764.179 410.812 775.89 426.47 785.026 C 446.389 796.648 467.225 806.366 488.193 815.916 C 463.856 784.225 429.791 756.215 395.989 735.393 C 391.036 732.342 383.029 728.429 382.238 721.965 C 381.926 719.41 382.881 717.333 384.627 715.53 C 387.421 712.646 393.177 711.992 396.938 711.877 C 407.235 711.563 418.318 713.738 428.315 715.987 C 481.535 727.958 524.89 760.829 564.245 796.989 C 609.834 768.354 660.959 742.653 711.855 725.032 L 712.017 723.994 C 718.101 686.37 731.718 668.092 761.861 646.243 C 751.867 619.655 745.271 591.301 737.821 563.907 C 725.568 518.85 713.44 473.575 700.332 428.766 A 2326.88 2326.88 0 0 0 632.197 226.761 C 621.179 198.368 608.791 170.667 597.341 142.49 C 595.816 138.738 593.323 133.208 594.616 129.205 C 595.359 126.906 597.343 124.496 599.558 123.46 C 601.379 122.608 603.806 122.047 605.684 123.124 C 612.764 127.189 623.824 155.446 627.304 163.194 C 674.31 267.856 707.676 378.782 738.563 489.061 C 752.454 538.655 764.981 588.463 780.164 637.721 C 798.25 633.852 815.96 628.447 834.191 625.143 C 883.027 616.291 933.083 621.094 978.566 641.415 C 990.926 646.938 1002.72 653.967 1014.59 660.468 C 1022.49 646.542 1031.66 634.158 1041.38 621.49 C 1030.38 595.031 1023 566.476 1014.81 539.031 C 988.634 451.414 968.676 362.707 950.082 273.225 A 6511.43 6511.43 0 0 1 929.697 171.615 C 926.354 155.027 922.033 138.415 919.458 121.695 C 918.44 115.086 918.939 112.399 922.887 106.976 z"/>
<path transform="translate(0,0)" fill="rgb(254,254,254)" d="M 1417.38 840.372 C 1420.22 842.126 1421.7 842.537 1423.13 845.621 C 1422.09 850.039 1416.82 854.291 1413.8 857.674 C 1412.79 859.326 1412.28 861.12 1410.38 861.68 C 1410.32 861.313 1410.22 860.951 1410.19 860.581 C 1409.7 854.094 1413.48 845.43 1417.38 840.372 z"/>
<path transform="translate(0,0)" fill="rgb(254,254,254)" d="M 1392.62 1028.68 C 1393.71 1032.85 1394.38 1054.87 1392.67 1058.31 L 1390.44 1058.5 C 1388.91 1056.87 1387.2 1055.17 1386.52 1052.97 C 1384.07 1045.1 1389.51 1035.64 1392.62 1028.68 z"/>
<path transform="translate(0,0)" fill="rgb(254,254,254)" d="M 1449.47 1218.86 C 1452.73 1218.9 1455.43 1218.81 1458.2 1220.76 C 1459.44 1223.1 1459.36 1222.94 1458.63 1225.49 C 1456.16 1227.98 1454.7 1228.8 1451.39 1229.94 C 1448.6 1229.56 1444.97 1229.47 1442.54 1227.98 C 1440.97 1227.02 1441.54 1227.55 1441.06 1225.41 C 1443.18 1222.24 1446.25 1220.77 1449.47 1218.86 z"/>
<path transform="translate(0,0)" fill="rgb(254,254,254)" d="M 1416.17 1193.23 C 1416.35 1193.24 1416.53 1193.24 1416.71 1193.25 C 1419.95 1193.29 1422.89 1193.15 1425.73 1194.93 C 1428.43 1196.62 1429.91 1198.24 1430.75 1201.4 C 1430.07 1204.95 1429.94 1205.15 1427.33 1207.66 C 1422.21 1207.18 1418.14 1205.98 1414.2 1202.46 C 1412.29 1200.74 1411.72 1199.42 1411.45 1196.94 C 1413.01 1194.65 1413.64 1194.44 1416.17 1193.23 z"/>
<path transform="translate(0,0)" fill="rgb(254,254,254)" d="M 1405.11 944.002 C 1415.44 943.388 1426.27 943.85 1436.55 944.89 L 1430.28 950.796 L 1422.12 958.164 C 1416.73 953.137 1410.85 948.62 1405.11 944.002 z"/>
<path transform="translate(0,0)" fill="rgb(254,254,254)" d="M 1387.22 1156.41 C 1388.97 1156.69 1391.39 1156.87 1392.82 1158.07 C 1397.75 1162.23 1402.44 1175 1407.37 1180.91 C 1408.66 1182.46 1408.15 1181.36 1408.46 1183.89 C 1406.63 1184.3 1404.84 1184.55 1402.98 1184.82 C 1399.52 1183.74 1396.88 1181.77 1394.46 1179.06 C 1388.87 1172.82 1386.81 1164.56 1387.22 1156.41 z"/>
<path transform="translate(0,0)" fill="rgb(254,254,254)" d="M 1485.38 1220.79 C 1487.32 1220.5 1489.4 1220.95 1491.12 1221.87 C 1492.46 1222.59 1492.23 1223.08 1492.61 1224.44 C 1492.21 1226.74 1491.88 1228.59 1490.58 1230.57 C 1486.53 1236.73 1482.49 1238.19 1475.45 1239.46 C 1474.96 1239.39 1474.46 1239.33 1473.96 1239.24 C 1470.88 1238.72 1468.86 1238.38 1467.02 1235.77 C 1467.09 1235.43 1467.11 1235.08 1467.23 1234.75 C 1468.97 1229.66 1480.66 1223.8 1485.38 1220.79 z"/>
<path transform="translate(0,0)" fill="rgb(254,254,254)" d="M 395.628 1051.84 C 407.128 1051.98 418.543 1057.02 429.231 1060.86 L 419.822 1062.65 C 412.4 1063.63 394.888 1066.93 388.582 1062.44 C 387.293 1061.53 387.652 1060.89 387.532 1059.46 C 389.359 1055.94 392.487 1054.09 395.628 1051.84 z"/>
<path transform="translate(0,0)" fill="rgb(254,254,254)" d="M 1379.21 1067.39 C 1381.21 1068.47 1382.85 1069.36 1383.94 1071.5 C 1386.43 1076.4 1393.08 1096.88 1392.45 1101.39 C 1392.27 1102.72 1391.53 1103.9 1391.07 1105.15 C 1389.4 1105.18 1387.63 1105.33 1386.05 1104.66 C 1383.09 1103.41 1380.53 1100.18 1379.22 1097.33 C 1375.27 1088.71 1376.09 1076.21 1379.21 1067.39 z"/>
<path transform="translate(0,0)" fill="rgb(254,254,254)" d="M 1377.55 1114.32 C 1382.27 1114.97 1384.51 1117.79 1387.55 1121.08 C 1393.58 1127.61 1402.49 1137.09 1402.16 1146.43 C 1395.89 1146.17 1390.72 1143.95 1386.18 1139.55 C 1379.25 1132.83 1377.48 1123.61 1377.55 1114.32 z"/>
<path transform="translate(0,0)" fill="rgb(254,254,254)" d="M 848.088 633.413 C 856.459 632.884 864.27 631.731 872.234 634.927 L 873.07 637.208 C 872.843 637.448 872.645 637.719 872.389 637.927 C 866.321 642.854 854.254 641.973 846.752 642.153 C 840.409 642.779 829.624 644.731 824.325 640.423 L 825.423 638.692 C 832.973 634.769 839.757 634.175 848.088 633.413 z"/>
<path transform="translate(0,0)" fill="rgb(254,254,254)" d="M 574.899 1344.84 C 580.153 1345.57 583.826 1346.95 587.542 1350.93 C 590.116 1353.68 591.767 1357.16 591.377 1361 C 590.941 1365.3 588.527 1367.29 585.324 1369.69 C 581.167 1368.29 577.357 1366.91 573.979 1364.01 C 571.147 1361.59 568.816 1358.47 568.857 1354.57 C 568.906 1349.93 571.677 1347.62 574.899 1344.84 z"/>
<path transform="translate(0,0)" fill="rgb(254,254,254)" d="M 397.955 1163.85 C 399.348 1163.9 400.702 1164 402.067 1164.31 C 407.073 1165.44 411.115 1169.14 413.562 1173.58 C 415.391 1176.9 416.011 1180.51 414.693 1184.12 C 413.432 1187.59 411.272 1188.7 408.19 1190.18 C 402.641 1188.49 398.258 1185.16 394.727 1180.54 C 392.469 1177.58 390.964 1173.78 391.89 1170.03 C 392.632 1167.02 395.56 1165.45 397.955 1163.85 z"/>
<path transform="translate(0,0)" fill="rgb(254,254,254)" d="M 603.909 1295.11 C 606.32 1294.74 609.085 1294.46 611.513 1294.84 C 614.99 1295.38 619.546 1297.62 621.47 1300.7 C 622.916 1303.01 623.526 1305.48 622.85 1308.18 C 621.806 1312.36 618.547 1314.53 615.243 1316.83 C 613.35 1317.24 610.933 1317.86 608.985 1317.67 C 605.774 1317.36 602.421 1315.55 600.241 1313.18 C 598.147 1310.91 597.105 1307.56 597.418 1304.49 C 597.881 1299.95 600.589 1297.76 603.909 1295.11 z"/>
<path transform="translate(0,0)" fill="rgb(254,254,254)" d="M 1254.35 1050.73 C 1272.11 1059.17 1269.46 1079.02 1278.82 1091.12 C 1282.58 1095.99 1300.43 1094.61 1307.37 1095.69 C 1303.51 1098.66 1299.86 1101.84 1296.18 1105.02 C 1291.89 1109.62 1287.42 1114.02 1282.92 1118.41 C 1274.82 1089.68 1272.47 1075.6 1254.35 1050.73 z"/>
<path transform="translate(0,0)" fill="rgb(254,254,254)" d="M 710.7 1194.33 C 712.858 1194.89 714.8 1195.9 716.67 1197.1 C 723.416 1201.43 729.468 1210.98 730.909 1218.83 C 731.613 1222.66 730.253 1224.98 728.266 1228.03 C 726.126 1228.64 723.706 1229.29 721.468 1229.01 C 717.807 1228.55 714.425 1226.16 712.434 1223.12 C 706.837 1214.55 708.65 1203.66 710.7 1194.33 z"/>
<path transform="translate(0,0)" fill="rgb(254,254,254)" d="M 347.603 1083.17 C 350.901 1083.59 352.506 1083.64 354.852 1086.06 C 357.594 1094.53 356.484 1103.85 359.143 1112.25 C 362.176 1121.83 373.968 1133 373.081 1142.59 C 373.052 1142.9 373.005 1143.21 372.967 1143.53 L 374.115 1144.76 C 376.55 1145.32 379.676 1145.77 381.569 1147.51 C 384.346 1150.06 384.569 1153.13 384.428 1156.58 C 380.744 1157.32 378.65 1157.35 375.465 1155.39 C 371.332 1145.84 362.91 1139.26 357.266 1130.56 C 348.009 1116.29 343.974 1099.92 347.603 1083.17 z"/>
<path transform="translate(0,0)" fill="rgb(254,254,254)" d="M 1314.9 1106.91 C 1321.68 1109.19 1328.96 1108.51 1336.01 1108.38 L 1336.38 1109.45 C 1327.29 1121.38 1311.59 1130.37 1299.31 1138.87 C 1294.96 1142.12 1290.32 1144.87 1285.68 1147.68 L 1284.13 1133.61 C 1295.54 1126.09 1305.04 1116.28 1314.9 1106.91 z"/>
<path transform="translate(0,0)" fill="rgb(254,254,254)" d="M 1358.67 807.695 C 1363.39 827.49 1346 853.113 1338.15 870.762 C 1334.38 879.242 1331.54 888.206 1327.48 896.542 C 1325.88 899.824 1324.77 901.016 1321.31 902.124 C 1320.19 899.031 1319.2 895.742 1319.4 892.422 C 1320.88 868.533 1347.75 832.311 1358.05 809.099 L 1358.67 807.695 z"/>
<path transform="translate(0,0)" fill="rgb(254,254,254)" d="M 1633.31 1406.38 L 1634.06 1406.45 C 1629.91 1412.74 1576.52 1431.93 1565.11 1435.53 L 1561.17 1430.03 C 1557.64 1424.84 1553.4 1420.13 1549.33 1415.35 C 1564.91 1413.75 1580.62 1413.71 1596.23 1412.3 C 1608.71 1411.17 1621.01 1408.71 1633.31 1406.38 z"/>
<path transform="translate(0,0)" fill="rgb(254,254,254)" d="M 468.763 887.974 C 480.326 895.184 492.287 901.669 504.223 908.233 C 499.064 910.685 494.987 913.205 491.179 917.537 C 484.211 915.836 477.34 914.4 470.243 913.35 C 457.919 911.728 445.996 912.288 433.739 914.155 A 438.729 438.729 0 0 0 468.763 887.974 z"/>
<path transform="translate(0,0)" fill="rgb(254,254,254)" d="M 1514.03 854.316 L 1514.7 855.387 C 1511.55 859.889 1507.35 863.794 1503.88 868.087 A 231.321 231.321 0 0 0 1482.21 899.34 C 1482.11 893.521 1482.38 889.482 1479.22 884.419 C 1473.43 878.8 1466.98 875.166 1459.84 871.548 C 1464.93 866.219 1469.94 861.881 1476.3 858.158 C 1489.08 857.736 1501.54 857.239 1514.03 854.316 z"/>
<path transform="translate(0,0)" fill="rgb(254,254,254)" d="M 1436.86 1435.95 L 1437.28 1436.39 C 1437.95 1443.65 1425.01 1468.71 1421.71 1476.48 C 1399.1 1481.89 1375.74 1485.64 1352.82 1489.57 L 1352.5 1489.32 C 1353.28 1487.17 1368.67 1481.61 1371.96 1480.17 C 1396.41 1469.5 1419.44 1456.57 1436.86 1435.95 z"/>
<path transform="translate(0,0)" fill="rgb(254,254,254)" d="M 803.536 834.841 C 805.57 834.825 809.078 834.473 810.757 835.796 C 817.298 840.95 822.569 853.768 827.305 860.88 C 831.48 867.15 836.14 873.275 840.98 879.054 C 846.92 886.144 854.709 892.711 861.997 898.408 C 866.251 901.732 879.084 909.188 881.555 912.891 C 883.077 915.17 881.803 916.833 881.065 919.219 A 105.188 105.188 0 0 1 873.331 915.966 C 849.647 904.705 810.815 870.629 802.611 845.1 C 801.253 840.874 801.409 838.738 803.536 834.841 z"/>
<path transform="translate(0,0)" fill="rgb(254,254,254)" d="M 1733.08 1252.64 C 1741.86 1254.18 1749.46 1259.01 1755.07 1265.88 C 1771.61 1286.15 1771.49 1311.96 1768.61 1336.45 C 1764.71 1339.88 1760.33 1342.75 1756.09 1345.74 L 1744.01 1353.62 C 1752.65 1337.14 1756.46 1320.73 1755.12 1302.11 C 1753.81 1283.9 1747.21 1264.8 1733.08 1252.64 z"/>
<path transform="translate(0,0)" fill="rgb(254,254,254)" d="M 985.03 783.16 C 987.432 783.016 989.805 782.906 992.207 783.127 C 998.664 783.72 1006.81 787.812 1010.85 792.913 C 1012.52 795.025 1013.22 797.315 1012.74 800.016 C 1012.37 802.087 1011.4 803.402 1009.69 804.525 C 1003.95 804.143 998.166 799.468 992.438 797.878 C 984.205 798.894 977.901 807.319 971.037 811.723 C 964.909 812.083 958.903 811.519 952.799 811.019 C 944.015 811.084 938.006 816.798 929.398 817.195 C 926.904 816.07 927.005 816.184 925.944 813.665 C 926.179 809.56 926.849 806.556 929.975 803.651 C 939.67 794.642 958.996 797.207 971.338 797.517 C 975.213 791.045 978.268 786.972 985.03 783.16 z"/>
<path transform="translate(0,0)" fill="rgb(254,254,254)" d="M 801.617 643.121 C 804.406 643.42 804.568 643.266 806.52 645.227 C 805.185 650.508 777.211 660.928 770.964 664.736 C 763.609 669.219 756.784 674.63 751.197 681.217 C 727.426 709.246 727.232 746.897 734.365 781.079 C 736.914 793.294 741.387 806.157 742.31 818.55 C 742.336 818.901 742.351 819.253 742.372 819.605 C 735.447 815.12 731.332 791.401 729.206 783.034 C 721.329 752.015 719.864 715.266 737.06 686.983 C 750.901 664.219 776.213 649.245 801.617 643.121 z"/>
<path transform="translate(0,0)" fill="rgb(254,254,254)" d="M 1106.58 775.862 C 1114.51 776.021 1121.93 777.573 1128.85 781.566 C 1143.58 790.063 1150.75 805.982 1154.56 821.811 C 1155.54 825.902 1158 833.924 1155.78 837.551 L 1153.42 837.464 C 1147.59 836.817 1142.16 837.42 1136.39 838.186 L 1135.45 837.195 C 1135.43 800.982 1106.56 799.598 1102.97 782.049 C 1103.69 778.856 1104.45 778.236 1106.58 775.862 z"/>
<path transform="translate(0,0)" fill="rgb(254,254,254)" d="M 1122.35 575.762 C 1123.17 576.378 1123.66 576.655 1124.25 577.616 C 1132.72 591.431 1128.97 741.023 1125.21 763.657 C 1122.74 763.541 1121.14 763.389 1118.92 762.29 C 1116.38 753.519 1120.53 657.641 1120.83 638.611 C 1121.11 621.319 1120.28 603.962 1120.84 586.685 C 1120.96 582.876 1121.29 579.447 1122.35 575.762 z"/>
<path transform="translate(0,0)" fill="rgb(254,254,254)" d="M 892.738 634.427 A 124.988 124.988 0 0 1 897.596 634.751 C 956.643 639.481 1011.23 669.474 1049.27 714.524 C 1056.51 723.097 1075.69 744.563 1074.72 755.617 C 1072.57 755.156 1071.19 754.823 1069.54 753.25 C 1063.24 747.233 1057.91 739.471 1052.44 732.683 C 1037.68 714.341 1018.6 689.385 998.913 676.526 C 967.882 656.262 928.411 647.784 892.656 640.566 C 891.497 637.942 892.082 637.153 892.738 634.427 z"/>
<path transform="translate(0,0)" fill="rgb(254,254,254)" d="M 1841.85 949.334 C 1843.66 949.101 1842.72 949.03 1844.67 949.718 C 1835.94 960.911 1659.86 1004.89 1633.24 1010.15 L 1630.75 1009.58 C 1630.8 1006.46 1632.59 1004.49 1634.16 1001.85 A 7081.94 7081.94 0 0 0 1763.12 968.229 C 1789.11 961.345 1815.29 953.639 1841.85 949.334 z"/>
<path transform="translate(0,0)" fill="rgb(254,254,254)" d="M 1210.92 574.453 C 1213.44 575.645 1214.33 576.798 1215.4 579.182 C 1215.16 582.867 1198.38 620.648 1195.27 628.831 A 4923.76 4923.76 0 0 0 1163.21 716.049 C 1157.2 733.257 1152.34 751.865 1144.61 768.347 C 1143.88 768.465 1142.95 768.043 1142.23 767.84 C 1141.16 766.435 1140.64 765.266 1140.43 763.525 C 1138.44 746.904 1196.96 592.385 1210.92 574.453 z"/>
<path transform="translate(0,0)" fill="rgb(254,254,254)" d="M 525.964 1045.71 C 531.415 1049.02 536.33 1053.84 541.633 1057.52 C 560.316 1070.51 577.486 1068.07 598.602 1064.26 C 598.637 1072.63 604.206 1094.87 602.045 1100.48 L 599.726 1100.12 C 580.954 1092.36 540.898 1080.19 526.05 1068.64 C 522.036 1065.52 518.831 1060.8 515.718 1056.79 C 519.465 1053.26 522.841 1049.84 525.964 1045.71 z"/>
<path transform="translate(0,0)" fill="rgb(254,254,254)" d="M 452.881 1069.98 C 462.981 1069.38 472.845 1070.77 482.616 1073.3 C 515.739 1081.86 615.292 1121.69 640.315 1143.07 C 640.993 1145.82 639.888 1147.09 638.835 1149.63 C 627.321 1147.79 593.688 1128.27 581.071 1122.32 C 551.874 1108.54 520.274 1096.69 489.579 1086.62 C 480.758 1083.73 457.649 1078.46 452.394 1072.84 L 452.881 1069.98 z"/>
<path transform="translate(0,0)" fill="rgb(254,254,254)" d="M 1721.41 814.459 C 1722.11 814.626 1722.91 814.775 1723.54 815.132 C 1725.79 816.407 1726.01 817.121 1726.58 819.441 C 1723.75 832.558 1658.81 923.823 1646.03 943.192 C 1636.13 958.192 1627.33 974.03 1616.99 988.71 C 1614.94 991.62 1612.63 994.079 1609.96 996.443 C 1609.34 996.178 1608.68 996.012 1608.12 995.648 C 1606.83 994.811 1605.57 993.378 1605.25 991.869 C 1602.06 976.808 1670.45 892.32 1682.46 874.825 C 1696 855.09 1707.86 834.227 1721.41 814.459 z"/>
<path transform="translate(0,0)" fill="rgb(254,254,254)" d="M 1718.24 1253.71 C 1727 1259.07 1734.47 1279.38 1737.24 1289.25 C 1744.91 1316.47 1736.21 1338.93 1723.08 1362.56 C 1715.66 1367.37 1708 1371.76 1700.37 1376.22 A 687.416 687.416 0 0 1 1683.19 1383.65 C 1703.51 1361.16 1714.29 1333.54 1715.52 1303.18 C 1716.17 1287.03 1715.39 1270.97 1718.03 1254.94 L 1718.24 1253.71 z"/>
<path transform="translate(0,0)" fill="rgb(254,254,254)" d="M 605.771 843.689 C 622.709 859.528 642.451 873.404 661.018 887.287 C 646.162 887.713 629.28 886.651 617.207 896.748 C 614.824 900.195 614.148 900.987 610.044 901.887 C 606.268 900.94 603.728 899.189 600.548 896.993 L 564.537 896.601 C 575.676 877.304 591.04 860.282 605.771 843.689 z"/>
<path transform="translate(0,0)" fill="rgb(254,254,254)" d="M 1495.58 1314.75 C 1495.88 1318.55 1494.92 1322.71 1494.37 1326.49 C 1492.08 1342.47 1487.84 1352.77 1479.51 1366.5 C 1471.44 1379.79 1467.92 1392.32 1471.87 1407.85 C 1476.52 1426.12 1490.2 1445.58 1506.48 1455.19 A 1080.41 1080.41 0 0 1 1468.17 1465.64 C 1457.75 1468.36 1447.4 1470.92 1436.82 1472.99 C 1442.62 1461.57 1448.02 1450.14 1452.12 1437.99 C 1465.84 1397.42 1472.25 1351.52 1495.58 1314.75 z"/>
<path transform="translate(0,0)" fill="rgb(254,254,254)" d="M 1368.75 990.152 C 1369.6 990.095 1370.46 990.031 1371.31 990.016 C 1381.82 989.826 1388.96 997.482 1396.08 1004.18 C 1372.81 1027.85 1375.27 1036.1 1365.75 1064.65 C 1358.93 1058.05 1352 1051.49 1343.96 1046.38 C 1323.81 1033.57 1305.94 1036.05 1284.01 1040.78 C 1274.44 1042.66 1267.87 1040.38 1259.18 1036.63 C 1276.31 1031.67 1290.48 1018.34 1304.25 1007.54 C 1322.73 1012.49 1338.64 1022.99 1358.45 1022.89 C 1364.92 1022.85 1375.68 1022.77 1380.02 1017.38 C 1382.07 1014.84 1382.34 1011.39 1381.98 1008.27 C 1380.88 998.95 1373.94 997.081 1367.6 992.162 L 1368.75 990.152 z"/>
<path transform="translate(0,0)" fill="rgb(254,254,254)" d="M 1225.52 847.879 C 1226.99 849.787 1224.91 859.852 1224.69 862.768 C 1223.26 881.951 1226.5 900.427 1226.25 919.465 C 1226.05 934.71 1222.14 949.477 1225.6 964.577 C 1221.3 977.323 1214 989.609 1207.21 1001.2 C 1205.03 1004.92 1202.94 1009.18 1198.56 1010.32 L 1196.95 1008.67 C 1195.71 1004.7 1197.44 1000.99 1198.61 997.154 C 1206.86 975.254 1213.59 947.419 1209.32 923.995 C 1206.57 908.943 1199.17 898.871 1186.83 890.233 C 1187.94 884.383 1188.37 879.385 1188 873.467 C 1202.04 866.983 1213.4 857.338 1225.52 847.879 z"/>
<path transform="translate(0,0)" fill="rgb(254,254,254)" d="M 1218.52 1389.77 C 1220.69 1391.98 1219.85 1398.55 1219.84 1401.53 C 1219.73 1436.37 1221.16 1469.23 1231.18 1502.87 L 1171.25 1504.56 L 1159.19 1504.73 C 1161.66 1501.4 1164.41 1498.24 1166.97 1494.97 C 1185.66 1471.16 1197.44 1447.16 1193.74 1416.38 C 1203.04 1408.29 1210.82 1399.36 1218.52 1389.77 z"/>
<path transform="translate(0,0)" fill="rgb(254,254,254)" d="M 848.039 1206.35 C 861.437 1208.74 878.585 1219.2 891.629 1224.81 A 2369.33 2369.33 0 0 0 972.421 1257.87 C 964.133 1266.41 954.567 1274.07 945.075 1281.22 C 927.65 1293.26 908.006 1299.61 887.897 1305.48 C 890.113 1291.16 890.006 1275.63 883.878 1262.24 C 877.22 1247.7 863.756 1236.6 848.954 1231.06 C 847.898 1222.9 847.827 1214.55 848.039 1206.35 z"/>
<path transform="translate(0,0)" fill="rgb(254,254,254)" d="M 1697.95 892.56 C 1719.9 904.266 1760.81 931.611 1778.58 948.533 C 1753.76 955.403 1728.42 961.74 1703.39 967.849 C 1681.84 972.203 1661.02 979.28 1639.55 983.885 C 1644.69 972.167 1652.51 961.091 1659.44 950.368 A 4178.81 4178.81 0 0 1 1697.95 892.56 z"/>
<path transform="translate(0,0)" fill="rgb(254,254,254)" d="M 725.292 818.89 C 726.82 818.755 726.21 818.718 727.731 818.947 C 729.923 819.279 734.537 830.272 735.824 832.871 C 746.138 853.69 756.334 874.723 770.084 893.546 C 762.651 894.29 758.174 897.086 752.142 901.145 C 734.871 896.565 716.899 894.023 699.237 891.425 C 693.004 889.858 685.756 889.637 679.331 888.863 C 669.959 876.275 656.725 866.756 644.422 857.231 C 670.599 843.31 697.489 829.286 725.292 818.89 z"/>
<path transform="translate(0,0)" fill="rgb(254,254,254)" d="M 1270.41 798.535 C 1289.79 801.744 1319.46 811.36 1338.94 817.315 C 1327.92 837.067 1316.42 857.236 1308.79 878.612 C 1306.1 886.14 1306.15 892.84 1305.87 900.67 C 1305.23 918.346 1290.4 930.903 1279.22 943.161 C 1272.64 949.686 1267.35 957.154 1261.05 963.915 L 1259.9 963.905 C 1258.26 955.824 1269.54 927.148 1271.68 916.436 C 1275.86 895.456 1282.63 857.976 1269.28 838.993 C 1263.82 831.226 1258.09 828.985 1249.2 827.293 L 1270.41 798.535 z"/>
<path transform="translate(0,0)" fill="rgb(254,254,254)" d="M 1774.28 1191.14 C 1775.8 1191.08 1777.29 1191.08 1778.82 1191.14 C 1789.09 1191.54 1797.36 1196.1 1804.16 1203.71 C 1819.95 1221.39 1824.75 1246.68 1823.26 1269.68 C 1821.48 1297.22 1804.24 1307.57 1785.05 1324.34 C 1785.64 1317.98 1785.8 1311.89 1785.59 1305.51 C 1785.05 1297.21 1784.01 1289.22 1781.29 1281.33 C 1775.79 1265.38 1764.31 1249.86 1748.69 1242.72 C 1739.47 1238.51 1727.48 1236.84 1717.9 1240.68 C 1717.58 1240.8 1717.27 1240.94 1716.96 1241.06 C 1716.71 1240.44 1716.36 1239.85 1716.22 1239.2 C 1715.71 1236.98 1716.79 1234.34 1717.92 1232.45 C 1728.99 1213.94 1753.29 1196 1774.28 1191.14 z"/>
<path transform="translate(0,0)" fill="rgb(254,254,254)" d="M 1021.12 1134.93 C 1024.32 1139.79 1026.5 1145.16 1029.98 1149.93 C 1049.29 1176.41 1072.99 1178.32 1100.67 1190.44 L 1102.01 1191.03 C 1083.61 1216.39 1069.42 1237 1055.04 1265.13 L 1050.08 1275.9 C 1029.28 1264.82 1007.74 1262.84 984.524 1263.08 C 1015.35 1223.39 1025.04 1184.85 1021.12 1134.93 z"/>
<path transform="translate(0,0)" fill="rgb(254,254,254)" d="M 980.983 1277.33 C 986.952 1276.92 992.94 1276.49 998.927 1276.62 C 1030.33 1277.29 1058.77 1292.42 1080.15 1314.74 C 1043.81 1311.78 1015.5 1319.34 983.013 1335.23 C 964.774 1344.82 948.74 1356.11 932.862 1369.13 C 927.488 1362.52 922.103 1353.67 919.003 1345.74 C 913.764 1332.33 918.63 1322.24 923.998 1309.99 C 932.21 1305.85 940.202 1301.48 947.786 1296.26 C 955.583 1290.89 964.33 1282.62 972.938 1278.99 C 975.413 1277.95 978.333 1277.66 980.983 1277.33 z"/>
<path transform="translate(0,0)" fill="rgb(254,254,254)" d="M 709.486 741.838 L 710.798 741.879 C 712.587 744.204 712.501 764.292 713.253 769.217 C 714.775 779.187 717.619 788.699 720.627 798.296 C 690.473 814.955 658.102 826.448 628.902 845.224 C 621.14 839.103 614.483 831.556 606.452 825.814 C 602.77 826.457 599.915 827.943 596.607 829.634 C 589.526 824.686 583.038 816.37 576.951 810.13 C 604.107 786.089 674.818 755.426 709.486 741.838 z"/>
<path transform="translate(0,0)" fill="rgb(254,254,254)" d="M 1003.63 1138.12 C 1004.42 1138.06 1005.24 1138.42 1006 1138.63 C 1006.51 1139.73 1006.73 1140.07 1006.96 1141.41 C 1007.77 1146.33 1007.15 1152.55 1007.2 1157.57 C 1007.51 1190.24 998.638 1218.92 980.918 1246.22 C 970.716 1241.22 959.541 1237.53 949.015 1233.15 L 893.247 1209.42 C 879.381 1203.34 865.764 1197.01 852.237 1190.2 C 854.039 1184.09 854.88 1178.87 855.004 1172.52 C 871.863 1168.8 888.953 1166.04 905.832 1162.32 A 1989.59 1989.59 0 0 0 1003.63 1138.12 z"/>
<path transform="translate(0,0)" fill="rgb(254,254,254)" d="M 447.556 928.404 C 461.566 926.007 477.947 928.287 491.529 931.967 C 497.191 966.977 506.17 1002.97 520.159 1035.58 C 514.224 1040.04 508.041 1044.5 501.464 1047.95 C 480.244 1059.11 462.988 1056.12 441.155 1049.31 A 1740.18 1740.18 0 0 0 410.621 1038.24 C 416.552 1030.79 423.485 1024.2 429.518 1016.84 C 433.481 1012.01 437.027 1006.71 436.132 1000.19 C 433.69 982.413 397.65 956.74 383.836 945.715 C 403.383 934.395 425.338 930.457 447.556 928.404 z"/>
<path transform="translate(0,0)" fill="rgb(254,254,254)" d="M 904.868 1316.33 L 905.529 1317.14 C 905.201 1318.45 904.898 1319.78 904.554 1321.09 C 904.121 1322.74 903.643 1324.35 903.407 1326.05 C 900.629 1346.15 911.156 1362.14 922.385 1377.5 L 917.604 1385.21 C 897.081 1372.88 895.636 1360.17 883.833 1341.52 L 883.129 1340.43 C 878.468 1345.2 876.281 1350.06 874.002 1356.2 C 883.131 1373.88 892.199 1384.71 907.975 1396.85 C 903.193 1404.42 900.632 1411.66 898.207 1420.19 C 881.895 1409.85 870.908 1394.48 859.762 1379.15 C 856.836 1384.37 852.82 1389.05 849.175 1393.78 C 854.652 1397.9 859.135 1403.3 863.832 1408.27 C 875.173 1420.27 885.721 1428.67 900.72 1435.58 C 907.181 1449.7 916.824 1459.33 927.435 1470.28 C 882.9 1463.21 849.986 1458.91 816.811 1425.6 C 812.898 1428.89 809.173 1431.73 804.689 1434.25 C 814.229 1440.39 821.407 1449.34 830.899 1455.46 C 856.547 1472.02 905.506 1481.99 936.303 1480.57 L 938.463 1480.07 C 946.359 1483.75 953.344 1492.53 959.289 1498.8 C 923.838 1494.99 887.806 1492.63 853.334 1482.92 C 828.861 1476.03 806.796 1462.52 794.007 1439.89 C 763.005 1453.63 716.332 1472.25 681.954 1463.61 C 659.577 1457.98 645.555 1440.76 634.191 1421.88 C 646.186 1428.77 658.238 1435.12 671.635 1438.84 C 711.633 1449.96 762.145 1448.17 798.767 1427.23 C 836.704 1405.54 870.096 1361.93 881.644 1319.95 C 889.524 1319.19 897.225 1318.54 904.868 1316.33 z"/>
<path transform="translate(0,0)" fill="rgb(254,254,254)" d="M 305.649 952.419 C 322.952 950.841 342.264 951.567 359.239 955.126 C 383.86 960.288 408.671 979.69 422.353 1000.42 C 406.727 1026.13 382.829 1045.45 353.748 1053.62 C 311.785 1065.41 258.366 1063.88 219.813 1042.03 L 220.067 1040.8 C 224.806 1037.76 259.258 1034.42 268.059 1032.85 C 287.654 1029.36 311.294 1025.07 328.847 1015.8 C 332.806 1013.72 337.052 1010.58 338.303 1006.05 C 339.172 1002.9 338.567 999.798 336.72 997.136 C 325.885 981.519 224.803 987.963 201.588 986.213 C 230.431 964.412 270.314 955.263 305.649 952.419 z"/>
<path transform="translate(0,0)" fill="rgb(254,254,254)" d="M 641.691 903.319 C 677.975 900.803 713.34 907.995 748.585 915.511 C 738.221 953.015 729.143 990.918 716.271 1027.71 A 1456.2 1456.2 0 0 0 710.202 1046.63 A 321.811 321.811 0 0 1 694.138 1046.24 C 672.056 1045.36 654.72 1042.09 639.054 1025.14 A 1032.75 1032.75 0 0 0 634.075 954.227 C 632.37 938.16 629.748 922.083 628.733 905.963 C 632.997 904.746 637.326 904.064 641.691 903.319 z"/>
<path transform="translate(0,0)" fill="rgb(254,254,254)" d="M 412.314 728.053 C 422.153 728.543 433.579 732.853 442.865 736.013 C 501.682 756.031 546.208 797.797 587.613 842.502 C 573.629 861.627 557.302 878.036 544.635 898.391 C 541.78 898.956 538.888 899.566 535.996 899.908 C 510.539 902.915 465.877 869.775 446.538 854.303 C 419.585 831.589 396.313 806.05 380.103 774.508 C 398.965 785.864 477.433 835.965 498.092 832.697 C 501.38 832.177 503.898 830.539 505.886 827.9 C 507.573 825.659 508.432 823.309 507.971 820.487 C 506.513 811.567 497.178 802.244 491.326 795.746 C 467.646 769.454 441.899 747.441 412.314 728.053 z"/>
<path transform="translate(0,0)" fill="rgb(254,254,254)" d="M 582.227 909.46 C 592.561 909.35 602.947 909.932 613.277 910.268 C 616.917 925.71 618.122 941.958 619.697 957.713 L 626.071 1024.21 C 621.691 1029.33 617.765 1034.46 614.043 1040.08 C 611.348 1041.45 608.648 1042.82 605.873 1044.03 C 588.853 1051.45 570.28 1054.77 552.644 1047.68 C 516.691 1024.1 515.601 963.357 502.932 925.814 C 502.811 925.456 502.683 925.101 502.558 924.745 C 529.003 915.144 554.267 910.93 582.227 909.46 z"/>
<path transform="translate(0,0)" fill="rgb(254,254,254)" d="M 1288.43 717.957 C 1336.55 729.901 1384.6 747.031 1431.01 764.412 C 1476.74 781.539 1521.99 798.592 1566.22 819.423 C 1553.44 826.889 1540.41 833.978 1528.26 842.473 C 1527.7 839.523 1527.18 836.412 1525.9 833.669 C 1523 827.439 1515.42 823.549 1509.27 821.344 C 1479.09 810.524 1465.26 817.165 1437.66 829.939 C 1433.09 829.396 1428.72 828.333 1424.26 827.246 L 1432.55 813.224 C 1434.12 807.753 1434.2 802.47 1433.76 796.833 C 1433.44 792.687 1432.95 790.305 1429.64 787.516 C 1425.07 785.826 1421.41 786.56 1417.05 788.629 C 1407.82 793.004 1400.85 801.807 1394.49 809.525 C 1384.47 821.688 1372.94 835.82 1368.73 851.347 C 1366.88 858.169 1366.42 865.264 1364.65 872.106 C 1362.15 881.714 1358.39 891.133 1355 900.462 C 1349.68 903.299 1344.12 905.061 1338.4 906.929 C 1344.47 893.009 1350.04 878.876 1356.15 864.974 C 1361.51 852.774 1368.71 840.549 1371.77 827.572 C 1373.41 820.614 1373.42 813.144 1373.01 806.041 C 1372.7 800.647 1371.91 791.148 1366.84 787.83 C 1364.68 786.419 1362.29 786.217 1359.89 787.03 C 1352.72 789.455 1348.92 797.936 1345.37 803.978 C 1322.67 797.834 1300.31 789.57 1277.61 783.09 C 1283.69 761.509 1286.26 740.181 1288.43 717.957 z"/>
<path transform="translate(0,0)" fill="rgb(254,254,254)" d="M 1304.69 1051.37 C 1305.92 1051.17 1307.17 1051.16 1308.42 1051.1 C 1332.33 1050 1345.54 1063.76 1361.95 1078.73 C 1360.59 1095.02 1360.9 1113.64 1365.62 1129.37 C 1368.44 1138.78 1373.9 1148.31 1373.99 1158.19 C 1374.03 1162.63 1373.75 1167.56 1375.21 1171.79 C 1380.62 1187.43 1407.81 1219.29 1419.41 1233.2 C 1416.21 1230.61 1413.01 1227.97 1409.58 1225.7 C 1391.89 1214.01 1370.94 1208.91 1350.05 1213.38 C 1322.84 1219.2 1304.5 1240.72 1290.13 1263.17 C 1263.85 1304.22 1250.38 1387.39 1252.07 1436.98 C 1252.49 1449.47 1254.31 1461.5 1256.94 1473.69 C 1259.45 1482.73 1262.56 1491.62 1265.49 1500.52 L 1244.97 1501.88 C 1232.58 1467.86 1228.19 1399.16 1235.99 1363.33 C 1238.82 1350.31 1246.86 1339.14 1250.96 1326.53 C 1269.38 1269.93 1283.79 1223.07 1286.46 1163.3 C 1302.23 1154.26 1318.09 1143.77 1332.29 1132.41 C 1339.95 1126.29 1352.78 1115.47 1353.46 1105.05 C 1353.65 1102.06 1352.54 1098.73 1350.26 1096.69 C 1345.53 1092.45 1337.89 1093.04 1331.92 1092.79 C 1330.09 1090.48 1328.18 1088.22 1326.06 1086.18 C 1316.01 1076.52 1300.62 1078.91 1287.88 1079.25 C 1284.84 1071.52 1281.28 1064.1 1277.67 1056.63 C 1286.74 1055.15 1295.54 1052.65 1304.69 1051.37 z"/>
<path transform="translate(0,0)" fill="rgb(254,254,254)" d="M 1343.18 919.107 C 1336.44 923.391 1329.88 927.768 1323.67 932.812 C 1317.85 937.532 1278.46 973.482 1277.37 978.037 C 1276.76 980.576 1277.21 982.723 1278.57 984.905 C 1281.51 985.923 1283.37 985.518 1286.17 984.156 C 1303.76 975.59 1316.46 955.656 1331.81 943.542 C 1338 938.658 1359.03 925.393 1361.7 919.15 C 1363.03 916.022 1362.3 912.014 1361.94 908.754 C 1366.11 907.695 1370.37 906.989 1373.94 904.48 C 1375.2 902.188 1374.94 903.439 1374.66 900.922 C 1374.31 897.71 1374 894.264 1374.46 891.055 C 1375.82 881.701 1382.35 850.28 1386.62 843.683 C 1392.03 835.333 1410.89 806.274 1419.29 803.48 C 1419.58 803.383 1419.9 803.361 1420.2 803.301 C 1421.73 809.443 1403.59 836.43 1400.29 844.755 C 1397.07 852.88 1395.48 860.961 1394.73 869.665 C 1390.06 873.612 1382.46 878.754 1381.69 885.399 C 1381.39 888.056 1381.87 888.344 1383.52 890.197 C 1388.06 891.383 1391.91 889.635 1395.78 887.306 C 1403.9 882.43 1407.1 879.018 1409.67 869.808 C 1412.32 870.91 1413.86 872.084 1416.81 871.026 C 1421.33 869.403 1426.54 863.25 1429.84 859.693 C 1454.03 833.553 1467.5 822.968 1504.2 834.138 C 1507.52 835.151 1511.98 836.423 1513.64 839.594 C 1508.45 844.684 1488.54 843.52 1481.77 843.428 C 1480.23 843.408 1478.77 843.257 1477.26 842.992 C 1467.92 847.983 1440.87 867.756 1436.43 876.352 C 1436.6 877.972 1436.26 878.609 1437.62 879.744 C 1446.33 887.023 1466.82 881.567 1470.23 896.41 C 1469.57 899.014 1469.6 899.416 1467.62 901.167 C 1454.63 901.453 1444.93 877.542 1431.49 886.395 C 1427.15 889.249 1420.3 886.311 1415.72 888.117 C 1413.11 889.146 1409.66 894.751 1407.45 896.882 C 1401.94 902.203 1395.29 906.39 1389.96 911.844 C 1388.28 913.561 1386.74 915.704 1386.04 918.027 C 1385.07 921.273 1385.68 924.611 1387.31 927.531 C 1389.13 930.774 1391.54 933.715 1393.99 936.498 C 1387.11 932.578 1380.06 928.003 1371.74 929.576 C 1371.81 932.306 1372.04 934.862 1372.43 937.566 C 1377.81 942.894 1415.04 969.619 1421.59 972.506 C 1431.94 970.019 1446.04 956.982 1452.56 948.525 C 1455.01 945.355 1456.42 942.742 1455.93 938.612 C 1448.47 925.766 1418.63 932.213 1406.21 928.133 C 1403.33 927.19 1402.32 925.96 1401.1 923.293 C 1402.3 916.996 1421.27 904.424 1426.94 899.686 C 1435.23 907.573 1453.73 923.317 1464.85 925.825 C 1467.07 926.326 1467.04 926.31 1469 924.973 C 1469.63 921.518 1468.33 917.86 1467.51 914.492 C 1469.67 913.706 1471.68 914.08 1473.91 914.306 C 1476.84 918.748 1471.83 928.999 1470.84 934.339 C 1467.08 954.781 1469.53 973.222 1472.87 993.469 C 1449.29 987.692 1435.06 988.838 1413.58 1000.86 C 1404.1 991.184 1390.14 980.555 1376.66 977.514 C 1366.93 975.319 1359.35 977.5 1351.16 982.764 C 1343.57 978.696 1336.98 975.62 1328.27 974.54 C 1334.31 970.32 1339.7 965.148 1345.15 960.204 C 1350.74 955.13 1366.1 943.318 1369.2 937.224 C 1370.39 934.872 1370.39 932.161 1370.51 929.577 A 341.683 341.683 0 0 1 1358.96 925.753 C 1346.62 946.032 1307.81 967.766 1301.57 981.67 C 1302.56 984.016 1303.83 985.687 1306.23 986.707 C 1311.8 989.077 1320.08 987.969 1326.21 988.284 C 1338.63 988.924 1356.62 997.602 1365.69 1006.46 C 1365.3 1008.17 1365.72 1007.88 1364.18 1008.75 C 1358.28 1012.08 1344.15 1007.96 1337.88 1005.79 C 1326.27 1001.77 1308.07 991.337 1295.48 996.641 C 1293.9 997.307 1293.82 997.61 1292.49 998.746 C 1278.9 1010.34 1264.49 1020.3 1248.21 1027.73 C 1244.45 1023.01 1240.25 1016.11 1233.74 1015.29 C 1225.93 1014.3 1221.65 1023.86 1215.57 1017.84 C 1221.28 996.991 1239.33 981.186 1241.46 958.657 C 1240.28 956.719 1239.1 955.789 1237.26 954.474 C 1235.88 946.387 1240.05 932.068 1240.39 923.096 C 1241.22 901.278 1231.55 864.185 1244.04 845.357 C 1245.43 843.259 1246.7 842.255 1249.06 841.265 C 1251.76 841.766 1252.99 842.226 1254.71 844.485 C 1267.82 861.668 1261.06 894.812 1257.18 914.551 C 1254.91 926.121 1239.52 970.206 1243.24 978.493 C 1244.56 979.224 1245.2 980.089 1246.75 979.638 C 1250.05 978.673 1251.96 975.285 1255.26 977.022 C 1255.8 977.303 1256.28 977.676 1256.8 977.977 C 1258.43 978.914 1259.55 979.415 1261.46 978.997 C 1270.39 977.045 1308.9 930.694 1313.85 920.98 C 1315.44 917.854 1316.81 914.662 1318.08 911.392 C 1327.06 917.246 1332.35 919.167 1343.18 919.107 z"/>
<path transform="translate(0,0)" fill="rgb(254,254,254)" d="M 630.869 1040.43 C 637.185 1043.4 642.287 1048.7 648.5 1051.97 C 668.962 1062.76 695.284 1061.1 717.677 1060.89 C 730.342 1080.98 748.547 1089.42 770.711 1095.72 C 775.313 1107.85 781.114 1119.98 793.45 1125.93 C 805.873 1131.92 818.812 1128.53 831.097 1124.32 C 830.611 1126.97 829.72 1138.99 828.054 1140.34 C 825.115 1142.71 815.005 1140.54 809.778 1147.49 C 808.194 1149.6 807.844 1151.97 808.174 1154.52 C 809.925 1168.04 824.713 1181.98 834.769 1190.04 C 833.732 1194.47 832.912 1198.96 832.968 1203.52 C 833.033 1208.73 835.988 1217.57 833.707 1222.15 C 818.177 1227.87 802.688 1198.32 788.233 1192.61 C 784.879 1191.28 782.291 1191.53 779.037 1192.96 C 777.189 1195.13 777.072 1195.38 776.721 1198.21 C 779.58 1206.85 793.018 1211.99 799.446 1218.81 C 794.036 1217.63 787.528 1211.88 782.267 1209.45 C 778.357 1207.64 774.277 1206.23 770.077 1207.84 C 768.131 1210.03 768.094 1210.62 767.555 1213.54 C 768.391 1216.74 769.799 1217.9 772.192 1219.96 L 780.315 1225.23 C 772.82 1226.83 765.175 1228.19 758.011 1230.97 A 1125.51 1125.51 0 0 1 740.11 1203.04 C 741.955 1195.73 749.058 1148.11 748.874 1142.76 C 748.765 1139.59 747.975 1137.75 745.726 1135.59 C 744.244 1135.71 743.198 1135.51 741.941 1136.43 C 734.28 1142.03 729.699 1178.08 727.729 1188.24 A 836.429 836.429 0 0 1 703.578 1166.14 C 703.701 1157.52 706.648 1128.38 705.102 1122.49 C 704.389 1119.77 703.164 1119.24 701.028 1117.69 C 698.316 1117.52 698.106 1117.38 695.862 1118.85 C 689.977 1129.19 691.66 1145.69 691.608 1157.45 C 680.039 1149.21 668.329 1141.14 657.291 1132.19 C 655.305 1121.5 656.219 1110.28 653.804 1099.71 C 653.073 1096.51 652.318 1093.75 649.432 1091.9 C 647.574 1092.61 646.805 1092.76 645.584 1094.51 C 640.308 1102.08 643.053 1115.6 643.995 1124.23 A 2476.35 2476.35 0 0 1 618.709 1110.29 C 616.381 1093.43 614.393 1076.75 612.958 1059.79 C 619.937 1054.05 625.489 1047.65 630.869 1040.43 z"/>
<path transform="translate(0,0)" fill="rgb(254,254,254)" d="M 918.665 988.676 C 964.38 1022.25 988.167 1068.3 1002.88 1121.96 C 966.307 1133.09 929.825 1142.32 892.441 1150.27 C 878.614 1153.21 863.523 1157.4 849.349 1157.63 C 846.754 1155.98 846.394 1152.51 845.482 1149.61 C 844.692 1143.9 843.11 1134.22 844.759 1128.71 C 848.186 1117.27 862.483 1111.51 860.785 1095.7 C 860.021 1094.48 859.791 1093.63 858.418 1092.99 C 856.946 1092.29 853.95 1091.81 852.316 1092.27 C 847.609 1093.59 844.319 1099.95 840.361 1102.77 C 833.787 1107.45 824.449 1109.52 816.822 1112 C 810.865 1113.94 804.776 1114.39 799.123 1111.27 C 792.862 1107.82 791.212 1102.79 789.282 1096.32 C 833.214 1082.96 892.297 1026.41 918.665 988.676 z"/>
<path transform="translate(0,0)" fill="rgb(254,254,254)" d="M 765.84 907.958 C 804.819 910.193 881.352 950.646 908.737 979.078 C 887.17 1005.5 864.961 1028.69 838.459 1050.17 C 828.223 1057.89 817.673 1065.71 806.786 1072.48 C 795.56 1079.45 785.243 1083.41 771.924 1080.13 C 751.058 1074.99 736.491 1064.56 725.556 1046.1 C 731.563 1026.9 738.594 1008.07 744.063 988.7 A 1526.13 1526.13 0 0 0 755.035 948.081 C 757.903 936.524 760.3 918.033 765.84 907.958 z"/>
<path transform="translate(0,0)" fill="rgb(254,254,254)" d="M 1642.95 1186.23 C 1652.52 1185.48 1660.2 1186.02 1669.05 1190.42 C 1683.51 1197.6 1692.78 1210.5 1697.73 1225.49 C 1705.01 1247.58 1706.69 1275.91 1695.71 1297.04 C 1673.46 1339.88 1625 1358.83 1581.53 1372.31 A 427.451 427.451 0 0 1 1527.74 1382.38 C 1545.31 1322.09 1580.67 1259.42 1615.99 1207.72 C 1623.1 1197.32 1629.95 1188.67 1642.95 1186.23 z"/>
<path transform="translate(0,0)" fill="rgb(254,254,254)" d="M 799.685 1236.34 C 817.287 1234.08 839.835 1235.99 854.841 1246.33 C 864.758 1253.15 874.253 1263.91 876.214 1276.09 C 877.648 1285.01 874.117 1293.18 868.999 1300.3 C 862.03 1309.99 852.408 1318.12 843.15 1325.53 C 802.254 1358.26 752.321 1376.46 701.152 1385.16 C 676.473 1388.34 650.023 1388.73 625.462 1384.66 C 630.391 1373.1 638.075 1362.52 645.517 1352.44 C 671.153 1317.74 715.349 1272.44 753.045 1251.91 C 767.891 1243.82 782.999 1238.83 799.685 1236.34 z"/>
<path transform="translate(0,0)" fill="rgb(254,254,254)" d="M 1356.04 1226.22 C 1362.81 1225.45 1369.68 1225.39 1376.44 1226.4 C 1393.2 1228.92 1409.49 1238.85 1419.39 1252.63 C 1434.6 1273.82 1436.13 1319.27 1432 1344.16 C 1424.92 1386.8 1393.51 1418.99 1359.5 1443.04 C 1342.53 1453.8 1325.97 1463.3 1307.08 1470.39 C 1306.7 1437.68 1314.57 1405.43 1316.82 1372.85 A 1091.07 1091.07 0 0 0 1318.84 1313.1 C 1319 1298.22 1318.71 1283.21 1320.47 1268.41 C 1321.39 1260.72 1324.01 1251.68 1328.01 1245.05 C 1334.41 1234.47 1344.47 1229.16 1356.04 1226.22 z"/>
<path transform="translate(0,0)" fill="rgb(254,254,254)" d="M 1179.3 1154.15 C 1186.59 1154.1 1191.68 1156.36 1197.36 1160.87 C 1225.29 1183.08 1245.44 1242.94 1248.19 1277.83 C 1249.05 1288.68 1245.3 1299.31 1242.02 1309.5 C 1231.13 1343.24 1215.5 1374.89 1192.11 1401.79 C 1188.31 1386.88 1182.57 1374.2 1174.39 1361.19 C 1156.89 1335.05 1126.59 1322.74 1097.17 1315.6 C 1089.3 1302.01 1075.77 1290.73 1062.79 1282.27 C 1070.11 1265.19 1078.1 1248.07 1088.31 1232.52 C 1107.48 1203.33 1143.74 1161.64 1179.3 1154.15 z"/>
<path transform="translate(0,0)" fill="rgb(43,43,43)" d="M 1203.84 1254.41 C 1204.7 1254.51 1206.31 1254.65 1207.09 1254.97 C 1208.47 1255.52 1209.43 1256.55 1209.87 1257.94 C 1211.15 1262.04 1208.89 1266.03 1207.07 1269.61 L 1204.01 1268.82 C 1202.82 1267.72 1201.75 1266.81 1201.3 1265.18 C 1200.24 1261.35 1202.16 1257.7 1203.84 1254.41 z"/>
<path transform="translate(0,0)" fill="rgb(43,43,43)" d="M 1175.82 1295.65 C 1176.94 1295.75 1178.91 1295.77 1180.03 1296.19 C 1182.59 1297.16 1182.9 1298.01 1184.04 1300.3 C 1184.03 1303.66 1183.2 1306 1181.98 1309.11 C 1181.02 1309.15 1178.98 1309.4 1177.98 1309.1 C 1175.43 1308.32 1175.09 1307.32 1173.95 1305.14 C 1173.86 1301.51 1174.58 1299.04 1175.82 1295.65 z"/>
<path transform="translate(0,0)" fill="rgb(43,43,43)" d="M 1140.95 1233.54 C 1141.47 1233.77 1142.01 1233.99 1142.53 1234.23 C 1144.83 1235.31 1146.43 1236.92 1146.92 1239.53 C 1147.72 1243.76 1145.06 1247.41 1142.71 1250.62 C 1139.83 1249.49 1139.13 1249.36 1137.29 1246.93 C 1136.16 1241.81 1138.45 1237.85 1140.95 1233.54 z"/>
<path transform="translate(0,0)" fill="rgb(43,43,43)" d="M 1178.99 1195.38 C 1180.51 1195.86 1181.94 1196.53 1183.4 1197.16 C 1184.32 1198.51 1185.13 1199.23 1185.23 1200.93 C 1185.49 1205.24 1182.8 1208.67 1180.19 1211.8 C 1179 1211.26 1177.16 1210.59 1176.22 1209.7 C 1174.31 1207.87 1173.75 1206.15 1173.89 1203.56 C 1174.05 1200.41 1176.96 1197.5 1178.99 1195.38 z"/>
<path transform="translate(0,0)" fill="rgb(43,43,43)" d="M 1097.85 1266.35 C 1100.15 1266.67 1101.29 1267.2 1103.2 1268.5 C 1104.19 1270 1105.08 1271.23 1105.15 1273.12 C 1105.3 1277.41 1102.92 1280.65 1100.23 1283.69 C 1096.89 1282.38 1095.81 1282.19 1093.55 1279.3 C 1092.58 1274.04 1094.95 1270.57 1097.85 1266.35 z"/>
<path transform="translate(0,0)" fill="rgb(254,254,254)" d="M 1126.55 1013.41 C 1144.81 1011.57 1164.75 1013.76 1182.44 1018.51 C 1211.25 1026.24 1237.35 1044.39 1252.19 1070.54 C 1281.85 1122.77 1273.36 1200.1 1257.86 1255.33 C 1253.01 1221.69 1237.29 1184.34 1215.25 1158.3 C 1207.26 1148.85 1196.99 1140.79 1184.15 1140.08 C 1156.68 1138.57 1130.08 1164.84 1111.09 1181.43 C 1085.92 1169.18 1051.06 1163.81 1036.18 1137.02 C 1030.91 1127.54 1030.59 1116.65 1033.75 1106.42 C 1040.9 1083.3 1063.15 1069.06 1083.55 1058.76 A 79.3739 79.3739 0 0 1 1090.03 1056.3 C 1123.65 1045.29 1159.91 1043.47 1192.04 1060.05 C 1214.01 1071.39 1226.42 1086.43 1234.01 1109.75 C 1237.63 1120.88 1233.22 1136.28 1232.89 1148.01 C 1232.78 1151.9 1233.05 1154.8 1235.78 1157.68 C 1237.1 1157.6 1238.09 1157.8 1239.2 1156.96 C 1242.73 1154.3 1243.97 1148.49 1244.77 1144.4 C 1249.38 1120.71 1248.14 1100.28 1234.35 1079.9 C 1218.39 1056.31 1189.28 1041.44 1161.86 1036.14 C 1126.07 1029.22 1085.98 1039.26 1056.08 1059.56 C 1041.07 1069.75 1025.38 1085.14 1021.04 1103.37 C 1019.47 1109.91 1019.62 1116.45 1018.37 1122.98 C 1016.35 1121.52 1016.1 1120.76 1015.83 1118.37 C 1013.35 1096.93 1026.07 1068.15 1039.37 1051.9 C 1061.09 1025.37 1093.77 1016.66 1126.55 1013.41 z"/>
<path transform="translate(0,0)" fill="rgb(254,254,254)" d="M 581.105 1499.97 C 590.377 1499.77 636.834 1518.59 649.497 1522.74 A 1491.88 1491.88 0 0 0 809.155 1566.88 A 1499.99 1499.99 0 0 0 1442.17 1567.18 A 1214.6 1214.6 0 0 0 1545.71 1539.99 C 1566.42 1533.44 1587.27 1524.1 1608.37 1519.26 C 1608.81 1519.16 1609.24 1519.07 1609.67 1518.97 L 1576.41 1535.25 A 1046.87 1046.87 0 0 1 1355.71 1614.52 A 1155.19 1155.19 0 0 1 1173.98 1640.27 C 1114.57 1644.44 1054.29 1645.55 994.918 1640.35 A 953.533 953.533 0 0 1 581.105 1499.97 z"/>
<path transform="translate(0,0)" fill="rgb(254,254,254)" d="M 1067.44 1327.42 C 1098.18 1327.78 1132.88 1336.34 1155.4 1358.56 C 1171.92 1374.87 1182.01 1401.8 1181.83 1424.89 C 1181.67 1446.9 1170.17 1475.06 1154.24 1490.35 C 1133.2 1510.53 1104.97 1507.1 1078.3 1505.87 A 2364 2364 0 0 0 1030.22 1503.87 A 1673.45 1673.45 0 0 1 977.969 1500.85 C 962.939 1481.68 914.179 1445.76 912.66 1423.74 C 911.961 1413.61 925.794 1397.38 932.362 1389.87 C 942.41 1378.4 954.056 1369.69 966.696 1361.27 C 1000.03 1339.07 1027.57 1329.8 1067.44 1327.42 z"/>
<path transform="translate(0,0)" fill="rgb(43,43,43)" d="M 1054.37 1354.4 C 1065.15 1354.47 1075.9 1354.53 1086.37 1357.38 A 90.4463 90.4463 0 0 1 1141.44 1399.76 C 1148.4 1412.11 1156.04 1440.99 1152.29 1454.59 C 1150.53 1456.56 1149.94 1457.38 1147.01 1457.18 C 1144.17 1456.99 1141.13 1454.79 1140.23 1452.06 C 1139.13 1448.73 1140.16 1444.19 1140.17 1440.69 C 1140.23 1427.45 1135.67 1412.79 1128.12 1401.97 C 1114.98 1383.15 1099.24 1372.31 1076.8 1368.28 C 1040.42 1362.52 997.339 1378.42 970.424 1402.88 C 965.165 1407.66 958.178 1419.17 952.01 1421.36 C 950.341 1421.27 949.321 1421.5 947.872 1420.53 C 945.787 1419.13 944.394 1417.02 944.288 1414.45 C 944.108 1410.09 947.369 1405.92 950.017 1402.8 C 964.688 1385.53 1001.25 1366 1022.78 1359.63 C 1033.12 1356.57 1043.64 1355.13 1054.37 1354.4 z"/>
<path transform="translate(0,0)" fill="rgb(254,254,254)" d="M 1044.12 819.016 C 1066.37 818.268 1063.24 834.619 1079.02 839.125 C 1083.37 838.206 1086.83 833.647 1090.33 831.026 C 1094.11 828.201 1098.55 827.115 1103.2 827.99 C 1117.89 830.751 1115.13 842.713 1122.24 852.044 C 1128.65 860.464 1138.44 850.476 1147.21 851.954 C 1150.69 852.541 1153.55 854.772 1156.18 857.003 C 1173.46 871.699 1161.08 885.794 1168.49 897.207 C 1172.74 903.749 1183.3 905.26 1188.1 912.34 C 1205.45 937.909 1186.81 976.328 1182.6 1003.38 L 1182.39 1004.76 L 1166.32 1001.2 C 1167.27 990.994 1167.85 981.013 1166.95 970.776 C 1165.8 957.618 1159.58 921.4 1149.11 912.707 C 1146.48 912.281 1146.53 912.269 1144.24 913.637 C 1140.92 920.622 1152.48 949.779 1153.93 959.68 C 1155.88 972.96 1155.55 985.704 1154.75 999.027 L 1153.9 999.001 C 1108.03 997.778 1067.2 1005.64 1032.84 1038.28 C 1019.52 1052.89 1010.07 1069.39 1007.14 1089.11 C 991.374 1039.97 964.129 1005.97 923.947 974.727 C 926.896 965.065 931.317 955.048 936.119 946.186 C 938.417 941.944 941.784 937.945 943.533 933.46 C 944.267 931.578 944.24 930.012 944.016 928.007 C 942.561 925.459 941.687 924.562 939.093 923.185 C 938.845 923.294 938.582 923.372 938.351 923.511 C 930.655 928.132 919.213 956.552 916.221 965.023 C 905.003 956.122 893.011 948.162 881.866 939.234 C 881.714 939.113 881.588 938.962 881.435 938.843 C 880.906 938.433 880.359 938.047 879.821 937.649 L 880.055 936.782 C 885.45 933.073 894.784 936.499 901.064 933.22 C 905.544 925.366 897.085 916.771 898.378 908.202 C 901.975 884.367 926.06 893.739 933.65 887.234 C 936.883 884.464 936.015 877.382 936.207 873.58 C 936.531 867.167 937.515 861.326 942.708 857.026 C 952.763 848.702 966.456 850.319 978.397 851.568 C 984.8 844.516 991.355 831.444 1001.22 829.48 C 1009.69 827.795 1016.64 833.491 1023.1 838.01 C 1030.37 830.686 1034.3 823.388 1044.12 819.016 z"/>
<path transform="translate(0,0)" fill="rgb(43,43,43)" d="M 1032.54 862.345 C 1033.52 862.22 1034.51 862.121 1035.51 862.075 C 1041.68 861.791 1045.65 861.805 1050.27 866.16 C 1051.22 868.861 1051.3 868.784 1050.24 871.428 C 1045.32 875.526 1040.24 874.625 1034.24 874.431 C 1029.86 874.725 1024.35 875.611 1020.08 874.534 C 1017.24 873.818 1015.35 872.679 1013.84 870.202 L 1014.8 868.23 C 1020.5 863.883 1025.65 863.221 1032.54 862.345 z"/>
<path transform="translate(0,0)" fill="rgb(43,43,43)" d="M 1081.03 869.06 C 1082.52 869.022 1084.01 869.025 1085.49 869.21 C 1095.04 870.398 1108.93 878.703 1114.62 886.224 C 1115.15 889.4 1114.53 890.398 1113.44 893.359 C 1111.99 893.254 1110.46 893.268 1109.04 892.94 C 1103.32 891.616 1082.83 881.4 1080.64 876.165 C 1079.53 873.504 1080.08 871.622 1081.03 869.06 z"/>
<path transform="translate(0,0)" fill="rgb(43,43,43)" d="M 990.79 879.829 C 991.188 879.793 991.585 879.739 991.984 879.721 C 995.218 879.578 996.492 880.218 998.693 882.368 L 998.438 884.638 C 992.51 893.854 971.801 904.393 962.059 911.193 C 959.682 912.128 959.495 912.215 957.025 911.629 C 955.379 909.578 955.19 909.366 954.957 906.766 C 959.707 895.103 980.19 885.424 990.79 879.829 z"/>
<path transform="translate(0,0)" fill="rgb(254,254,254)" d="M 1841.37 1021.57 C 1870.47 1049.09 1901.15 1095.2 1914.16 1132.55 A 206.327 206.327 0 0 1 1905.19 1292.04 C 1844.71 1416.91 1699.43 1470.43 1576.87 1513.07 C 1293.39 1611.69 959.353 1605.59 674.431 1515.03 C 621.638 1498.25 569.919 1479.79 520 1455.58 C 421.447 1407.79 300.911 1339.96 263.257 1229.49 C 250.878 1193.17 249.44 1150.22 261.21 1113.56 C 265.548 1100.05 271.819 1087.44 278.027 1074.72 A 645.966 645.966 0 0 0 308.327 1075.9 A 279.921 279.921 0 0 0 304.822 1085.48 C 293.636 1118.49 299.46 1148.09 314.728 1178.76 C 351.807 1253.22 431.753 1305.62 502.129 1345.33 C 526.976 1359.34 554.054 1374.26 581.081 1383.43 A 95.5703 95.5703 0 0 0 592.513 1431.38 C 605.28 1455.34 625.006 1474.62 651.235 1482.63 C 698.751 1492.31 742.395 1472.74 786.053 1456.72 C 796.72 1466.98 809.054 1478.2 822.121 1485.19 C 854.037 1502.27 916.447 1507.43 952.979 1510.47 C 990.214 1513.57 1027.71 1514.5 1065.05 1515.77 A 1963.26 1963.26 0 0 0 1188.81 1516.4 C 1221.99 1515.85 1255 1515.2 1288.07 1512.22 A 1199.88 1199.88 0 0 0 1525.52 1465.23 C 1553.91 1456.61 1582.49 1447.88 1609.83 1436.27 C 1620.63 1431.69 1631.53 1425.94 1641.5 1419.76 C 1647.7 1415.9 1653.72 1411.27 1660.3 1408.1 C 1670.91 1403 1682.62 1399.78 1693.45 1395.05 C 1729.96 1379.1 1769.58 1358.94 1799.95 1332.97 C 1840.5 1298.29 1875.06 1243.39 1878.72 1189.45 C 1880.56 1162.47 1876.86 1127.39 1857.81 1106.44 C 1849.57 1097.37 1838.77 1092.18 1826.51 1091.71 C 1815.47 1091.28 1798.28 1093.76 1790.08 1101.55 C 1788.96 1103.99 1788.73 1106.22 1789.65 1108.78 C 1794.2 1121.47 1818.48 1098.94 1837.3 1108.84 C 1848.87 1114.93 1855.73 1128.72 1859.26 1140.82 C 1871.6 1183.07 1859.22 1227.33 1839.02 1264.73 A 519.661 519.661 0 0 0 1838.63 1259.22 C 1836.6 1232.32 1829.24 1206.5 1807.84 1188.44 C 1798.02 1180.16 1786.34 1175.46 1773.36 1176.78 C 1746.76 1179.49 1726.57 1200.97 1710.48 1220.31 A 102.051 102.051 0 0 0 1708.3 1214.98 A 75.9867 75.9867 0 0 0 1665.88 1174.73 C 1645.17 1166.93 1622.5 1172.38 1603.07 1181.24 C 1545.76 1207.36 1486.17 1287.69 1464.41 1346.67 C 1461.5 1307.28 1450.54 1273.33 1428.18 1240.67 C 1433.19 1243.62 1438.2 1246.66 1443.6 1248.85 C 1461.67 1256.19 1483.68 1257.11 1499.17 1243.57 C 1503.84 1239.48 1507.57 1233.16 1512.75 1229.84 C 1516.62 1227.36 1522.12 1227.11 1526.34 1225.2 C 1532.64 1222.34 1538.87 1217.81 1544.75 1214.11 C 1569.7 1198.42 1585.03 1182.15 1595.7 1154.38 C 1632.03 1164.02 1663.92 1160.96 1699.56 1150.3 C 1767.69 1129.91 1808.79 1081.98 1841.37 1021.57 z"/>
</svg>