<?xml version="1.0" encoding="utf-8" ?>
<svg xmlns="http://www.w3.org/2000/svg" xmlns:xlink="http://www.w3.org/1999/xlink" width="1024" height="1024">
	<path fill="#FEFEFE" d="M0 0L1024 0L1024 1024L0 1024L0 0Z"/>
	<path fill="#010101" d="M270.622 468.945C272.327 468.934 273.488 468.982 274.924 469.961C275.474 471.413 275.31 472.241 275.003 473.695C273.434 473.959 272.258 473.979 270.88 473.151C270.104 471.738 270.428 470.467 270.622 468.945Z"/>
	<path fill="#010101" d="M374.824 433.776C375.516 433.833 376.319 433.854 377.001 434.032C378.286 434.367 378.709 434.892 379.411 435.957C379.459 437.493 379.064 438.06 378.294 439.322C378.074 439.311 377.854 439.309 377.636 439.289C375.972 439.135 375.073 438.753 373.962 437.51C373.659 435.952 374.157 435.126 374.824 433.776Z"/>
	<path fill="#010101" d="M145.074 491.13C146.754 491.668 147.436 492.021 148.307 493.517C148.378 495.405 147.526 496.783 146.708 498.441C146.256 498.433 145.47 498.445 145.051 498.311C144.325 498.079 143.713 497.611 143.491 496.886C142.868 494.858 144.168 492.87 145.074 491.13Z"/>
	<path fill="#010101" d="M316.676 442.335C317.592 442.363 318.838 442.353 319.677 442.73C320.876 443.267 321.112 443.81 321.522 444.933C321.35 446.542 320.614 447.173 319.543 448.269C318.994 448.228 318.042 448.23 317.5 448.027C316.157 447.524 315.933 447.079 315.268 445.91C315.273 444.263 315.75 443.6 316.676 442.335Z"/>
	<path fill="#010101" d="M342.462 450.775C343.234 450.904 344.094 451.01 344.825 451.291C346.164 451.805 346.561 452.456 347.149 453.691C347.035 455.454 346.407 456.302 345.389 457.712C344.484 457.702 343.385 457.704 342.541 457.311C341.427 456.79 340.824 455.968 340.671 454.762C340.475 453.209 341.602 451.934 342.462 450.775Z"/>
	<path fill="#010101" d="M312.411 462.424C313.788 462.43 315.261 462.437 316.504 463.139C317.709 463.82 317.816 464.449 318.17 465.667C317.917 467.294 317.346 468.039 316.348 469.268C314.897 469.504 314.109 469.479 312.684 469.12C311.711 468.296 311.058 467.938 310.918 466.561C310.756 464.961 311.585 463.7 312.411 462.424Z"/>
	<path fill="#010101" d="M599.846 388.386C601.322 388.381 602.05 388.671 603.355 389.274C603.737 389.869 604.107 390.112 603.974 390.864C603.415 394.035 598.44 397.049 595.941 398.838C594.983 399.187 594.406 399.13 593.402 399.096C592.69 398.256 592.578 397.855 592.758 396.738C593.327 393.201 597.138 390.363 599.846 388.386Z"/>
	<path fill="#010101" d="M562.143 403.541C565.303 403.209 568.299 403.162 571.224 404.61C572.411 405.197 573.342 406.165 573.672 407.48C574.049 408.976 573.323 410.224 572.66 411.498C569.011 411.078 564.173 409.805 561.527 407.173C561.257 405.555 561.578 405.048 562.143 403.541Z"/>
	<path fill="#010101" d="M136.636 481.207C138.268 481.549 138.735 481.766 139.642 483.117C139.691 486.626 133.871 493.523 132.006 496.758C131.032 496.781 130.25 496.582 129.312 496.333C128.518 495.368 128.249 495.12 128.273 493.796C128.344 489.852 133.925 483.886 136.636 481.207Z"/>
	<path fill="#010101" d="M427.653 449.306C427.916 449.36 428.187 449.384 428.442 449.47C429.622 449.869 429.734 450.169 430.167 451.231C429.496 455.54 420.213 466.131 417.217 470.141C417.092 470.097 416.965 470.059 416.842 470.01C415.507 469.482 414.544 469.055 413.937 467.724C414.92 462.823 423.593 452.093 427.653 449.306Z"/>
	<path fill="#010101" d="M594.553 441.921C595.695 441.829 597.114 441.589 598.1 442.308C600.715 444.214 606.417 449.354 607.08 452.551C606.329 454.276 604.459 453.684 603.087 455.199C602.779 456.882 603.356 458.104 603.93 459.659L604.197 460.368L604.268 461.262C603.446 461.937 602.935 462.479 601.855 462.666C601.087 462.799 600.535 462.426 600.003 461.867C597.218 458.938 594.172 446.041 594.553 441.921Z"/>
	<path fill="#010101" d="M590.303 408.594C591.795 408.471 593.432 408.256 594.909 408.588C597.222 409.108 601.381 411.496 602.547 413.595C603.171 414.719 603.351 415.698 602.927 416.938C602.535 418.084 601.907 418.599 600.861 419.075C598.052 418.586 596.691 415.617 594.249 414.508C593.036 413.958 592.373 414.235 591.247 414.761C591.017 416.976 590.86 419.286 590.387 421.463C589.93 423.568 589.056 425.702 587.205 426.907L586.225 426.634C584.638 424.642 584.375 422.09 584.599 419.615C585.009 415.081 586.838 411.487 590.303 408.594Z"/>
	<path fill="#010101" d="M126.887 466.281C127.322 466.321 127.827 466.351 128.244 466.474C129.545 466.857 129.862 467.095 130.53 468.178C130.025 470.879 115.428 491.502 112.375 495.187C111.43 495.488 110.691 495.381 109.699 495.35C109.171 494.789 108.894 494.749 108.895 493.906C108.902 488.702 122.689 470.417 126.887 466.281Z"/>
	<path fill="#010101" d="M607.632 428.293C608.381 428.313 609.302 428.292 610.02 428.507C612.972 429.39 620.753 437.897 622.025 440.838C622.568 442.093 622.553 442.254 622.034 443.406L620.899 443.585C619.486 442.963 618.16 442.189 616.577 442.32C615.788 443.556 616.18 444.242 616.364 445.642C616.735 446.901 617.154 448.304 617.211 449.615C617.279 451.175 616.926 451.257 615.911 452.366C615.866 452.351 615.818 452.345 615.777 452.322C613.498 451.053 612.133 448.394 611.112 446.091C609.305 442.012 605.978 432.582 607.632 428.293Z"/>
	<path fill="#010101" d="M860.758 359.712C861.975 359.836 862.664 359.929 863.685 360.624C866.054 364.098 862.97 368.32 863.606 372.137C865.493 373.13 866.874 371.54 868.763 372.527L868.82 373.986C867.037 378.231 862.086 382.185 858.824 385.436C858.661 385.5 858.505 385.586 858.335 385.628C856.886 385.988 856.206 386.018 854.885 385.292C853.443 384.499 852.141 382.507 851.659 380.975C851.198 379.506 851.096 377.879 851.941 376.526C852.39 375.807 852.78 375.92 853.547 375.734C854.925 376.188 855.857 376.673 857.319 376.388C859.198 371.015 858.132 364.8 860.758 359.712Z"/>
	<path fill="#010101" d="M422.292 434.282C422.759 434.456 423.78 434.747 424.208 435.079C425.129 435.794 424.98 436.321 425.002 437.375C421.961 443.102 416.293 448.658 412.295 453.862C408.344 459.006 404.925 464.837 400.419 469.501C400.262 469.429 400.102 469.362 399.948 469.285C398.598 468.614 397.891 468.244 397.395 466.84C399.008 460.718 417.118 438.106 422.292 434.282Z"/>
	<path fill="#010101" d="M110.924 445.287C111.332 445.29 111.861 445.277 112.253 445.367C113.507 445.655 113.781 445.986 114.479 446.964C114.525 448.113 114.448 448.663 113.803 449.638C109.94 455.479 105.032 460.943 100.909 466.648C95.9816 473.467 91.4998 481.276 85.9077 487.518L84.2919 487.329C83.4202 486.489 82.8609 486.119 82.8719 484.786C82.9115 479.988 106.115 450.407 110.924 445.287Z"/>
	<path fill="#010101" d="M418.23 415.348L420.474 415.644C421.61 416.489 421.553 416.436 421.814 417.832C420.481 422.627 411.357 431.045 407.683 435.274C398.934 445.345 391.376 456.613 383.546 467.403C383.246 467.444 382.948 467.525 382.645 467.526C381.434 467.53 381.021 467.131 380.179 466.389C380.056 465.863 379.938 465.518 380.002 464.945C380.519 460.279 412.155 420.127 418.23 415.348Z"/>
	<path fill="#010101" d="M565.685 526.168C565.955 526.128 566.223 526.076 566.494 526.049C568.466 525.854 569.399 526.614 570.879 527.733C571.112 528.504 571.349 528.519 570.968 529.07C570.06 530.382 567.778 530.958 566.309 531.335C558.825 533.255 550.784 533.987 543.147 535.166C532.533 536.805 521.816 538.798 511.376 541.299C510.642 541.349 509.967 541.353 509.24 541.208C508.138 540.989 507.103 540.361 506.5 539.403C506.079 538.736 506.308 538.427 506.431 537.704C507.126 536.767 507.68 536.295 508.809 535.936C514.755 534.041 521.656 533.444 527.838 532.417L565.685 526.168Z"/>
	<path fill="#010101" d="M113.287 577.147C114.8 577.122 115.153 577.074 116.457 577.8C117.075 579.118 117.039 579.062 116.617 580.461C115.593 581.463 114.81 581.87 113.418 582.227C105.312 584.308 96.7514 585.421 88.5138 586.956Q68.2187 590.72 48.1172 595.41C47.7255 595.452 47.1061 595.537 46.7272 595.485C45.4274 595.308 45.0648 594.617 44.2811 593.682C44.0498 592.364 44.0627 592.332 44.6809 591.143C48.9751 587.967 105.227 578.547 113.287 577.147Z"/>
	<path fill="#010101" d="M99.4907 428.793C99.6837 428.799 99.8791 428.778 100.07 428.809C101.569 429.052 101.904 429.262 102.865 430.34C103.195 434.161 95.2898 441.878 92.7366 445.015C82.6688 457.386 74.0437 470.609 65.631 484.141C62.3967 489.343 59.7263 495.071 56.1239 500.01L54.2403 500.002C53.2455 499.344 52.7645 499.119 52.5793 497.816C51.9074 493.091 79.5111 453.174 83.761 447.535C88.6456 441.053 93.8498 434.631 99.4907 428.793Z"/>
	<path fill="#010101" d="M811.769 412.444C812.113 412.41 812.484 412.356 812.829 412.402C813.993 412.556 814.77 412.921 815.357 413.996C816.318 415.751 816.317 435.255 815.812 438.492C815.478 440.633 814.697 442.702 812.795 443.921C811.123 444.994 809.03 445.094 807.133 444.687C804.967 444.223 802.285 442.868 801.313 440.744C800.779 439.576 801.052 439.123 801.557 438.092C804.136 436.144 806.533 436.219 809.594 436.546L810.452 436.642C810.537 431.146 810.434 425.641 810.4 420.145C806.969 421.455 803.854 422.867 800.714 424.775C800.121 430.309 801.182 438.698 799.358 443.645C798.798 445.162 797.894 446.308 796.36 446.929C794.274 447.772 790.939 447.343 788.979 446.33C787.678 445.659 787.151 444.882 786.669 443.514C786.74 442.799 786.621 442.063 787.13 441.511C788.611 439.903 792.526 440.348 794.648 440.152C795.809 434.922 795.007 427.884 795.029 422.41C799.462 418.342 806.448 415.419 811.769 412.444Z"/>
	<path fill="#010101" d="M101.753 213.694C102.849 213.85 103.871 214.127 104.802 214.745C111.049 218.892 116.875 225.452 122.392 230.601C151.488 257.756 172.955 286.115 179.954 326.309C181.207 333.51 182.322 340.922 182.74 348.219C183.369 359.189 182.939 370.235 183.607 381.212C184.582 397.233 186.047 413.22 186.934 429.251C188.399 455.746 189.344 482.618 191.983 509.012C192.172 510.9 192.857 513.818 191.37 515.321C190.474 516.227 189.984 516.386 188.82 516.304C187.491 515.159 187.134 513.848 186.816 512.17C185.22 503.742 185.252 491.644 184.511 482.681Q181.604 445.638 179.58 408.537C178.908 397.333 178.652 386.012 177.564 374.848C163.278 376.265 149.014 378.317 134.773 380.133Q108.811 383.292 82.9041 386.88C75.7806 387.904 42.4123 393.715 38.2728 393.285C36.7909 393.131 36.0386 391.801 35.1008 390.775C35.3972 390.298 35.7571 389.611 36.1537 389.192C36.2523 389.088 37.1215 388.276 37.3457 388.171C40.9271 386.488 56.7806 385.035 61.5391 384.337C100.322 378.648 139.133 373.925 178.019 369.026Q177.847 360.491 177.445 351.964Q136.269 356.297 95.4651 363.321Q78.5225 366.198 61.5097 368.626C55.6226 369.524 49.6456 370.747 43.7231 371.269C41.8883 371.43 39.5713 371.828 38.1206 370.597C38.2596 369.845 38.1715 369.692 38.6089 369.15C39.5451 367.99 41.1424 367.194 42.5776 366.939C86.9301 359.047 131.906 351.365 176.703 346.539C174.137 304.447 155.609 270.198 125.504 241.461C120.595 236.775 103.362 221.794 100.627 217.584C100.548 215.765 100.934 215.279 101.753 213.694Z"/>
	<path fill="#010101" d="M817.274 170.465C818.088 170.481 819.023 170.511 819.749 170.953C820.819 171.604 820.945 172.164 821.1 173.274C820.715 174.413 820.081 174.998 819.115 175.662C816.357 177.559 813.132 178.894 810.265 180.65C803.852 184.578 797.818 189.357 792.253 194.399C762.482 221.368 746.441 256.643 744.441 296.612C765.981 296.111 787.452 292 809.01 291.371C808.836 284.578 812.329 276.844 816.31 271.438C825.805 258.543 839.823 255.542 854.778 253.384C854.793 246.116 854.084 238.791 853.654 231.535C852.829 217.64 851.952 203.645 851.508 189.736C851.429 187.276 851.128 184.735 852.881 182.855C854.351 182.549 854.634 182.557 856.065 183.009C856.982 184.028 857.121 185.013 857.322 186.326C858.458 193.762 858.042 202.071 858.368 209.634C858.997 224.241 859.974 238.702 860.067 253.343C870.555 254.042 878.747 254.27 888.337 259.262C898.434 264.518 904.962 272.308 908.362 283.133C928.894 282.272 949.37 280.367 969.911 279.574C974.986 279.378 980.278 278.254 985.328 278.568C986.991 278.672 987.588 278.947 988.717 280.161C988.977 281.51 989.063 281.699 988.542 282.949C987.362 283.775 986.367 284.105 984.932 284.296C982.643 284.6 980.27 284.43 977.963 284.56Q967.354 285.25 956.735 285.748Q932.915 287.117 909.119 288.851C908.793 290.747 908.533 292.382 907.026 293.74C897.495 302.335 861.431 303.818 848.364 303.322C840.045 303.006 821.154 301.701 814.117 298.752C812.98 298.276 812.113 297.279 811.293 296.392C801.051 297.816 790.545 298.368 780.234 299.282C768.275 300.341 756.247 301.751 744.244 302.041C744.077 307.053 743.563 312.618 744.519 317.551C745.733 318.396 747.703 317.95 749.122 317.861C792.978 314.012 836.959 311.225 880.846 307.688Q912.585 305.15 944.351 302.977C953.298 302.363 962.485 301.114 971.422 301.01C973.645 300.985 975.71 301.041 977.576 302.374C978.132 303.579 978.02 303.672 977.715 304.985C976.737 306.052 975.942 306.474 974.525 306.675C966.616 307.801 958.23 307.883 950.238 308.44L900.562 311.931L744.324 323.886C744.076 333.516 744.594 343.233 744.904 352.862Q745.855 382.246 747.267 411.612C747.586 419.845 748.419 428.356 748.233 436.563C748.194 438.306 748.172 440.351 746.827 441.624L745.745 441.504C745.039 440.933 744.209 440.346 743.865 439.463C742.369 435.631 742.251 419.155 741.967 413.867Q739.795 376.517 738.751 339.118C738.382 324.764 737.862 310.056 738.744 295.73Q739 290.804 739.554 285.903Q740.109 281.002 740.958 276.143Q741.808 271.285 742.951 266.486Q744.094 261.688 745.525 256.968C757.242 218.981 782.217 189.042 817.274 170.465Z"/>
	<path fill="#FEFEFE" d="M857.702 259.282C868.312 269.795 865.058 285.28 868.049 289.425L869.442 289.631C870.647 289.051 870.844 288.88 871.359 287.548C874.006 280.709 867.097 264.715 863.675 258.653C871.535 263.918 876.704 269.958 879.646 279.06C880.475 281.623 880.699 284.34 881.826 286.794C882.956 287.599 882.866 287.573 884.239 287.371C885.28 286.4 885.698 285.937 885.802 284.469C886.282 277.692 877.851 264.475 873.456 259.535C880.529 261.501 886.42 264.705 892.296 269.056C893.088 269.666 893.845 270.281 894.557 270.985C898.059 274.45 902.837 281.344 902.797 286.391C902.23 287.979 901.124 288.772 899.664 289.523C883.098 298.058 836.095 297.979 818.177 291.162C816.743 290.616 815.108 289.843 814.637 288.254C813.717 285.147 816.644 280.119 818.217 277.471C823.85 267.985 831.217 263.885 841.661 261.186C838.399 266.634 830.989 282.102 833.455 288.46C834.01 289.892 834.363 290.006 835.66 290.634L836.629 290.089C838.117 287.076 838.245 283.368 838.92 280.091C840.506 272.402 843.998 264.666 850.745 260.241L851.288 259.892L852.106 260.071C852.387 262.453 851.103 265.301 850.606 267.65C849.34 273.637 847.509 281.965 848.635 288.04C848.881 289.37 849.177 289.911 850.243 290.704L851.422 290.42C852.181 289.539 852.738 288.763 852.974 287.598C853.692 284.067 853.337 280.228 853.841 276.628C854.657 270.801 856.304 264.994 857.702 259.282Z"/>
	<path fill="#010101" d="M614.999 175.73C633.757 175.284 653.357 179.025 669.304 189.23C696.696 206.762 710.059 236.819 716.674 267.568C718.66 276.803 719.703 286.183 720.567 295.58C721.803 309.022 722.45 322.542 723.344 336.013Q725.592 367.438 727.3 398.898C727.978 411.87 729.888 425.136 729.804 438.094C729.795 439.438 729.72 440.587 728.972 441.741C727.79 442.292 727.713 442.329 726.435 442.094C725.348 441.002 724.93 440.061 724.734 438.549C723.183 426.593 722.784 414.154 721.883 402.109L716.414 325.652C690.924 328.48 665.217 329.643 639.682 331.988C628.898 332.978 618.148 334.48 607.38 335.644Q584.529 338.085 561.621 339.921L510.886 344.044C511.171 383.27 515.014 422.559 516.939 461.75C517.557 474.328 518.75 487.237 518.525 499.819C518.492 501.634 518.335 503.908 517.347 505.486C516.798 506.363 517.097 506.055 515.948 506.345C515.798 506.239 515.632 506.154 515.498 506.029C514.141 504.768 513.681 502.189 513.433 500.43C512.785 495.843 512.952 490.903 512.752 486.258Q512.228 475.512 511.409 464.785C509.266 433.413 507.224 401.916 505.737 370.506C505.082 356.675 504.955 342.833 504.622 328.992C504.087 306.686 502.006 273.443 508.758 252.315C512.618 240.238 520.229 229.164 528.724 219.888C551.141 195.412 581.236 177.247 614.999 175.73Z"/>
	<path fill="#FEFEFE" d="M711.838 304.703C712.814 304.494 713.437 304.551 714.414 304.741C716.631 307.425 716.107 316.34 716.332 319.884C698.303 321.854 680.172 323.121 662.119 324.894L658.867 325.006C659.907 324.461 659.451 324.646 660.497 324.294C662.938 323.472 666.43 322.352 667.787 319.984C669.612 316.8 667.491 311.851 666.606 308.521C681.579 308.308 696.959 306.378 711.838 304.703Z"/>
	<path fill="#FEFEFE" d="M564.662 317.202C565.348 317.082 566.051 317.148 566.746 317.16C567.911 319.607 565.824 322.863 567.433 325.677C570.249 330.605 585.289 329.937 590.611 331.207C590.776 331.247 590.94 331.29 591.105 331.332C584.241 332.347 577.213 332.662 570.297 333.215L537.621 335.902L510.972 338.165Q510.533 329.963 510.428 321.749C528.446 320.862 546.74 319.251 564.662 317.202Z"/>
	<path fill="#FEFEFE" d="M618.584 285.195C619.634 285.294 620.366 285.362 621.189 286.077C626.79 290.943 624.786 306.84 625.951 313.786C626.18 315.154 626.412 315.766 627.535 316.555C628.242 316.361 628.781 316.403 629.228 315.763C632.704 310.789 628.29 292.271 627.305 286.102L628.145 285.891C641.697 289.547 640.472 305.665 646.291 311.403C647.152 312.252 647.414 312.193 648.553 312.221C649.149 311.716 649.489 311.619 649.681 310.806C651.018 305.124 642.672 292.602 639.684 287.872C641.891 288.725 644.14 289.66 646.119 290.967C654.822 296.717 660.05 307.255 662.074 317.238C649.464 324.105 632.413 324.659 618.285 324.997C611.117 325.015 578.095 325.77 573.71 321.629C572.723 317.325 576.395 309.755 578.629 306.066C584.119 297.001 591.353 291.319 601.682 288.817C598.081 295.34 594.041 303.39 593.413 310.923C593.275 312.571 593.441 313.545 594.51 314.801L595.697 314.85C596.121 314.596 596.644 314.461 596.968 314.087C598.924 311.83 601.285 300.292 603.044 296.484C604.542 293.238 606.728 288.763 610.329 287.593C611.263 287.29 610.891 287.268 611.672 287.644C612.043 289.724 610.828 292.261 610.536 294.381C609.851 299.354 608.719 311.003 610.198 315.562C610.617 316.854 610.986 317.221 612.16 317.837C615.536 316.366 614.724 292.943 618.355 285.634C618.429 285.487 618.508 285.342 618.584 285.195Z"/>
	<path fill="#FEFEFE" d="M617.598 181.744C620.755 181.793 623.938 182.046 627.083 182.334C650.773 184.507 670.007 193.011 685.37 211.654C701.654 231.414 709.421 256.965 713.07 281.936C713.842 287.22 715.097 293.138 714.591 298.469C713.687 299.468 712.916 299.244 711.624 299.374C704.69 299.624 697.651 300.519 690.73 301.085C681.957 301.802 673.09 302.264 664.372 303.448C661.953 299.236 659.394 295.018 656.081 291.44C647.52 282.194 636.502 281.058 624.596 280.518C623.103 268.89 622.803 256.895 622.023 245.194Q619.974 213.458 617.598 181.744Z"/>
	<path fill="#FEFEFE" d="M608.365 182.179L612.755 181.788Q615.722 231.109 619.624 280.366C610.738 280.959 600.738 282.632 592.548 286.149C581.299 290.981 573.737 300.255 569.208 311.402L520.621 315.332L509.986 316.129C509.189 290.195 507.369 257.096 523.618 235.388C544.036 208.11 574.187 186.954 608.365 182.179Z"/>
	<path fill="#010101" d="M363.338 187.209C365.063 186.985 366.906 186.993 368.645 186.947C375.883 186.757 383.143 187.836 390.284 188.902C409.294 191.738 425.929 196.029 440.141 209.752C457.345 226.364 469.868 249.412 477.079 272.041C484.319 294.756 486.766 320.662 489.349 344.347Q495.679 403.542 498.796 462.993L500.549 491.823C500.839 495.998 501.772 500.941 501.517 505.05C501.421 506.601 500.854 507.033 499.746 508.035C498.939 508.118 498.595 508.353 497.898 507.826C495.627 506.109 495.042 502.012 494.757 499.386C494.044 492.811 493.972 486.041 493.635 479.432L491.776 443.87Q489.255 394.848 483.568 346.092C467.49 346.909 451.254 347.626 435.231 349.172C436.269 352.156 437.76 355.604 437.908 358.774C437.953 359.743 437.878 361.016 437.159 361.724C430.451 368.318 388.734 370.616 378.376 371.18C358.587 372.612 336.668 372.018 317.15 368.115L316.945 361.847C288.768 364.24 260.5 364.937 232.393 368.343C232.403 382.93 233.574 397.552 234.468 412.109L238.016 468.249C238.479 474.724 241.48 498.943 240.496 503.638C240.237 504.876 239.934 505.335 238.875 505.969C237.937 505.878 237.511 505.631 236.797 505.052C235.023 503.615 234.992 500.407 234.79 498.23C232.511 473.738 231.269 449.007 229.581 424.458C224.948 357.058 220.955 286.759 267.253 231.504C291.526 202.534 326.686 190.403 363.338 187.209Z"/>
	<path fill="#FEFEFE" d="M473.986 324.3L480.821 323.704Q481.8 332.063 482.674 340.433C466.021 340.608 449.25 342.604 432.575 343.176C429.477 338.957 427.574 333.182 424.404 328.619C440.868 328.009 457.574 325.948 473.986 324.3Z"/>
	<path fill="#FEFEFE" d="M325.154 338.272L325.297 338.336L325.531 338.966C322.212 344.106 319.794 350.117 318.117 355.982C304.681 357.313 291.073 357.724 277.595 358.683Q255.231 360.306 233.001 363.245C231.274 360.924 232.892 349.479 233.077 346.222Q279.073 341.759 325.154 338.272Z"/>
	<path fill="#FEFEFE" d="M386.329 320.257L386.938 320.322C388.823 320.509 390.58 320.642 392.302 321.5C401.127 325.895 402.889 335.873 405.636 344.354C406.122 345.856 406.451 347.219 407.89 347.962L409.104 347.568C410.027 346.583 410.329 345.876 410.355 344.54C410.518 336.38 405.684 325.756 399.997 320.105C402.492 320.926 404.972 321.819 407.345 322.953C420.985 329.468 427.26 344.313 431.965 357.689C416.1 363.083 398.02 363.922 381.376 364.712Q374.097 365.274 366.797 365.44Q359.498 365.606 352.201 365.375Q344.904 365.145 337.629 364.518Q330.355 363.891 323.126 362.87C324.466 356.857 326.015 351.346 329.159 346.002C336.307 333.855 345.817 326.337 359.394 322.784C355.296 329.613 350.495 341.34 351.697 349.519C351.88 350.768 352.111 351.234 353.129 351.944C354.381 351.613 354.753 351.594 355.526 350.455C358.835 345.581 357.764 333.748 364.559 324.752C366.051 322.776 367.891 320.87 370.435 320.484C371.601 321.102 371.923 321.678 372.095 323.035C373.09 330.881 367.606 343.964 371.262 352.683C372.354 353.65 372.257 353.669 373.704 353.616L374.07 353.161L373.814 352.812L373.852 353.21C375.331 350.718 375.36 336.847 375.842 332.907Q376.575 326.477 378.03 320.171C378.803 320.329 379.569 320.569 380.331 320.774C381.285 321.637 381.702 322.202 382.161 323.412C383.36 326.574 385.078 329.259 385.782 332.629C386.82 337.597 385.459 351.05 388.875 354.243L389.742 353.951C390.469 352.944 390.928 352.105 391.248 350.893C393.574 342.057 391.031 328.076 386.329 320.257Z"/>
	<path fill="#FEFEFE" d="M374.573 193.425C379.953 193.344 385.452 194.336 390.758 195.147C405.116 197.339 417.498 199.92 429.453 208.707C438.347 215.243 444.98 223.678 451.091 232.768C469.945 260.811 475.392 284.733 480.264 317.401L473.458 318.155Q446.368 321.192 419.168 322.984L418.839 322.722C407.554 313.883 396.174 313.643 382.464 315.225C382.587 304.211 381.454 292.936 380.73 281.944C378.791 252.488 375.594 222.901 374.573 193.425Z"/>
	<path fill="#FEFEFE" d="M359.963 193.701C363.085 193.253 366.496 193.433 369.66 193.372C370.52 219.742 372.455 246.157 374.276 272.478C375.259 286.68 376.995 301.274 376.667 315.506C354.484 318.097 348.409 315.234 330.876 331.877Q290.336 335.037 249.88 339.138C244.382 339.733 238.894 340.094 233.461 341.177C235.544 302.401 245.535 268.49 270.182 237.909C293.082 209.497 324.566 197.515 359.963 193.701Z"/>
	<path fill="#010101" d="M665.4 410.57C669.159 410.422 672.365 411.235 675.586 413.217C680.533 416.262 684.326 422.256 683.333 428.26C682.954 430.553 681.651 432.816 681.945 435.181C682.291 437.963 684.73 440.607 685.291 443.459C685.459 444.318 685.332 445.308 684.724 445.964C682.146 448.742 675.687 448.446 672.206 448.352C675.75 450.804 685.523 454.277 687.699 456.812C690.917 460.562 692.054 467.599 694.306 472.115C696.631 476.775 699.511 481.238 702.195 485.702C706.736 481.073 710.98 476.154 715.481 471.486C718.36 468.5 721.679 465.858 724.347 462.691C724.169 461.292 723.867 460.161 724.651 458.89C725.483 458.474 726.825 457.958 727.486 457.334C730.42 454.569 732.65 445.573 738.507 444.556C739.789 444.333 740.651 444.676 741.627 445.488C744.688 448.033 744.641 456.792 744.882 460.504C742.896 464.26 740.577 466.25 736.841 468.247C734.048 475.174 729.338 481.366 724.871 487.307C721.148 492.258 716.853 498.687 711.532 501.957C703.949 506.617 687.508 498.318 679.521 504.959C679.322 505.426 678.994 505.858 678.922 506.361C678.636 508.361 683.146 516.774 684.013 519.262C684.675 521.161 685.068 523.199 685.485 525.165C686.628 524.201 687.788 523.195 689.237 522.733C693.208 521.466 697.709 520.984 701.794 520.056C708.348 518.567 714.844 516.678 721.329 514.907L721.926 514.196C722.656 513.314 723.355 512.417 724.491 512.033C727.076 511.158 731.102 511.506 733.903 511.132C737.417 510.664 740.919 509.64 744.344 508.735Q742.543 504.786 740.469 500.973Q740.599 495.598 740.944 490.232C741.572 490.059 742.18 489.899 742.821 489.775C745.522 489.254 750.455 487.965 752.753 489.933C755.318 492.128 754.566 498.87 754.564 502.063C753.755 502.88 752.872 503.709 752.176 504.624C751.392 505.656 751.001 506.475 751.108 507.754C755.449 509.602 780.826 501.944 786.949 500.667C786.886 498.226 786.283 494.338 787.988 492.482C788.243 492.423 788.494 492.344 788.752 492.305C791.581 491.872 794.2 494.898 799.444 494.379C802.967 494.03 812.014 490.574 814.726 492.163C814.864 493.506 815.037 494.627 815.451 495.924C817.918 498.335 853.842 500.64 859.978 501.409L852.791 485.863L851.544 485.231C848.656 483.788 846.21 482.254 843.968 479.888C839.469 475.141 833.582 463.941 833.906 457.363C833.964 456.175 834.271 454.813 835.313 454.103C839.259 451.414 848.841 453.36 853.238 454.402C858.223 455.584 863.337 458.141 865.951 462.759C868.224 466.776 867.558 470.587 866.42 474.814C869.176 478.393 871.664 482.146 874.179 485.896C878.502 480.553 882.936 475.322 886.28 469.288C883.273 466.258 880.701 463.118 878.687 459.331C876.337 454.912 875.106 449.631 876.745 444.756C878.174 440.506 881.742 437.281 885.689 435.356Q886.22 435.097 886.763 434.866Q887.307 434.635 887.861 434.432Q888.416 434.228 888.98 434.054Q889.545 433.88 890.117 433.734Q890.69 433.589 891.269 433.473Q891.848 433.358 892.432 433.272Q893.017 433.186 893.605 433.13Q894.193 433.074 894.783 433.049Q895.373 433.023 895.963 433.028Q896.554 433.033 897.144 433.068Q897.733 433.103 898.32 433.168Q898.907 433.233 899.49 433.328Q900.073 433.423 900.65 433.548Q901.228 433.673 901.798 433.827Q902.368 433.981 902.929 434.165Q903.491 434.348 904.042 434.56C908.606 436.306 912.477 439.542 914.327 444.138C916.553 449.668 915.593 454.547 913.324 459.769C919.052 460.78 932.563 462.405 936.454 466.612C939.562 469.974 939.38 513.658 939.473 521.258Q940.757 520.941 942.048 520.656C948.231 519.311 972.577 513.668 977.255 517.169C977.896 517.648 977.961 518.2 978.061 518.977C978.772 524.469 974.923 548.968 973.965 556.117L966.863 611.371Q964.751 627.993 962.866 644.642C962.179 650.66 961.776 656.847 960.735 662.806C960.394 664.759 959.644 667.356 958.096 668.724C957.064 669.636 956.04 670.172 954.626 670.066C952.236 669.888 950.656 668.035 949.031 666.487C948.9 649.643 950.142 632.714 951.221 615.914C945.831 617.135 940.524 618.632 935.202 620.113C935.538 620.422 935.874 620.732 936.187 621.065C937.832 622.815 937.906 624.51 937.734 626.828C937.29 627.343 937.379 627.443 936.821 627.566C934.378 628.104 930.186 624.629 927.868 623.41C927.264 629.144 927.284 655.599 924.354 658.695C923.527 659.57 922.173 660.106 920.973 660.078C919.364 660.041 917.664 659.181 916.585 658.01C912.358 653.421 916.314 631.916 916.631 624.969L909.317 626.551L908.53 659.598C908.422 665.219 908.75 671.003 908.19 676.591C908.021 678.279 907.823 680.284 906.737 681.667C905.976 682.635 904.932 683.181 903.692 683.171C902.31 683.16 900.935 682.464 899.922 681.554C898.301 680.098 897.378 677.934 897.057 675.809C896.279 670.646 897.277 664.084 897.343 658.787Q897.414 642.093 897.057 625.403C894.282 624.32 891.363 623.476 888.53 622.547C887.619 628.678 887.473 635.057 886.929 641.245C886.334 648.016 885.313 654.716 884.234 661.424C883.013 662.879 881.478 664.277 879.825 665.22C878.488 665.982 876.935 666.425 875.434 665.83C871.229 664.164 868.724 653.836 867.16 649.646C865.471 645.121 864.024 640.503 862.521 635.913C862.48 641.533 863.013 675.464 860.478 677.911C859.469 678.884 858.076 679.252 856.707 679.29C854.731 679.345 853.109 678.626 851.689 677.285C850.531 676.191 849.772 674.905 849.477 673.329C848.98 670.67 849.481 667.463 849.493 664.727L849.533 642.518C845.665 638.744 842.185 634.076 838.667 629.945C833.361 635.372 820.6 655.362 815.06 657.264C812.85 658.022 810.663 657.825 808.639 656.683C806.459 655.453 804.525 653.486 803.979 650.971C803.62 649.317 804.045 647.868 804.572 646.31C808.509 634.659 814.726 623.305 819.848 612.109C822.602 606.091 824.542 599.994 827.675 594.066C831.307 587.195 835.558 580.779 839.882 574.334Q818.429 579.49 797.034 584.879C797.476 599.105 799.497 707.059 797.114 710.731C795.612 713.044 791.676 714.032 789.11 714.289C785.213 714.679 778.539 714.579 775.722 711.516C774.324 709.996 774.239 707.08 774.11 705.103C773.311 692.785 773.969 680.001 773.942 667.635C773.911 653.327 773.402 639.008 773.402 624.713C773.402 611.496 773.766 598.354 773.489 585.127Q758.795 581.586 744.032 578.345C743.683 587.08 744.537 646.017 742.812 648.255C741.795 649.574 740.211 649.914 738.648 650.159C736.314 650.525 733.309 650.563 731.47 648.813C730.485 647.876 730.24 646.738 730.072 645.456C729.238 639.105 729.963 631.916 730.051 625.49L730.497 589.288Q706.978 593.073 683.523 597.233Q683.482 615.464 683.73 633.693C683.826 639.682 684.534 645.996 684.103 651.956C684.029 652.981 683.796 653.891 683.087 654.686C681.735 656.203 679.367 656.567 677.446 656.569C675.699 656.57 672.922 656.364 671.665 655.038C670.474 653.78 670.138 651.881 669.961 650.218C669.451 645.438 670.024 640.309 669.958 635.487Q669.536 617.256 669.482 599.021L663.342 599.765C663.475 609.796 663.934 662.723 661.405 668.311C657.719 671.281 652.025 671.098 647.548 672.218L647 672.359C644.308 670.919 641.947 669.496 639.62 667.499C638.963 659.27 639.589 650.58 639.621 642.307Q639.704 618.779 639.369 595.254C632.978 593.97 626.65 592.406 620.312 590.88C619.768 603.671 619.85 616.669 619.858 629.475C619.861 635.336 620.331 641.581 619.783 647.408C619.63 649.026 619.579 649.66 618.553 650.898C616.621 651.77 614.814 652.064 612.689 652.009C610.561 651.954 608.09 651.537 606.709 649.735C605.937 648.727 605.603 647.43 605.503 646.183C605.257 643.104 605.642 639.79 605.628 636.673Q605.57 624.747 605.381 612.823Q605.043 584.222 602.051 555.777C600.535 541.316 598.747 526.843 596.986 512.41C596.046 504.702 593.453 495.567 594.639 487.87C595.453 482.585 598.098 477.511 602.484 474.372C613.807 466.267 633.484 463.734 646.902 466.035C650.585 460.811 655.167 458.049 661.288 456.552C660.444 453.443 660.104 450.413 660.237 447.194L660.891 447.247L660.777 446.835L660.018 446.983C657.889 445.451 656.14 443.988 654.43 441.987L653.968 441.435C649.964 442.006 646.871 441.976 643.353 439.733C640.501 437.915 638.265 435.01 637.658 431.64C637.249 429.37 637.74 427.122 639.178 425.302C641.496 422.369 644.838 421.691 648.35 421.243C653.373 416.246 658.518 412.48 665.4 410.57Z"/>
	<path fill="#FEFEFE" d="M795.118 539.28C796.685 539.488 797.248 539.26 798.26 540.53C798.93 543.114 798.096 545.828 797.605 548.404C796.669 548.495 797.141 548.585 796.227 547.988C795.33 545.169 795.305 542.213 795.118 539.28Z"/>
	<path fill="#FEFEFE" d="M802.219 550.161C804.711 550.405 807.127 550.244 809.618 550.234C810.81 550.23 812.031 550.247 812.907 551.101L811.509 552.846C809.916 552.604 808.624 552.462 807.035 552.828C806.701 552.905 805.964 553.094 805.62 553.139C804.263 553.314 803.427 553.387 802.391 552.502L802.219 550.161Z"/>
	<path fill="#FEFEFE" d="M797.016 507.576C797.165 507.618 797.317 507.65 797.462 507.703C798.378 508.042 798.928 508.54 799.361 509.422C800.187 511.106 800.763 513.383 800.103 515.163L799.304 514.931C798.387 515.408 797.772 515.698 796.733 515.766L795.85 514.975C795.424 512.527 796.408 509.946 797.016 507.576Z"/>
	<path fill="#FEFEFE" d="M724.817 519.981L725.28 520.432C725.801 523.072 725.782 524.9 724.552 527.335C723.296 528.132 723.128 527.909 721.633 527.668L719.548 522.639L724.817 519.981Z"/>
	<path fill="#FEFEFE" d="M786.529 508.604C787.429 508.637 787.983 508.915 788.766 509.351C790.28 510.192 790.855 511.117 791.313 512.741C791.177 512.872 791.06 513.026 790.905 513.133C788.865 514.555 782.675 512.89 780.384 512.461C777.483 512.058 774.524 511.86 771.606 511.582C776.637 510.75 781.587 509.886 786.529 508.604Z"/>
	<path fill="#FEFEFE" d="M905.442 558.122L906.523 557.978L907.042 558.456C906.821 560.43 906.699 562.579 906.063 564.467C905.646 565.706 905.189 566.841 904.01 567.457L902.66 565.934C900.887 563.921 898.985 562.021 897.116 560.096L905.442 558.122Z"/>
	<path fill="#FEFEFE" d="M959.142 613.223L959.983 613.778C960.64 617.392 956.416 659.366 955.175 664.575L954.549 664.24C954.139 662.884 954.251 661.744 954.303 660.357C954.469 655.9 956.708 615.956 957.827 614.443C958.183 613.963 958.704 613.63 959.142 613.223Z"/>
	<path fill="#FEFEFE" d="M677.137 597.746C677.222 597.817 677.321 597.873 677.391 597.959C677.404 597.975 678.053 598.95 678.066 598.996C678.592 600.742 678.829 645.364 678.449 649.351C678.309 650.825 678.249 650.846 677.143 651.722C676.497 650.892 676.247 650.537 676.038 649.491C675.083 644.715 674.775 603.831 675.229 598.765L677.137 597.746Z"/>
	<path fill="#FEFEFE" d="M735.341 588.07L737.71 588.632C739.254 592.018 738.327 638.151 738.284 645.01C737.226 644.921 736.603 644.811 735.678 644.28C734.454 640.305 735.551 596.602 735.341 588.07Z"/>
	<path fill="#FEFEFE" d="M610.402 587.814C611.788 588.428 613.119 589.099 614.457 589.81C613.175 608.592 615.32 627.69 613.706 646.382L613.073 646.982L612.132 646.747C610.663 644.417 610.4 594.183 610.402 587.814Z"/>
	<path fill="#FEFEFE" d="M654.576 560.219L656.251 560.975C658.422 565.076 657.456 653.537 657.07 664.861C656.135 664.902 656.632 664.982 655.613 664.468C655.145 662.939 653.938 567.226 654.576 560.219Z"/>
	<path fill="#FEFEFE" d="M839.832 458.45C842.441 458.574 846.951 458.25 849.131 459.777C849.817 460.257 849.853 461.538 850.029 462.331C851.008 463.281 851.547 463.453 852.882 463.686C854.524 463.328 855.211 462.309 856.265 461.102L856.732 460.558L857.703 460.543C857.896 460.73 858.094 460.912 858.282 461.104C860.727 463.61 861.301 467.393 861.335 470.731C860.959 472.187 860.765 473.805 859.659 474.895C856.61 475.717 852.943 477.134 849.896 475.706C844.604 473.227 841.744 463.566 839.832 458.45Z"/>
	<path fill="#FEFEFE" d="M676.152 424.186L677.185 424.534C677.45 425.21 677.573 425.45 677.721 426.217C678.518 430.341 675.712 429.147 674.162 431.4C674.922 432.162 675.654 432.665 676.576 433.218C677.291 436.342 678.251 439.403 679.162 442.474C673.155 442.596 667.539 442.74 661.644 441.35L661.214 440.818C661.878 440.248 662.211 439.817 662.608 439.038C661.955 436.963 660.065 436.529 658.946 434.806C658.39 433.951 658.555 432.826 658.95 431.947C659.488 430.748 659.895 430.618 661.043 430.307C662.363 430.853 663.429 431.508 664.602 432.319C665.564 430.614 664.285 429.366 666.265 425.497C669.55 424.964 672.847 424.575 676.152 424.186Z"/>
	<path fill="#FEFEFE" d="M676.557 460.434L677.184 460.455C679.986 460.572 681.749 460.941 683.646 463.128C687.913 468.051 687.457 477.276 686.927 483.359L679.9 482.563C677.584 482.522 675.31 482.179 673.016 481.879C671.342 476.49 669.703 468.882 669.763 463.301C670.912 462.008 673.593 463.129 676.15 460.812C676.287 460.688 676.421 460.56 676.557 460.434Z"/>
	<path fill="#FEFEFE" d="M825.249 613.718C829.206 616.213 832.529 621.402 835.19 625.14C829.113 633.344 822.268 641.172 815.88 649.158Q815.537 649.596 815.179 650.022C813.945 651.48 812.959 652.257 810.976 652.439C810.458 652.055 810.355 652.124 810.179 651.562C808.921 647.552 822.75 619.248 825.249 613.718Z"/>
	<path fill="#FEFEFE" d="M789.729 586.138L791.732 586.644C791.852 586.914 792.011 587.169 792.092 587.453C792.829 590.034 792.313 607.435 792.358 611.324C792.722 642.617 793.325 674.006 793.176 705.294C793.171 706.457 793.019 706.957 792.5 707.966C791.401 707.938 790.96 708.008 789.995 707.428C789.343 701.566 789.831 695.352 789.879 689.435C789.952 680.287 789.841 671.116 789.78 661.966C789.618 637.941 788.355 613.72 788.811 589.72C788.838 588.258 788.9 587.373 789.729 586.138Z"/>
	<path fill="#FEFEFE" d="M863.52 615.415L882.476 620.851C882.423 632.687 881.718 645.785 879.562 657.4C879.123 658.416 878.94 658.971 877.957 659.533L876.97 659.137C873.843 653.606 866.201 630.063 864.573 623.238C863.959 620.663 863.741 618.047 863.52 615.415Z"/>
	<path fill="#FEFEFE" d="M897.057 592.599C898.152 592.445 898.061 592.349 899.172 592.832C899.719 598.025 897.342 612.289 896.509 617.927C889.33 615.558 882.178 613.126 874.848 611.26C871.357 610.211 867.742 609.525 864.182 608.751C874.712 598.694 883.143 595.894 897.057 592.599Z"/>
	<path fill="#FEFEFE" d="M645.132 558.886C646.619 558.859 647.795 558.799 649.197 559.402C651.06 562.471 649.997 655.728 649.574 667.131C648.103 666.693 646.914 666.425 645.796 665.297C645.015 660.579 645.499 655.349 645.496 650.546L645.359 623.547Q645.178 603.633 644.79 583.723C644.652 575.84 643.668 566.635 645.132 558.886Z"/>
	<path fill="#FEFEFE" d="M894.759 438.044C897.612 438.415 900.444 439.078 902.979 440.487C907.072 442.763 908.553 446.178 909.806 450.417C908.412 455.03 906.34 458.08 903.146 461.566C900.906 462.204 898.588 462.636 896.313 463.14C894.04 463.481 891.97 464.037 889.787 464.751C887.622 461.924 885.614 459.096 884.203 455.799C882.856 452.651 881.734 448.861 883.23 445.556C885.174 441.261 890.699 439.616 894.759 438.044Z"/>
	<path fill="#FEFEFE" d="M779.478 586.416C780.851 586.605 781.976 586.827 783.289 587.307C784.52 591.255 783.853 606.064 783.922 611.121Q784.408 659.747 784.24 708.375C782.76 708.482 781.849 708.499 780.44 707.886C779.637 706.947 779.546 706.168 779.483 704.981C778.793 691.949 779.469 678.513 779.484 665.448L779.478 586.416Z"/>
	<path fill="#FEFEFE" d="M909.07 464.469C916.192 465.391 923.4 467.692 930.342 469.502C930.649 476.844 933.047 518.543 931.889 522.881L930.885 523.319Q925.135 524.477 919.425 525.821C917.645 510.675 919.502 493.908 915.216 479.186C913.791 474.288 911.246 470.025 909.403 465.335L909.07 464.469Z"/>
	<path fill="#FEFEFE" d="M815.611 502.752C831.267 505.09 847.068 506.244 862.777 508.148C864.756 511.532 865.673 514.837 868.694 517.523C869.501 518.241 869.814 518.42 870.269 519.42C869.469 520.29 869.078 521.019 867.909 521.331C867.578 520.278 867.658 520.152 866.795 519.371C865.032 520.205 863.967 523.065 862.832 524.695L862.623 524.247C862.689 522.596 863.478 521.443 864.27 520.06C864.818 519.105 864.681 519.668 864.552 518.417C863.076 517.642 856.548 517.293 854.802 517.625C854.491 517.685 854.182 517.761 853.872 517.829C849.646 519.406 845.156 521.128 840.67 521.742C834.857 522.539 829.03 521.14 823.207 520.946C819.995 520.84 816.797 521.681 813.586 521.628C812.441 521.61 811.604 521.469 810.66 520.774L810.541 519.75L811.129 519.476L812.164 520.245C812.089 518.516 811.87 513.457 810.843 512.317C810.193 513.458 810.113 513.832 808.964 514.422C807.602 514.369 806.306 514.464 805.109 513.721L805.481 513.077C806.6 512.637 807.697 512.228 808.866 511.938L809.801 511.711L809.625 511.028C808.549 510.771 807.524 510.659 806.426 510.553L805.866 509.807C805.911 508.713 805.893 508.028 806.51 507.099L807.679 507.302L808.548 505.507C810.312 504.669 810.966 506.834 812.953 506.398C814.425 506.075 814.99 503.966 815.611 502.752Z"/>
	<path fill="#FEFEFE" d="M647.189 483.903C650.15 489.864 649.379 503.136 653.447 507.373C657.549 511.645 667.676 510.654 673.258 510.714C675.504 513.505 677.596 517.197 679.024 520.496C679.631 521.896 680.065 523.544 679.289 524.973C677.687 527.924 671.33 528.716 668.235 529.445C659.279 531.505 650.396 533.961 641.501 536.269C644.084 518.946 643.587 501.08 647.189 483.903Z"/>
	<path fill="#FEFEFE" d="M726.987 464.835C728.678 465.251 730.289 465.434 731.506 466.785C731.742 467.633 732.048 468.145 731.809 469.019C730.669 473.19 711.6 494.555 706.954 497.421C691.589 497.541 680.184 491.946 665.974 491.487C665.609 489.3 665.325 486.775 664.468 484.729C663.709 482.914 662.048 479.948 660.091 479.235C658.016 482.69 660.753 493.044 661.435 497.306C668.389 498.308 675.28 498.229 682.263 499.58C679.95 501.05 675.274 504.635 672.625 504.561C667.662 504.477 662.713 504.61 657.746 504.441C654.851 496.878 653.426 487.508 652.26 479.474C651.637 475.179 651.513 470.71 654.217 467.097C655.411 466.472 655.709 466.245 657.095 466.606C663.161 468.186 669.203 481.955 671.593 487.167C681.203 490.777 692.543 487.94 701.883 492.606C710.569 488.294 723.228 473.661 726.987 464.835Z"/>
	<path fill="#FEFEFE" d="M910.9 542.102C911.8 541.92 911.357 541.865 912.218 542.325C912.079 545.024 910.808 547.725 909.901 550.255C897.207 552.678 884.662 556.304 872.155 559.54L821.506 572.181C811.051 574.762 800.721 577.661 790.172 579.864L789.303 579.588C788.63 577.37 788.979 574.688 789.041 572.38C806.133 568.457 823.031 563.382 840.065 559.177C848.651 557.057 857.356 555.38 865.971 553.365Q888.513 548.044 910.9 542.102Z"/>
	<path fill="#FEFEFE" d="M644.045 543.81C649.462 544.331 654.935 545.754 660.287 546.79Q676.318 549.826 692.303 553.096Q737.753 561.983 783.059 571.58C783.112 574.473 783.346 577.365 783.527 580.252C766.523 577.874 749.578 573.463 732.764 569.958Q688.45 560.57 643.955 552.083C643.78 549.323 643.933 546.57 644.045 543.81Z"/>
	<path fill="#FEFEFE" d="M890.993 470.283C892.141 470.327 893.05 470.328 894.134 470.75C893.941 471.011 893.754 471.276 893.555 471.532C892.662 472.679 891.946 473.566 891.36 474.932C890.693 476.485 889.974 478.193 890.609 479.806C893.088 479.518 896.033 475.762 898.985 474.811C901.204 474.095 902.459 472.892 904.182 471.379C906.287 474.551 907.861 477.88 908.872 481.555C911.691 491.799 912.441 512.3 913.519 523.929C904.779 521.669 896.693 520.453 887.669 520.48C888.159 516.778 888.483 512.431 889.733 508.911C891.355 504.344 898.718 497.899 898.324 493.087C898.207 491.66 898.021 491.487 896.972 490.676C895.346 490.534 894.34 490.557 892.769 490.993C886.233 498.394 881.737 507.134 875.486 514.588C868.356 505.881 863.524 494.064 858.412 484.044C859.779 482.871 860.931 481.611 862.808 481.429C867.772 483.131 867.584 491.061 871.227 494.356C871.838 494.909 872.271 495.227 873.099 495.157C877.155 494.818 880.671 487.71 883.197 484.825C884.113 483.779 884.657 483.537 886.01 483.437C886.955 483.969 887.922 484.555 888.923 484.973C890.129 485.476 890.933 485.762 892.163 485.226C892.307 484.8 892.537 484.214 892.534 483.766C892.525 482.433 892.026 481.893 891.185 481.013C889.88 480.745 888.856 480.544 887.723 479.787C887.955 479.342 888.172 478.888 888.429 478.457C890.092 475.659 890.483 473.464 890.993 470.283Z"/>
	<path fill="#FEFEFE" d="M662.944 562.357C671.389 564.341 679.996 565.723 688.504 567.42L737.741 577.647C738.028 579.05 738.107 580.598 738.28 582.025C734.688 582.319 731.147 583.151 727.621 583.871Q695.305 589.597 662.858 594.522Q662.816 578.439 662.944 562.357Z"/>
	<path fill="#FEFEFE" d="M887.609 562.607C888.532 562.468 888.993 562.363 889.877 562.73C895.722 565.156 900.013 572.872 902.247 578.467C895.098 580.939 869.836 596.061 863.568 601.011C861.239 602.851 859.399 604.654 857.833 607.221C853.553 605.829 847.287 602.329 842.708 603.802C841.688 604.131 841.866 604.24 841.412 605.114L841.859 606.252L842.644 605.434L842.112 606.647C842.924 607.791 843.796 608.484 845.044 609.083C846.767 609.909 848.395 610.838 850.05 611.789Q850.041 620.162 849.941 628.535L849.911 634.142C842.824 625.155 835.458 616.393 828.422 607.366Q830.251 602.208 832.647 597.287Q835.043 592.366 837.976 587.745C840.931 582.999 844.31 577.561 848.778 574.073C855.419 568.889 878.517 564.682 887.609 562.607Z"/>
	<path fill="#FEFEFE" d="M632.261 471.677C636.354 471.238 640.526 471.414 644.638 471.446C642.834 475.837 641.437 480.028 640.519 484.689C638.047 497.242 637.462 510.41 636.264 523.16C635.555 530.696 634.149 538.563 634.446 546.122L638.101 549.184L638.092 550.632C638.042 555.1 638.616 559.482 638.74 563.934C638.975 572.343 638.725 580.819 638.68 589.234L622.112 585.459C618.271 584.623 614.46 583.877 610.567 583.318C610.366 575.093 609.099 566.655 608.294 558.44Q605.356 528.773 601.394 499.226C600.699 493.978 599.744 487.541 603.297 483.126C609.664 475.215 622.816 472.927 632.261 471.677Z"/>
	<path fill="#FEFEFE" d="M746.073 515.598C748.874 515.174 754.35 518.8 757.717 519.437C763.844 520.596 770.039 521.478 776.146 522.712C779.75 523.44 783.411 524.775 787.044 525.223C790.782 525.683 795.515 524.41 799.011 525.4C799.667 528.238 799.37 531.049 799.215 533.931C796.04 533.503 791.976 532.3 788.826 532.845C787.94 532.998 786.982 533.368 786.525 534.184C784.899 537.084 787.993 543.816 789.018 546.754C783.937 548.768 778.562 550.439 773.135 551.202C770.74 551.539 767.348 551.181 765.139 551.97C763.975 552.387 763.934 552.727 763.436 553.774L763.877 554.783C767.819 557.848 778.481 559.077 783.737 560.255L784.084 558.509C784.549 559.062 785.067 559.707 785.69 560.086C788.824 561.991 797.651 560.523 801.208 559.813C812.986 557.464 824.553 553.835 836.142 550.705C841.527 549.25 847.33 548.364 852.542 546.396C853.917 545.877 855.197 545.374 856.036 544.111C855.801 543.226 855.99 543.312 855.321 542.808C851.404 539.856 837.298 546.174 832.05 546.44C831.323 545.76 830.308 544.647 829.447 544.151C826.133 542.244 814.225 543.218 809.6 541.308C808.016 539.569 809.024 537.783 808.005 535.983C807.051 534.299 804.782 534.098 803.081 533.809C803.56 530.149 803.519 526.418 803.587 522.731C806.177 522.043 808.91 521.777 811.56 521.388C808.878 522.487 806.634 523.259 805.124 525.842C804.927 527.174 805.096 527.658 805.721 528.841C807.488 529.932 820.213 530.571 823.205 531.054C830.376 532.211 837.187 533.996 844.178 535.914C848.138 537 857.048 539.692 860.905 538.908C862.023 538.681 863.334 537.78 864.319 537.213L864.949 536.845C865.98 537.055 865.602 536.897 866.467 537.362C866.72 537.498 866.966 537.644 867.218 537.78C872.104 540.401 881.518 536.085 886.702 534.536C886.665 533.597 886.565 532.664 886.488 531.728C886.331 529.827 885.848 527.306 887.129 525.795C889.835 525.51 892.519 525.953 895.2 526.327C900.079 527.007 913.129 528.1 915.777 532.273C916.201 532.941 915.884 533.227 915.668 533.912C911.724 536.853 898.739 538.911 893.466 540.237C871.812 546.551 849.622 551.089 827.76 556.626L803.923 562.806C799.349 563.999 794.182 565.826 789.471 566.054C781.319 566.449 750.5 559.011 740.418 556.948C711.66 551.065 682.848 545.011 653.82 540.609C663.326 536.973 677.96 532.964 688.028 531.673C694.666 534.764 704.156 537.072 711.463 537.271C711.997 536.714 712.22 536.406 712.961 536.143C713.31 536.845 713.669 537.389 714.168 537.992C731.078 542.463 735.017 539.815 750.927 534.765C752.518 534.26 760.281 532.592 760.563 532.47C761.878 531.899 762.744 530.203 763.029 528.9C759.819 524.448 741.497 534.974 737.641 534.035C742.607 530.526 755.298 529.435 758.117 525.27L757.798 524.398C751.764 520.069 737.832 521.24 730.285 519.781L729.554 519.635C734.572 517.574 740.737 516.79 746.073 515.598Z"/>
	<path fill="#FEFEFE" d="M966.131 523.683C967.44 523.544 968.291 523.422 969.567 523.844C971.042 527.175 961.429 596.062 960.032 606.181C942.61 610.45 925.345 615.245 907.862 619.334C906.513 619.622 905.319 620.004 903.957 619.584C903.885 619.432 903.797 619.286 903.742 619.127C901.189 611.821 914.81 558.735 917.901 549.225Q919.303 544.859 921.116 540.648Q922.929 536.436 925.135 532.417C929.508 530.782 934.492 530.029 939.054 529.012C948.024 527.012 957.008 524.851 966.131 523.683Z"/>
	<path fill="#010101" d="M214.573 527.189C219.585 526.484 226.901 526.158 231.127 529.321C243.3 538.435 248.011 577.217 250.284 592.548C262.221 589.994 274.148 587.143 286.001 584.225C294.989 582.011 304.036 579.321 313.254 578.304C314.136 573.983 314.533 569.733 314.863 565.346C303.161 566.727 291.551 569.342 279.921 571.241C277.062 571.708 272.64 572.653 270.157 570.869C270.118 570.029 269.957 569.867 270.498 569.126C271.165 568.212 271.915 567.702 272.982 567.374C278.058 565.816 283.998 565.242 289.255 564.399L315.908 559.988C316.086 558.214 316.153 556.389 317.015 554.791C317.81 553.314 319.515 551.798 321.193 551.464C322.487 551.207 323.81 551.701 324.811 552.508C326.944 554.228 326.734 556.814 326.933 559.318C343.792 555.688 361.036 552.934 378.073 550.216C385.192 549.081 393.033 547.145 400.182 547.077C401.457 547.065 402.41 547.203 403.509 547.897C403.774 548.883 403.944 548.673 403.456 549.444C402.487 550.979 400.551 551.802 398.847 552.228C396.87 552.722 394.73 552.669 392.71 552.96C387.742 553.677 382.786 554.582 377.839 555.432Q352.895 559.97 327.887 564.141Q328.335 570.143 328.585 576.156C331.395 575.796 333.952 575.633 336.78 576.075C345.052 577.368 353.444 580.436 361.518 582.749C371.77 585.685 382.153 588.28 392.341 591.412C393.278 590.109 393.909 589.166 395.408 588.45C397.394 589.03 398.14 591.368 399.732 592.733C400.648 593.518 401.863 593.812 402.908 594.391C403.066 594.479 403.221 594.572 403.377 594.663C405.183 594.327 405.909 590.531 406.448 588.95C411.243 574.861 424.225 546.289 434.76 536.477C439.395 532.16 445.002 532.037 450.984 532.327C462.513 532.887 479.658 534.875 487.706 544.313C490.283 547.335 491.492 551.819 492.019 555.7C492.962 562.651 492.316 570.102 492.143 577.113Q491.672 599.821 490.106 622.479C496.855 625.062 520.607 633.157 526.643 633.271C534.766 633.425 543.527 629.974 551.569 632.066C553.084 632.46 553.744 632.995 554.492 634.378C557.801 640.498 557.979 653.007 558.671 660.159Q561.711 691.483 562.904 722.932Q564.097 754.381 563.439 785.845C563.365 792.087 564.074 803.747 562.361 809.275C562.064 810.236 561.523 810.836 560.6 811.205C557.054 812.626 552.862 810.355 549.614 808.994C548.591 802.08 548.823 794.797 548.678 787.811L548.055 751.223C536.998 752.694 525.98 755.161 514.961 756.971Q514.891 767.154 515.022 777.335C515.096 781.475 515.707 786.255 515.079 790.301C514.939 791.201 514.584 791.945 513.949 792.601C511.786 794.838 507.973 795.711 504.964 795.541C492.739 794.848 504.43 766.872 498.141 760.785C497.4 760.067 496.857 760.342 495.915 760.427C491.511 760.825 487.076 761.811 482.688 762.429Q472.221 763.865 461.701 764.846C461.638 778.561 461.003 792.287 460.693 806C460.565 811.645 461.268 817.967 460.612 823.494C460.348 825.713 459.562 827.841 457.991 829.471C456.43 831.09 454.235 832.097 451.969 832.059C450.269 832.031 448.605 831.384 447.449 830.113C446.761 829.357 446.245 828.367 446.035 827.37C444.929 822.137 445.492 815.94 445.515 810.59C445.577 795.519 446.478 780.457 446.476 765.406C427.535 759.725 408.897 751.61 390.71 743.865C391.077 752.42 392.775 812.469 391.11 817.2C390.647 818.515 389.593 819.399 388.348 819.928C386.267 820.814 384.072 821.085 381.964 820.132C380.255 819.359 379.12 818.057 378.549 816.266C376.367 809.431 376.866 772.602 376.685 762.609C376.527 753.855 375.789 744.846 376.139 736.109C376.216 734.195 376.358 732.115 377.367 730.437C381.983 722.76 406.187 718.361 415.256 716.109L415.087 698.25L414.924 685.28C401.232 687.512 387.082 690.389 373.626 693.787C373.891 700.287 376.137 715.09 371.965 720.226C370.687 721.8 368.9 722.583 366.907 722.747C364.711 722.928 362.488 722.462 360.869 720.888C356.439 716.583 358.376 702.298 358.438 696.147C349.468 697.938 340.374 699.505 331.518 701.793L334.16 792.467L335.377 826.853C335.525 832.052 335.997 837.484 335.7 842.669C335.593 844.535 335.325 846.777 334.108 848.287C332.224 850.624 328.431 851.389 325.606 851.519C321.951 851.686 317.28 850.816 314.547 848.185C312.591 846.301 312.208 843.081 311.939 840.504C311.431 835.646 311.629 830.665 311.517 825.783L310.789 799.418Q309.611 750.713 307.789 702.027C291.649 694.883 272.475 690.517 255.582 685.156C225.342 675.56 195.288 665.149 164.912 656.019C165 670.559 165.727 685.005 165.488 699.572C174.523 702.112 219.786 718.604 225.439 722.544C227.11 723.709 227.533 724.581 227.77 726.576C228.391 731.815 228.248 737.398 228.471 742.683L229.801 774.853C230.143 783.201 231.668 792.514 231.084 800.771C230.927 802.993 230.39 805.351 228.87 807.057C227.442 808.661 225.375 809.407 223.251 809.386C220.291 809.357 218.456 807.531 216.498 805.549C214.923 796.969 215.254 787.789 215.018 779.069L213.939 733.388C197.97 737.522 181.626 741.035 165.998 746.327Q168.138 768.305 169.529 790.344C170.061 797.908 171.174 805.915 170.879 813.477C170.812 815.199 170.745 816.915 169.72 818.379C168.268 820.455 165.537 821.522 163.103 821.783C160.979 822.01 158.472 821.717 156.83 820.217C155.394 818.906 154.853 816.858 154.58 815.004C153.667 808.804 153.952 801.992 153.681 795.707C152.98 779.489 152.619 763.249 151.828 747.038L95.4416 726.47C95.4564 741.334 97.545 756.594 98.4929 771.472C98.8193 776.597 99.7053 782.458 99.1313 787.552C98.9798 788.896 98.4399 790.275 97.6382 791.365C96.5042 792.907 94.7093 793.787 92.8256 793.968Q92.4243 794.008 92.021 794.006Q91.6177 794.005 91.2166 793.963Q90.8155 793.921 90.4207 793.839Q90.0258 793.757 89.6413 793.635Q89.2568 793.514 88.8865 793.354Q88.5162 793.194 88.1639 792.998Q87.8116 792.802 87.481 792.571Q87.1503 792.34 86.8446 792.077C85.5858 790.991 84.7546 789.594 84.2922 788.005C82.2362 780.941 82.5313 760.181 82.228 751.816C81.8435 741.212 81.5102 730.55 80.4736 719.986C79.6895 711.995 78.007 704.011 76.8737 696.054L70.0109 646.265Q67.7328 630.622 66.0265 614.906C65.6553 611.537 64.855 608.003 64.7757 604.636C64.7273 602.581 65.2029 601.348 66.5911 599.865C68.4651 599.013 70.0331 598.916 72.083 599.055C76.4982 599.356 81.0401 600.768 85.3487 601.766C102.721 605.789 119.74 611.361 136.823 616.455C139.437 600.828 143.405 562.705 152.485 551.035C162.613 538.016 198.257 529.142 214.573 527.189Z"/>
	<path fill="#FEFEFE" d="M393.02 593.388C395.644 597.975 395.988 603.804 396.682 608.963L394.767 608.551C392.745 606.001 393.348 596.842 393.02 593.388Z"/>
	<path fill="#FEFEFE" d="M401.442 601.231C405.826 603.721 411.154 604.592 415.763 606.699L415.72 607.298C410.975 607.662 406.235 608.123 401.494 608.541L401.442 601.231Z"/>
	<path fill="#FEFEFE" d="M321.22 559.414C321.398 559.704 321.62 559.971 321.753 560.284C322.432 561.878 324.077 579.545 323.634 580.736C323.444 581.247 323.034 581.646 322.734 582.102C321.294 581.858 321.093 581.958 320.131 580.894C318.413 574.899 320.561 565.635 321.22 559.414Z"/>
	<path fill="#FEFEFE" d="M364.648 694.727L367.231 695.246C368.854 698.37 367.918 712.151 367.461 716.147L365.779 715.505C363.099 712.309 364.544 699.036 364.648 694.727Z"/>
	<path fill="#FEFEFE" d="M207.553 604.682C210.525 606.832 212.793 606.517 216.258 606.356C216.561 609.889 217.086 613.328 217.076 616.887C216.921 616.94 216.768 616.998 216.612 617.046C215.049 617.517 213.851 617.738 212.378 616.849C209.396 615.05 208.375 607.924 207.553 604.682Z"/>
	<path fill="#FEFEFE" d="M328.096 586.682C330.355 586.536 332.716 586.282 334.975 586.395C336.353 586.463 337.881 586.672 338.833 587.684C336.623 590.343 317.116 592.244 312.621 592.767C308.237 593.363 304.3 593.289 299.918 592.888C303.462 591.628 307.262 592.091 310.904 591.292C314.256 590.556 317.255 588.669 320.534 587.788C322.942 587.141 325.619 586.972 328.096 586.682Z"/>
	<path fill="#FEFEFE" d="M507.536 757.601C508.054 757.803 508.552 758.099 509.046 758.355C509.279 759.221 509.428 759.964 509.452 760.867C509.543 764.37 509.923 786.115 508.874 787.897C508.531 788.479 507.948 788.882 507.486 789.375L506.18 788.827C504.547 785.698 505.267 765.653 505.704 760.99C505.88 759.119 506.099 758.833 507.536 757.601Z"/>
	<path fill="#FEFEFE" d="M422.617 683.167L425.219 683.555C425.347 684.003 425.424 684.217 425.472 684.726C425.784 688.059 426.43 710.641 425.681 712.669C425.51 713.131 425.103 713.469 424.815 713.869C423.635 713.961 422.9 714.019 421.796 713.557C421.719 713.03 421.628 712.504 421.58 711.974C421.245 708.233 420.75 686.77 421.698 684.334C421.878 683.872 422.31 683.556 422.617 683.167Z"/>
	<path fill="#FEFEFE" d="M239.163 618.688C241.29 618.381 243.54 618.496 245.691 618.468C233.038 625.295 219.331 626.271 205.253 626.793C203.72 626.879 202.487 626.995 201.015 626.438C201.287 625.349 200.999 625.758 202.015 625.07C209.15 620.239 211.211 622.942 218.078 624.241C224.71 620.341 231.664 619.638 239.163 618.688Z"/>
	<path fill="#FEFEFE" d="M153.963 652.729C154.933 653.012 156.292 653.267 157.15 653.774C158.155 654.369 158.297 655.037 158.448 656.114C159.001 660.041 158.661 664.471 158.731 668.468C158.905 678.442 158.922 688.737 160.052 698.647L157.432 697.005C155.977 692.846 154.508 659.965 153.963 652.729Z"/>
	<path fill="#FEFEFE" d="M423.388 611.728C425.119 611.565 427.072 612.164 428.782 612.487C419.69 614.734 401.656 619.226 392.844 619.906C391.07 620.043 389.352 619.643 387.636 619.242C387.491 619.224 387.344 619.217 387.2 619.189C385.755 618.908 383.74 618.104 382.829 616.925L383.045 616.32C384.567 615.458 386.07 615.174 387.79 614.931C392.356 614.286 397.072 614.488 401.672 614.102C408.913 613.495 416.148 612.442 423.388 611.728Z"/>
	<path fill="#FEFEFE" d="M87.4332 724.137L88.6186 724.634C90.8689 727.687 92.5718 778.291 92.437 784.949C91.4388 784.719 90.9349 784.462 90.1353 783.823C88.6217 777.499 89.1699 768.208 88.8762 761.502C88.3344 749.136 87.0929 736.498 87.4332 724.137Z"/>
	<path fill="#FEFEFE" d="M553.471 749.216C554.768 749.3 555.771 749.264 556.841 750.105C557.844 757.545 556.939 766.073 556.835 773.602C556.692 783.893 557.188 794.59 556.165 804.815L555.348 804.764C555.105 804.422 554.783 804.123 554.619 803.737C553.646 801.458 553.477 755.539 553.471 749.216Z"/>
	<path fill="#FEFEFE" d="M219.803 731.624C220.738 731.798 221.2 731.96 221.946 732.555C223.848 742.719 223.276 759.54 223.593 770.607C223.881 780.681 224.917 791.093 224.52 801.145L222.293 800.438C222.085 800.109 221.778 799.824 221.67 799.451C221.484 798.803 219.556 735.053 219.803 731.624Z"/>
	<path fill="#FEFEFE" d="M381.668 739.736C382.852 740.284 383.704 740.835 384.712 741.639C385.94 746.556 385.241 758.047 385.326 763.555C385.584 780.285 386.27 797.016 385.929 813.749C385.508 813.476 385.167 813.29 384.825 812.893C382.639 810.357 381.936 746.554 381.668 739.736Z"/>
	<path fill="#FEFEFE" d="M452.58 764.272C453.465 764.517 454.339 764.815 455.215 765.09C456.585 766.887 455.127 817.79 454.525 825.182C453.536 824.893 452.665 824.745 451.89 824.029C450.315 822.574 452.166 770.761 452.58 764.272Z"/>
	<path fill="#FEFEFE" d="M159.521 747.587C159.705 747.672 159.909 747.723 160.073 747.842C161.035 748.535 161.018 749.04 161.2 750.122C162.64 758.679 162.085 768.35 162.504 777.066C162.986 787.092 164.59 801.08 164.043 810.73C163.951 812.361 163.914 812.661 162.963 813.999L161.117 812.843C160.536 811.726 157.438 755.485 157.84 750.017C157.942 748.625 158.504 748.463 159.521 747.587Z"/>
	<path fill="#FEFEFE" d="M444.163 679.1C444.708 678.991 445.135 679.105 445.678 679.191C447.55 683.498 445.599 702.93 445.293 708.229L439.119 709.602C438.477 709.711 438.861 709.705 437.981 709.428C437.012 706.423 438.492 685.127 438.524 680.464C440.389 679.961 442.285 679.549 444.163 679.1Z"/>
	<path fill="#FEFEFE" d="M346.195 586.73C349.767 587.092 353.308 587.835 356.837 588.486C343.283 594.857 321.299 602.555 306.139 601.254C296.809 600.454 287.396 597.564 278.38 595.165C275.859 594.52 273.277 594.024 270.733 593.467C274.874 592.471 289.613 588.361 292.819 589.59C293.749 591.315 292.847 592.913 293.327 594.766C293.625 595.92 294.413 596.613 295.467 597.13C302.611 600.632 334.571 596.321 341.88 592.984C344.435 591.818 345.33 589.194 346.195 586.73Z"/>
	<path fill="#FEFEFE" d="M323.383 702.187C324.459 702.505 324.353 702.344 325.153 703.301C325.888 707.623 325.699 712.249 325.803 716.63L326.348 739.307L328.81 809.792C329.035 815.046 331.017 837.612 329.36 841.317L327.836 840.328C326.755 835.604 327.086 829.819 326.908 824.924L325.899 791.442L323.554 727.835C323.293 720.628 322.683 713.381 322.593 706.175C322.573 704.587 322.537 703.555 323.383 702.187Z"/>
	<path fill="#FEFEFE" d="M374.115 616.692L375.26 616.74C378.517 622.657 382.675 624.423 388.718 626.759C395.149 625.191 401.739 624.241 408.199 622.785C417.274 620.739 426.815 617.357 436.114 617.047C440.423 616.904 444.225 617.726 448.31 618.983C442.703 620.611 436.879 621.387 431.12 622.273C424.713 623.917 417.579 624.546 411.009 625.629C404.157 626.758 396.77 628.538 389.851 628.724C380.25 628.981 363.89 622.822 354.424 619.839Q364.209 617.888 374.115 616.692Z"/>
	<path fill="#FEFEFE" d="M244.667 625.977C252.769 626.854 262.828 626.328 271.166 626.616C259.072 633.76 226.037 638.241 211.879 636.889C203.348 636.077 195.087 634.898 186.932 632.187C196.1 629.295 199.59 631.652 208.378 631.823Q213.001 631.946 217.615 631.639Q222.23 631.332 226.796 630.596Q231.362 629.861 235.839 628.703Q240.317 627.546 244.667 625.977Z"/>
	<path fill="#FEFEFE" d="M314.351 702.654C315.729 702.903 315.964 702.872 316.949 703.835C317.198 704.522 317.444 705.163 317.501 705.9C317.674 708.145 317.429 710.484 317.513 712.752L318.388 733.999Q319.733 768.117 320.528 802.252C320.797 814.972 322.625 829.089 321.445 841.639C320.702 841.21 319.516 840.624 319.078 839.865C318.024 838.039 313.756 711.752 314.351 702.654Z"/>
	<path fill="#FEFEFE" d="M454.814 662.073C455.144 662.015 455.713 662.122 456.054 662.152C456.302 664.332 455.227 666.807 454.597 668.89C443.206 672.283 428.535 674.449 416.594 676.903C384.882 683.42 352.947 689.308 321.143 695.377C320.256 695.46 320.753 695.515 319.702 694.964C319.381 693.702 319.231 692.66 319.866 691.441C320.159 690.878 320.563 690.612 321.125 690.407C329.917 687.189 345.266 685.177 354.955 683.08L418.539 669.771C430.631 667.277 442.833 665.044 454.814 662.073Z"/>
	<path fill="#FEFEFE" d="M157.853 705.031C177.172 711.099 196.23 718.67 215.266 725.587C211.569 726.684 207.829 727.663 204.113 728.694C190.02 731.832 176.122 735.844 162.14 739.422Q160.203 722.201 157.853 705.031Z"/>
	<path fill="#FEFEFE" d="M147.391 634.707C156.368 636.696 165.265 640.589 174.001 643.5L226.101 660.62L286.742 680.41C294.987 683.17 304.994 685.404 312.442 689.719C313.138 691.246 312.605 693.238 312.382 694.867C309.186 695.237 164.886 648.774 148.638 643.731C147.983 640.734 147.682 637.756 147.391 634.707Z"/>
	<path fill="#FEFEFE" d="M442.167 715.52C442.826 715.444 443.172 715.518 443.808 715.661C443.94 721.222 443.338 726.946 443.053 732.511Q442.354 744.666 442.526 756.84C428.806 752.147 415.489 746.868 402.122 741.262C396.159 738.838 390.129 736.519 384.341 733.695C393.88 726.005 408.544 724.504 420.216 721.555Q431.262 718.794 442.167 715.52Z"/>
	<path fill="#FEFEFE" d="M447.68 539.204C448.369 539.148 449.035 539.145 449.728 539.151C459.214 539.229 475.214 540.626 482.123 548.014C484.238 550.277 485.041 553.975 485.387 556.97C486.335 565.173 485.45 574.105 485.049 582.345Q483.989 601.603 483.176 620.872C474.159 618.574 465.268 615.595 456.373 612.858C440.523 608.537 424.94 602.888 409.421 597.512C418.779 576.006 426.522 558.494 441.248 539.86C443.377 539.57 445.54 539.416 447.68 539.204Z"/>
	<path fill="#FEFEFE" d="M218.125 533.703C220.711 533.547 223.155 533.649 225.731 533.848C237.748 546.544 242.162 577.356 243.614 594.6C239.751 595.565 222.794 600.917 220.195 599.772L219.481 597.404L218.536 596.954C216.574 597.52 216.409 598.666 214.707 599.418C213.971 599.194 213.348 598.944 212.685 598.55C212.068 598.182 211.414 597.708 210.743 597.449C209.523 596.979 208.817 597.386 207.755 597.954C206.713 599.623 206.639 601.543 206.391 603.455C194.137 607.819 181.022 610.807 168.481 614.307C162.748 616.141 152.671 620.592 146.977 620.09C145.411 619.952 143.76 619.337 142.265 618.864C145.396 605.252 151.26 563.314 159.222 554.407C168.284 544.269 204.29 534.796 218.125 533.703Z"/>
	<path fill="#FEFEFE" d="M72.9207 607.241C87.3461 610.503 101.55 614.373 115.787 618.353C122.5 620.23 130.229 621.697 136.404 624.883C139.669 632.976 141.273 649.975 142.779 659.147L149.76 704.154C151.611 715.954 153.893 727.955 154.738 739.867C141.37 735.339 128.201 730.218 114.926 725.423C105.886 722.158 96.6535 719.312 87.7287 715.746C84.978 706.527 84.6433 695.659 83.2798 686.09Q77.5192 646.742 72.9207 607.241Z"/>
	<path fill="#FEFEFE" d="M539.095 639.699C542.25 639.332 545.431 639.327 548.605 639.251C550.353 646.766 550.889 654.829 551.718 662.489C554.592 689.06 555.456 715.953 556.147 742.663C526.093 746.668 496.681 753.525 466.434 756.642C462.936 757.071 454.304 758.974 451.665 756.363C450.317 755.029 450.251 751.811 450.234 750.032C449.982 724.017 453.47 699.684 460.825 674.765C463.144 666.911 466.036 656.935 471.853 650.942C478.803 648.551 486.66 647.723 493.913 646.466C508.946 643.86 523.926 641.394 539.095 639.699Z"/>
	<path fill="#FEFEFE" d="M360.676 589.605C369.712 592.092 379.3 594.059 388.039 597.38C387.898 601.23 388.012 605.068 388.107 608.918C378.585 610.299 356.224 611.715 348.993 616.321C347.615 617.198 346.781 618.11 346.399 619.74C346.53 620.412 346.531 621.165 346.985 621.708C348.335 623.319 351.419 624.447 353.389 625.229C360.969 628.239 405.954 643.115 411.667 643.001C413.144 642.971 413.598 642.834 414.63 641.79C414.759 641.114 415.016 640.61 414.705 639.954C413.039 636.441 402.686 634.635 399.068 633.548C408.426 632.073 447.766 627.09 453.601 624.437C455.433 623.603 455.998 621.544 456.717 619.811C474.792 624.662 492.501 631.28 510.575 636.17C501.181 637.232 476.805 640.757 468.846 644.217C464.315 646.187 461.781 650.55 460.071 654.998C442.891 657.62 321.934 685.229 317.935 684.326C317.711 684.275 317.491 684.21 317.267 684.159C299.669 680.096 282.644 672.583 265.378 667.198C245.89 661.486 226.728 654.531 207.482 648.08C197.059 644.586 186.476 641.554 176.003 638.212C166.204 635.085 156.618 631.317 146.61 628.872C157.55 621.23 189.614 613.593 203.856 610.148C204.435 612.682 205.393 615.071 206.306 617.498C201.293 619.493 196.546 622.129 191.597 624.28C188.682 625.546 185.008 626.25 182.321 627.866C181.488 628.367 180.715 629.116 180.305 630.006C179.792 631.12 179.894 632.468 180.42 633.556C181.985 636.796 186.175 638.089 189.387 638.941C209.961 644.401 230.609 642.499 251.22 638.714C258.483 637.38 266.454 636.125 272.855 632.211C274.888 630.968 277.189 629.147 277.488 626.602C277.633 625.359 277.23 624.026 276.365 623.139C272.218 618.883 262.194 620.521 256.688 620.586C255.49 620.6 253.675 620.746 252.809 619.908L253.482 617.003C253.137 615.949 252.795 615.287 251.878 614.611C246.063 610.322 229.823 614.232 222.812 615.278C222.127 612.202 221.617 609.179 221.238 606.05C234.508 603.099 247.707 599.227 260.945 596.03C272.158 600.176 296.207 606.677 308.011 607.601C317.475 608.341 351.883 600.885 358.795 594.43C360.402 592.929 360.57 591.753 360.676 589.605Z"/>
	<path fill="#010101" d="M317.452 613.884C328.521 614.903 324.01 619.782 329.139 625.282C329.944 624.747 330.768 624.14 331.697 623.833C333.88 623.112 337.398 623.102 339.429 624.308C339.967 624.627 340.823 625.275 340.957 625.893C341.771 629.642 336.873 638.131 338.163 644.807C338.206 645.033 338.256 645.258 338.303 645.484C350.783 646.756 362.14 649.489 374.233 652.608C377.942 653.564 381.916 654.128 385.494 655.478C387.009 656.05 387.891 656.625 388.592 658.084C388.509 658.23 388.444 658.389 388.342 658.523C385.081 662.798 343.312 671.233 334.803 673.094Q329.868 674.241 324.91 675.283C322 675.868 319.026 676.351 316.049 676.022C311.483 675.518 306.845 673.813 302.337 672.848C293.543 670.966 279.001 670.253 271.806 665.075C270.457 664.105 270.067 663.299 269.861 661.688C270.124 660.987 270.387 660.381 270.911 659.829C277.606 652.777 297.414 651.061 306.64 650.765C306.132 649.325 305.609 647.869 305.265 646.379C304.258 642.015 305.13 639.257 307.452 635.555C306.09 630.405 302.041 623.358 304.121 618.144C304.721 617.567 305.014 617.077 305.861 616.891C309.351 616.125 313.276 619.113 316.076 620.867C316.267 618.467 316.214 616.007 317.452 613.884Z"/>
	<path fill="#FEFEFE" d="M308.112 621.848C309.935 622.931 311.977 623.999 313.569 625.405C316.426 627.929 316.671 630.565 316.858 634.176L314.775 634.245C313.425 629.634 308.819 626.376 308.112 621.848Z"/>
	<path fill="#FEFEFE" d="M317.992 642.292C318.926 642.167 320.547 641.848 321.455 642.067C322.604 642.345 322.8 642.602 323.359 643.593C323.254 643.799 323.19 644.032 323.043 644.211C321.14 646.527 316.993 645.765 314.405 645.581C312.559 645.343 311.356 644.768 309.907 643.624L309.927 642.868C312.419 641.986 315.369 642.293 317.992 642.292Z"/>
	<path fill="#FEFEFE" d="M321.839 647.203C322.883 647.051 323.63 647.059 324.668 647.247C326.768 649.787 325.553 656.189 325.318 659.414C321.573 659.526 317.816 660.062 314.093 660.476C313.336 660.493 312.567 660.401 311.811 660.347C310.077 658.431 310.525 650.463 310.17 647.477C314.198 647.829 317.834 647.716 321.839 647.203Z"/>
	<path fill="#FEFEFE" d="M320.649 619.763C320.811 619.852 320.982 619.927 321.136 620.029C324.573 622.312 321.881 626.984 322.956 629.965C323.164 630.544 323.658 630.847 324.224 631.05C327.098 632.077 332.11 629.99 334.869 629.028C333.68 634.454 331.485 644.588 333.96 649.758C336.521 655.109 343.057 652.262 347.401 654.312C348.694 654.922 349.045 655.463 349.482 656.768Q339.919 658.133 330.339 659.374C330.758 656.602 331.218 653.808 331.493 651.017C331.904 646.856 331.903 641.085 328.915 637.802C327.185 635.901 325.213 635.772 322.771 635.764L322.093 635.768C319.77 632.838 320.498 623.492 320.649 619.763Z"/>
	<path fill="#FEFEFE" d="M355.098 654.412C360.973 655.081 366.75 656.636 372.488 658.022C363.629 659.532 354.778 662.107 345.998 664.089C337.087 666.101 327.945 667.413 319.259 670.287C308.74 667.804 298.052 666.743 287.535 663.947C284.757 663.335 282.084 662.471 279.379 661.601C284.273 660.471 298.131 655.404 301.808 656.886C299.952 657.545 296.784 658.314 295.54 659.94C295.079 660.544 295.263 660.475 295.415 661.312C296.48 662.483 297.634 662.997 299.114 663.48C312.061 667.702 329.29 665.622 342.511 663.047C345.569 662.452 349.774 661.975 352.432 660.34C354.534 659.048 354.653 656.627 355.098 654.412Z"/>
</svg>
